<svg width="96" height="96" viewBox="0 0 96 96" fill="none" xmlns="http://www.w3.org/2000/svg">
<path d="M3.09241 15.5143C3.57265 12.6671 6.35796 10.373 10.0125 9.95033C21.3193 8.64254 34.0431 8.86009 46.5495 9.15187C54.1389 9.32893 61.9904 9.04963 68.4131 9.86321C72.0043 10.3181 74.6698 12.6215 75.0817 15.4312C75.6482 19.2949 75.7883 24.6689 76.3462 29.7835C77.3004 38.5316 78.5149 48.1423 78.2142 59.8723C78.0523 63.1265 74.8984 65.4949 70.6905 66.1687C60.725 67.0536 54.2645 66.9248 44.9243 67.0469C33.719 67.1933 19.6779 67.4093 8.02566 66.2576C3.91205 65.851 0.914056 62.9635 0.639457 59.9481C0.189121 55.003 0.629215 48.842 0.639451 44.3099C0.639449 34.4151 0.925481 28.3614 3.09241 15.5143Z" fill="#FFD600"/>
<path fill-rule="evenodd" clip-rule="evenodd" d="M87.4654 43.1368C88.5712 43.1635 89.4458 44.0708 89.4188 45.1634C89.2856 50.5584 90.6653 54.3535 92.0904 58.2609L92.1103 58.3154C93.5349 62.2211 95.0294 66.3185 94.5626 71.8527C94.1882 76.2919 91.4221 80.4519 88.9 82.0365C84.5553 84.7662 80.1833 85.3555 77.9118 85.6433C76.8146 85.7822 75.8112 85.0161 75.6705 83.9321C75.5299 82.8481 76.3053 81.8567 77.4024 81.7177C78.8504 81.5343 83.4269 80.5855 85.9859 79.3211C89.4188 77.6249 90.2585 75.2264 90.5708 71.524C90.9602 66.9069 89.7527 63.5253 88.322 59.6026L88.2892 59.5126C86.8613 55.5981 85.2626 51.2151 85.4144 45.0669C85.4413 43.9743 86.3596 43.1102 87.4654 43.1368Z" fill="#0075FF"/>
<path d="M81.122 24.1957C80.8358 19.9553 82.2664 17.1284 84.5554 15.7149C89.7055 12.888 93.5208 12.9826 94.2834 13.7361C96.5723 15.9976 95.857 21.6515 95.1417 23.065C94.5695 24.1957 90.85 23.3477 90.5638 24.7611C89.7055 29.0015 91.4717 36.0174 92.5667 42.8535C92.8528 44.6396 91.9944 47.094 89.7055 47.6593C88.1877 47.9146 86.8443 47.8949 85.4137 47.6593C83.697 47.3767 82.2664 44.7271 82.2664 42.8535L81.122 24.1957Z" fill="#FFE600"/>
<path d="M89.314 13.5555C88.651 15.8556 89.977 23.5225 90.64 24.6726C91.303 25.8226 93.5431 25.2147 94.9496 24.6726C96.9386 23.9059 95.6126 14.3222 94.9496 13.5555C94.2866 12.7888 89.4589 12.55 89.314 13.5555Z" fill="#03BE4E"/>
<path d="M3.01195 94.0211C4.36218 95.1376 6.35786 95.3837 10.0124 95.5642C21.3191 96.1229 34.043 96.03 46.5494 95.9053C54.1388 95.8297 63.1347 95.949 69.5575 95.6014C73.1486 95.4071 76.1058 94.2364 77.1163 93.4558C78.2141 92.6077 78.0093 89.498 78.2141 87.2365C78.5469 83.5615 78.2141 75.9287 77.6885 74.5153C76.9946 72.6491 74.8983 71.8365 70.6904 71.5486C60.7249 71.1706 54.2644 71.2256 44.9241 71.1735C33.7189 71.1109 19.6778 71.0186 8.02556 71.5106C3.91195 71.6843 1.86749 71.971 0.639352 74.2059C-0.403223 76.1032 0.140541 79.0812 0.150777 81.0172C0.150776 85.2441 0.928775 92.028 3.01195 94.0211Z" fill="#FFD600"/>
<path d="M9.16399 21.4247C7.38032 31.7354 7.89225 45.9154 8.1324 53.4199C8.19578 55.4006 9.65679 57.0121 11.6502 57.2311C23.9321 58.5808 56.2605 58.7721 67.4801 57.3569C69.4347 57.1103 70.7013 55.4359 70.6766 53.4892C70.5676 44.8892 68.8976 29.2472 67.5329 20.6573C67.249 18.8703 65.8143 17.5247 63.9891 17.3831C53.4468 16.565 25.7107 16.6328 12.9427 17.9196C11.0191 18.1135 9.48977 19.5415 9.16399 21.4247Z" fill="#FF6B00"/>
<path d="M13.1045 21.9796C11.113 24.1583 8.87034 42.8527 13.3043 42.8527C15.423 42.9453 15.013 35.6187 16.6471 30.5875C18.9475 25.2668 23.0814 24.0942 21.6159 21.6893C20.7366 20.2463 14.2492 20.7273 13.1045 21.9796Z" fill="#FFA361"/>
<path d="M11.7936 80.7762C9.89206 80.468 9.02051 81.932 9.02051 83.0879C9.02051 84.629 9.41667 85.4638 11.3975 85.7849C13.2005 86.0771 14.1706 84.629 14.1706 83.4732C14.1706 82.5091 14.1706 81.1615 11.7936 80.7762Z" fill="#0075FF"/>
<path d="M21.1696 82.4585C19.9018 82.253 19.3208 83.229 19.3208 83.9996C19.3208 85.027 19.5849 85.5836 20.9054 85.7976C22.1075 85.9924 22.7542 85.027 22.7542 84.2565C22.7542 83.6137 22.7542 82.7153 21.1696 82.4585Z" fill="#0075FF"/>
<path d="M28.0363 82.4585C26.7685 82.253 26.1875 83.229 26.1875 83.9996C26.1875 85.027 26.4516 85.5836 27.7722 85.7976C28.9742 85.9924 29.6209 85.027 29.6209 84.2565C29.6209 83.6137 29.6209 82.7153 28.0363 82.4585Z" fill="#0075FF"/>
<path d="M34.903 82.4585C33.6352 82.253 33.0542 83.229 33.0542 83.9996C33.0542 85.027 33.3183 85.5836 34.6388 85.7976C35.8408 85.9924 36.4876 85.027 36.4876 84.2565C36.4876 83.6137 36.4876 82.7153 34.903 82.4585Z" fill="#0075FF"/>
<path fill-rule="evenodd" clip-rule="evenodd" d="M54.2018 80.5895C53.9236 80.6046 53.7205 80.6156 53.6547 80.6156C53.1807 80.6156 52.7964 80.2359 52.7964 79.7676C52.7964 79.2992 53.1807 78.9195 53.6547 78.9195C53.6517 78.9195 53.6522 78.9195 53.6581 78.9192C53.6665 78.9189 53.6858 78.9182 53.7211 78.9164C53.7721 78.914 53.8406 78.9103 53.9269 78.9056C53.9594 78.9039 53.9942 78.902 54.0312 78.9C54.1892 78.8913 54.387 78.8805 54.6154 78.8688C55.1796 78.8398 55.9346 78.8049 56.764 78.7816C58.403 78.7356 59.2566 78.7323 60.6429 78.928C62.5489 79.197 66.6678 79.1088 68.443 78.9241C68.9144 78.8751 69.3368 79.213 69.3865 79.6788C69.4361 80.1446 69.0941 80.5619 68.6227 80.611C66.7737 80.8033 62.4998 80.9035 60.4002 80.6071C59.1752 80.4342 58.4551 80.431 56.8128 80.4771C56.0016 80.4999 55.2612 80.5341 54.7046 80.5627C54.5217 80.5721 54.3509 80.5813 54.2018 80.5895Z" fill="#03BE4E"/>
<path fill-rule="evenodd" clip-rule="evenodd" d="M68.558 84.5472C68.8362 84.5623 69.0392 84.5733 69.105 84.5733C69.5791 84.5733 69.9634 84.1936 69.9634 83.7253C69.9634 83.2569 69.5791 82.8772 69.105 82.8772C69.1081 82.8772 69.1076 82.8772 69.1017 82.8769C69.0933 82.8766 69.0739 82.8759 69.0387 82.8742C68.9877 82.8717 68.9192 82.868 68.8329 82.8633C68.8004 82.8616 68.7656 82.8597 68.7286 82.8577C68.5706 82.849 68.3727 82.8382 68.1444 82.8265C67.5801 82.7975 66.8252 82.7626 65.9957 82.7393C64.3567 82.6933 61.7865 82.69 60.4001 82.8857C58.4941 83.1547 54.3752 83.0665 52.6001 82.8818C52.1286 82.8328 51.7062 83.1707 51.6566 83.6365C51.607 84.1023 51.9489 84.5197 52.4204 84.5687C54.2694 84.761 58.5432 84.8612 60.6429 84.5648C61.8679 84.3919 64.3047 84.3887 65.947 84.4348C66.7581 84.4576 67.4985 84.4918 68.0552 84.5204C68.238 84.5298 68.4088 84.5391 68.558 84.5472Z" fill="#03BE4E"/>
<path fill-rule="evenodd" clip-rule="evenodd" d="M53.0572 88.5049C52.779 88.52 52.576 88.531 52.5102 88.531C52.0362 88.531 51.6519 88.1513 51.6519 87.683C51.6519 87.2146 52.0362 86.8349 52.5102 86.8349C52.5071 86.8349 52.5077 86.8349 52.5136 86.8346C52.522 86.8343 52.5413 86.8336 52.5766 86.8319C52.6275 86.8294 52.6961 86.8257 52.7824 86.821C52.8149 86.8193 52.8497 86.8174 52.8867 86.8154C53.0446 86.8067 53.2425 86.7959 53.4709 86.7842C54.0351 86.7552 54.79 86.7203 55.6195 86.697C57.2585 86.651 59.2565 86.6477 60.6429 86.8434C62.5489 87.1124 65.5233 87.0242 67.2984 86.8395C67.7699 86.7905 68.1923 87.1284 68.2419 87.5942C68.2916 88.06 67.9496 88.4774 67.4782 88.5264C65.6292 88.7187 62.4998 88.8189 60.4001 88.5225C59.1751 88.3496 57.3105 88.3464 55.6683 88.3925C54.8571 88.4153 54.1167 88.4495 53.56 88.4781C53.3772 88.4875 53.2064 88.4968 53.0572 88.5049Z" fill="#03BE4E"/>
<path d="M57.598 44.6197C60.2967 42.4294 50.1589 26.2446 48.1561 25.1138C47.0116 24.2658 43.5783 27.3091 39.6858 27.3091C35.567 27.3091 32.9919 24.2658 31.8474 24.8311C27.2695 27.3754 21.5473 42.9236 22.9779 44.6197C26.1251 49.4255 49.5867 51.1217 57.598 44.6197Z" fill="#9C4200"/>
<path fill-rule="evenodd" clip-rule="evenodd" d="M14.9896 49.9597C14.0191 49.9549 13.0582 50.0056 12.4748 50.0535C12.1783 50.0779 11.914 49.9002 11.8843 49.6566C11.8547 49.413 12.071 49.1957 12.3675 49.1714C12.9831 49.1208 13.9824 49.0681 14.9961 49.0731C15.9908 49.0781 17.0711 49.1381 17.8071 49.3397C18.0898 49.4171 18.2426 49.6681 18.1483 49.9004C18.0541 50.1326 17.7486 50.2581 17.4659 50.1807C16.9071 50.0277 15.9791 49.9646 14.9896 49.9597Z" fill="#9C4200"/>
<path fill-rule="evenodd" clip-rule="evenodd" d="M15.0821 50.9198C14.319 50.8918 13.4197 50.8588 12.3798 50.9296C12.0827 50.9498 11.8604 51.1791 11.8832 51.4419C11.9061 51.7046 12.1654 51.9012 12.4625 51.881C13.4341 51.8149 14.2667 51.8452 15.0302 51.873C15.1552 51.8776 15.2784 51.882 15.4 51.886C16.2435 51.9136 17.0553 51.9205 17.8071 51.6989C18.0898 51.6155 18.2426 51.3453 18.1483 51.0954C18.0541 50.8454 17.7486 50.7103 17.4659 50.7936C16.9229 50.9537 16.2959 50.9605 15.4399 50.9325C15.3242 50.9287 15.2049 50.9243 15.0821 50.9198Z" fill="#9C4200"/>
<path fill-rule="evenodd" clip-rule="evenodd" d="M14.9758 52.616C15.7389 52.588 16.6382 52.555 17.6781 52.6257C17.9752 52.6459 18.1975 52.8753 18.1747 53.138C18.1518 53.4007 17.8924 53.5973 17.5953 53.5771C16.6238 53.511 15.7912 53.5414 15.0277 53.5692C14.9026 53.5737 14.7795 53.5782 14.6579 53.5822C13.8144 53.6098 13.0026 53.6166 12.2507 53.395C11.9681 53.3117 11.8153 53.0415 11.9095 52.7915C12.0038 52.5416 12.3093 52.4065 12.592 52.4898C13.135 52.6498 13.7619 52.6567 14.6179 52.6286C14.7337 52.6248 14.853 52.6205 14.9758 52.616Z" fill="#9C4200"/>
</svg>
