<svg width="269" height="66" viewBox="0 0 269 66" fill="none" xmlns="http://www.w3.org/2000/svg">
<g filter="url(#filter0_d)">
<rect x="6" y="3" width="257" height="54" rx="27" fill="#E50046"/>
</g>
<path d="M43.67 36.18C42.614 36.18 41.72 36.03 40.988 35.73C40.268 35.418 39.716 35.01 39.332 34.506C38.96 33.99 38.744 33.432 38.684 32.832V32.796C38.684 32.7 38.72 32.622 38.792 32.562C38.864 32.502 38.954 32.472 39.062 32.472H40.682C40.934 32.472 41.108 32.592 41.204 32.832C41.348 33.228 41.624 33.546 42.032 33.786C42.44 34.014 42.968 34.128 43.616 34.128C44.372 34.128 44.99 33.966 45.47 33.642C45.962 33.318 46.208 32.88 46.208 32.328C46.208 31.752 45.992 31.308 45.56 30.996C45.14 30.672 44.546 30.51 43.778 30.51H42.482C42.362 30.51 42.26 30.468 42.176 30.384C42.092 30.3 42.05 30.192 42.05 30.06V29.016C42.05 28.884 42.092 28.776 42.176 28.692C42.26 28.608 42.362 28.566 42.482 28.566H43.724C44.372 28.566 44.882 28.428 45.254 28.152C45.638 27.876 45.83 27.462 45.83 26.91C45.83 26.418 45.626 26.028 45.218 25.74C44.822 25.44 44.306 25.29 43.67 25.29C43.022 25.29 42.494 25.404 42.086 25.632C41.69 25.848 41.444 26.172 41.348 26.604C41.3 26.724 41.24 26.814 41.168 26.874C41.108 26.922 41.012 26.946 40.88 26.946H39.206C39.098 26.946 39.002 26.91 38.918 26.838C38.846 26.766 38.816 26.676 38.828 26.568C38.912 25.596 39.356 24.798 40.16 24.174C40.976 23.538 42.158 23.22 43.706 23.22C44.666 23.22 45.494 23.382 46.19 23.706C46.898 24.018 47.438 24.444 47.81 24.984C48.182 25.512 48.368 26.088 48.368 26.712C48.368 27.264 48.254 27.774 48.026 28.242C47.81 28.71 47.45 29.088 46.946 29.376C47.57 29.688 48.032 30.114 48.332 30.654C48.632 31.182 48.782 31.764 48.782 32.4C48.782 33.144 48.572 33.804 48.152 34.38C47.732 34.944 47.138 35.388 46.37 35.712C45.602 36.024 44.702 36.18 43.67 36.18ZM53.5427 36.18C52.9307 36.18 52.3667 36.06 51.8507 35.82C51.3467 35.568 50.9447 35.232 50.6447 34.812C50.3567 34.392 50.2127 33.93 50.2127 33.426C50.2127 32.61 50.5427 31.95 51.2027 31.446C51.8627 30.942 52.7687 30.6 53.9207 30.42L56.3867 30.06V29.682C56.3867 29.154 56.2547 28.758 55.9907 28.494C55.7267 28.23 55.3007 28.098 54.7127 28.098C54.3167 28.098 53.9927 28.176 53.7407 28.332C53.5007 28.476 53.3087 28.62 53.1647 28.764C53.0207 28.92 52.9247 29.022 52.8767 29.07C52.8287 29.214 52.7387 29.286 52.6067 29.286H51.2207C51.1127 29.286 51.0167 29.25 50.9327 29.178C50.8607 29.106 50.8247 29.01 50.8247 28.89C50.8367 28.59 50.9807 28.248 51.2567 27.864C51.5447 27.48 51.9827 27.15 52.5707 26.874C53.1587 26.598 53.8787 26.46 54.7307 26.46C56.1467 26.46 57.1787 26.778 57.8267 27.414C58.4747 28.05 58.7987 28.884 58.7987 29.916V35.568C58.7987 35.688 58.7567 35.79 58.6727 35.874C58.6007 35.958 58.4987 36 58.3667 36H56.9087C56.7887 36 56.6867 35.958 56.6027 35.874C56.5187 35.79 56.4767 35.688 56.4767 35.568V34.866C56.2127 35.25 55.8347 35.568 55.3427 35.82C54.8627 36.06 54.2627 36.18 53.5427 36.18ZM54.1547 34.47C54.8147 34.47 55.3547 34.254 55.7747 33.822C56.1947 33.39 56.4047 32.76 56.4047 31.932V31.554L54.6047 31.842C53.9087 31.95 53.3807 32.124 53.0207 32.364C52.6727 32.604 52.4987 32.898 52.4987 33.246C52.4987 33.63 52.6607 33.93 52.9847 34.146C53.3087 34.362 53.6987 34.47 54.1547 34.47ZM61.5399 36C61.4199 36 61.3179 35.958 61.2339 35.874C61.1499 35.79 61.1079 35.688 61.1079 35.568V27.072C61.1079 26.952 61.1499 26.85 61.2339 26.766C61.3179 26.682 61.4199 26.64 61.5399 26.64H69.2439C69.3759 26.64 69.4779 26.682 69.5499 26.766C69.6339 26.838 69.6759 26.94 69.6759 27.072V35.568C69.6759 35.688 69.6339 35.79 69.5499 35.874C69.4779 35.958 69.3759 36 69.2439 36H67.7499C67.6299 36 67.5279 35.958 67.4439 35.874C67.3599 35.79 67.3179 35.688 67.3179 35.568V28.548H63.4659V35.568C63.4659 35.688 63.4239 35.79 63.3399 35.874C63.2679 35.958 63.1659 36 63.0339 36H61.5399ZM80.6438 26.64C80.7518 26.64 80.8478 26.682 80.9318 26.766C81.0158 26.838 81.0578 26.928 81.0578 27.036V35.568C81.0578 35.688 81.0158 35.79 80.9318 35.874C80.8478 35.958 80.7458 36 80.6258 36H79.1318C79.0118 36 78.9098 35.958 78.8258 35.874C78.7418 35.79 78.6998 35.688 78.6998 35.568V29.79L74.3798 35.712C74.2718 35.904 74.1098 36 73.8938 36H72.5258C72.4178 36 72.3218 35.964 72.2378 35.892C72.1538 35.808 72.1118 35.706 72.1118 35.586V27.072C72.1118 26.952 72.1538 26.85 72.2378 26.766C72.3218 26.682 72.4238 26.64 72.5438 26.64H74.0378C74.1698 26.64 74.2718 26.682 74.3438 26.766C74.4278 26.838 74.4698 26.94 74.4698 27.072V32.868L78.7898 26.928C78.9218 26.736 79.0838 26.64 79.2758 26.64H80.6438ZM87.3767 36.18C86.0567 36.18 85.0007 35.814 84.2087 35.082C83.4287 34.35 83.0147 33.336 82.9667 32.04L82.9487 31.32L82.9667 30.6C83.0147 29.304 83.4287 28.29 84.2087 27.558C85.0007 26.826 86.0567 26.46 87.3767 26.46C88.3127 26.46 89.1047 26.628 89.7527 26.964C90.4127 27.3 90.8987 27.714 91.2107 28.206C91.5347 28.686 91.7087 29.142 91.7327 29.574C91.7447 29.694 91.7027 29.796 91.6067 29.88C91.5227 29.964 91.4207 30.006 91.3007 30.006H89.7167C89.5967 30.006 89.5007 29.982 89.4287 29.934C89.3687 29.874 89.3087 29.778 89.2487 29.646C89.0687 29.178 88.8287 28.842 88.5287 28.638C88.2407 28.434 87.8687 28.332 87.4127 28.332C86.8007 28.332 86.3207 28.53 85.9727 28.926C85.6247 29.31 85.4387 29.898 85.4147 30.69L85.3967 31.356L85.4147 31.95C85.4627 33.522 86.1287 34.308 87.4127 34.308C87.8807 34.308 88.2587 34.206 88.5467 34.002C88.8347 33.798 89.0687 33.462 89.2487 32.994C89.3087 32.862 89.3687 32.772 89.4287 32.724C89.5007 32.664 89.5967 32.634 89.7167 32.634H91.3007C91.4207 32.634 91.5227 32.676 91.6067 32.76C91.7027 32.844 91.7447 32.946 91.7327 33.066C91.7087 33.486 91.5407 33.936 91.2287 34.416C90.9167 34.896 90.4367 35.31 89.7887 35.658C89.1407 36.006 88.3367 36.18 87.3767 36.18ZM96.3279 36.18C95.7159 36.18 95.1519 36.06 94.6359 35.82C94.1319 35.568 93.7299 35.232 93.4299 34.812C93.1419 34.392 92.9979 33.93 92.9979 33.426C92.9979 32.61 93.3279 31.95 93.9879 31.446C94.6479 30.942 95.5539 30.6 96.7059 30.42L99.1719 30.06V29.682C99.1719 29.154 99.0399 28.758 98.7759 28.494C98.5119 28.23 98.0859 28.098 97.4979 28.098C97.1019 28.098 96.7779 28.176 96.5259 28.332C96.2859 28.476 96.0939 28.62 95.9499 28.764C95.8059 28.92 95.7099 29.022 95.6619 29.07C95.6139 29.214 95.5239 29.286 95.3919 29.286H94.0059C93.8979 29.286 93.8019 29.25 93.7179 29.178C93.6459 29.106 93.6099 29.01 93.6099 28.89C93.6219 28.59 93.7659 28.248 94.0419 27.864C94.3299 27.48 94.7679 27.15 95.3559 26.874C95.9439 26.598 96.6639 26.46 97.5159 26.46C98.9319 26.46 99.9639 26.778 100.612 27.414C101.26 28.05 101.584 28.884 101.584 29.916V35.568C101.584 35.688 101.542 35.79 101.458 35.874C101.386 35.958 101.284 36 101.152 36H99.6939C99.5739 36 99.4719 35.958 99.3879 35.874C99.3039 35.79 99.2619 35.688 99.2619 35.568V34.866C98.9979 35.25 98.6199 35.568 98.1279 35.82C97.6479 36.06 97.0479 36.18 96.3279 36.18ZM96.9399 34.47C97.5999 34.47 98.1399 34.254 98.5599 33.822C98.9799 33.39 99.1899 32.76 99.1899 31.932V31.554L97.3899 31.842C96.6939 31.95 96.1659 32.124 95.8059 32.364C95.4579 32.604 95.2839 32.898 95.2839 33.246C95.2839 33.63 95.4459 33.93 95.7699 34.146C96.0939 34.362 96.4839 34.47 96.9399 34.47ZM106.755 36C106.635 36 106.533 35.958 106.449 35.874C106.365 35.79 106.323 35.688 106.323 35.568V28.548H103.389C103.269 28.548 103.167 28.506 103.083 28.422C102.999 28.338 102.957 28.23 102.957 28.098V27.072C102.957 26.94 102.999 26.838 103.083 26.766C103.167 26.682 103.269 26.64 103.389 26.64H111.561C111.693 26.64 111.801 26.682 111.885 26.766C111.969 26.85 112.011 26.952 112.011 27.072V28.098C112.011 28.218 111.969 28.326 111.885 28.422C111.801 28.506 111.693 28.548 111.561 28.548H108.645V35.568C108.645 35.688 108.603 35.79 108.519 35.874C108.447 35.958 108.345 36 108.213 36H106.755ZM113.87 36C113.75 36 113.648 35.958 113.564 35.874C113.48 35.79 113.438 35.688 113.438 35.568V27.072C113.438 26.952 113.48 26.85 113.564 26.766C113.648 26.682 113.75 26.64 113.87 26.64H115.382C115.502 26.64 115.604 26.682 115.688 26.766C115.772 26.85 115.814 26.952 115.814 27.072V29.61H117.668C118.868 29.61 119.78 29.898 120.404 30.474C121.028 31.038 121.34 31.83 121.34 32.85C121.34 33.894 121.016 34.68 120.368 35.208C119.72 35.736 118.772 36 117.524 36H113.87ZM117.47 34.29C118.07 34.29 118.508 34.182 118.784 33.966C119.06 33.738 119.198 33.366 119.198 32.85C119.198 32.334 119.06 31.95 118.784 31.698C118.508 31.446 118.07 31.32 117.47 31.32H115.778V34.29H117.47ZM127.033 36.18C125.713 36.18 124.657 35.814 123.865 35.082C123.085 34.35 122.671 33.336 122.623 32.04L122.605 31.32L122.623 30.6C122.671 29.304 123.085 28.29 123.865 27.558C124.657 26.826 125.713 26.46 127.033 26.46C127.969 26.46 128.761 26.628 129.409 26.964C130.069 27.3 130.555 27.714 130.867 28.206C131.191 28.686 131.365 29.142 131.389 29.574C131.401 29.694 131.359 29.796 131.263 29.88C131.179 29.964 131.077 30.006 130.957 30.006H129.373C129.253 30.006 129.157 29.982 129.085 29.934C129.025 29.874 128.965 29.778 128.905 29.646C128.725 29.178 128.485 28.842 128.185 28.638C127.897 28.434 127.525 28.332 127.069 28.332C126.457 28.332 125.977 28.53 125.629 28.926C125.281 29.31 125.095 29.898 125.071 30.69L125.053 31.356L125.071 31.95C125.119 33.522 125.785 34.308 127.069 34.308C127.537 34.308 127.915 34.206 128.203 34.002C128.491 33.798 128.725 33.462 128.905 32.994C128.965 32.862 129.025 32.772 129.085 32.724C129.157 32.664 129.253 32.634 129.373 32.634H130.957C131.077 32.634 131.179 32.676 131.263 32.76C131.359 32.844 131.401 32.946 131.389 33.066C131.365 33.486 131.197 33.936 130.885 34.416C130.573 34.896 130.093 35.31 129.445 35.658C128.797 36.006 127.993 36.18 127.033 36.18ZM140.736 26.64C140.868 26.64 140.97 26.682 141.042 26.766C141.126 26.838 141.168 26.94 141.168 27.072V35.568C141.168 35.688 141.126 35.79 141.042 35.874C140.97 35.958 140.868 36 140.736 36H139.206C139.086 36 138.984 35.958 138.9 35.874C138.816 35.79 138.774 35.688 138.774 35.568V32.814H137.172L135.39 35.73C135.282 35.91 135.132 36 134.94 36H133.446C133.338 36 133.248 35.964 133.176 35.892C133.104 35.82 133.068 35.736 133.068 35.64C133.068 35.532 133.104 35.436 133.176 35.352L135.066 32.382C134.502 32.142 134.076 31.794 133.788 31.338C133.5 30.87 133.356 30.318 133.356 29.682C133.356 28.674 133.668 27.918 134.292 27.414C134.928 26.898 135.852 26.64 137.064 26.64H140.736ZM138.81 28.35H137.118C136.554 28.35 136.14 28.452 135.876 28.656C135.624 28.86 135.498 29.202 135.498 29.682C135.498 30.126 135.624 30.474 135.876 30.726C136.128 30.978 136.506 31.104 137.01 31.104H138.81V28.35ZM148.147 36C148.027 36 147.925 35.958 147.841 35.874C147.757 35.79 147.715 35.688 147.715 35.568V27.072C147.715 26.952 147.757 26.85 147.841 26.766C147.925 26.682 148.027 26.64 148.147 26.64H149.641C149.773 26.64 149.875 26.682 149.947 26.766C150.031 26.838 150.073 26.94 150.073 27.072V30.294H154.141V27.072C154.141 26.94 154.183 26.838 154.267 26.766C154.351 26.682 154.453 26.64 154.573 26.64H156.067C156.199 26.64 156.301 26.682 156.373 26.766C156.457 26.838 156.499 26.94 156.499 27.072V35.568C156.499 35.688 156.457 35.79 156.373 35.874C156.301 35.958 156.199 36 156.067 36H154.573C154.453 36 154.351 35.958 154.267 35.874C154.183 35.79 154.141 35.688 154.141 35.568V32.184H150.073V35.568C150.073 35.688 150.031 35.79 149.947 35.874C149.875 35.958 149.773 36 149.641 36H148.147ZM161.648 36.18C161.036 36.18 160.472 36.06 159.956 35.82C159.452 35.568 159.05 35.232 158.75 34.812C158.462 34.392 158.318 33.93 158.318 33.426C158.318 32.61 158.648 31.95 159.308 31.446C159.968 30.942 160.874 30.6 162.026 30.42L164.492 30.06V29.682C164.492 29.154 164.36 28.758 164.096 28.494C163.832 28.23 163.406 28.098 162.818 28.098C162.422 28.098 162.098 28.176 161.846 28.332C161.606 28.476 161.414 28.62 161.27 28.764C161.126 28.92 161.03 29.022 160.982 29.07C160.934 29.214 160.844 29.286 160.712 29.286H159.326C159.218 29.286 159.122 29.25 159.038 29.178C158.966 29.106 158.93 29.01 158.93 28.89C158.942 28.59 159.086 28.248 159.362 27.864C159.65 27.48 160.088 27.15 160.676 26.874C161.264 26.598 161.984 26.46 162.836 26.46C164.252 26.46 165.284 26.778 165.932 27.414C166.58 28.05 166.904 28.884 166.904 29.916V35.568C166.904 35.688 166.862 35.79 166.778 35.874C166.706 35.958 166.604 36 166.472 36H165.014C164.894 36 164.792 35.958 164.708 35.874C164.624 35.79 164.582 35.688 164.582 35.568V34.866C164.318 35.25 163.94 35.568 163.448 35.82C162.968 36.06 162.368 36.18 161.648 36.18ZM162.26 34.47C162.92 34.47 163.46 34.254 163.88 33.822C164.3 33.39 164.51 32.76 164.51 31.932V31.554L162.71 31.842C162.014 31.95 161.486 32.124 161.126 32.364C160.778 32.604 160.604 32.898 160.604 33.246C160.604 33.63 160.766 33.93 161.09 34.146C161.414 34.362 161.804 34.47 162.26 34.47ZM173.759 36C173.639 36 173.537 35.958 173.453 35.874C173.369 35.79 173.327 35.688 173.327 35.568V27.072C173.327 26.952 173.369 26.85 173.453 26.766C173.537 26.682 173.639 26.64 173.759 26.64H181.463C181.595 26.64 181.697 26.682 181.769 26.766C181.853 26.838 181.895 26.94 181.895 27.072V35.568C181.895 35.688 181.853 35.79 181.769 35.874C181.697 35.958 181.595 36 181.463 36H179.969C179.849 36 179.747 35.958 179.663 35.874C179.579 35.79 179.537 35.688 179.537 35.568V28.548H175.685V35.568C175.685 35.688 175.643 35.79 175.559 35.874C175.487 35.958 175.385 36 175.253 36H173.759ZM184.781 39.42C184.661 39.42 184.559 39.378 184.475 39.294C184.391 39.222 184.349 39.12 184.349 38.988V27.072C184.349 26.94 184.391 26.838 184.475 26.766C184.559 26.682 184.661 26.64 184.781 26.64H186.203C186.335 26.64 186.437 26.682 186.509 26.766C186.593 26.838 186.635 26.94 186.635 27.072V27.792C187.307 26.904 188.267 26.46 189.515 26.46C190.727 26.46 191.657 26.844 192.305 27.612C192.953 28.368 193.301 29.394 193.349 30.69C193.361 30.834 193.367 31.044 193.367 31.32C193.367 31.608 193.361 31.824 193.349 31.968C193.301 33.228 192.953 34.248 192.305 35.028C191.657 35.796 190.727 36.18 189.515 36.18C188.303 36.18 187.379 35.754 186.743 34.902V38.988C186.743 39.12 186.701 39.222 186.617 39.294C186.545 39.378 186.443 39.42 186.311 39.42H184.781ZM188.849 34.254C190.145 34.254 190.835 33.456 190.919 31.86C190.931 31.74 190.937 31.56 190.937 31.32C190.937 31.08 190.931 30.9 190.919 30.78C190.835 29.184 190.145 28.386 188.849 28.386C188.153 28.386 187.637 28.608 187.301 29.052C186.965 29.496 186.779 30.042 186.743 30.69L186.725 31.374L186.743 32.076C186.767 32.676 186.953 33.192 187.301 33.624C187.661 34.044 188.177 34.254 188.849 34.254ZM203.919 26.64C204.027 26.64 204.123 26.682 204.207 26.766C204.291 26.838 204.333 26.928 204.333 27.036V35.568C204.333 35.688 204.291 35.79 204.207 35.874C204.123 35.958 204.021 36 203.901 36H202.407C202.287 36 202.185 35.958 202.101 35.874C202.017 35.79 201.975 35.688 201.975 35.568V29.79L197.655 35.712C197.547 35.904 197.385 36 197.169 36H195.801C195.693 36 195.597 35.964 195.513 35.892C195.429 35.808 195.387 35.706 195.387 35.586V27.072C195.387 26.952 195.429 26.85 195.513 26.766C195.597 26.682 195.699 26.64 195.819 26.64H197.313C197.445 26.64 197.547 26.682 197.619 26.766C197.703 26.838 197.745 26.94 197.745 27.072V32.868L202.065 26.928C202.197 26.736 202.359 26.64 202.551 26.64H203.919ZM210.634 36.18C209.302 36.18 208.24 35.796 207.448 35.028C206.668 34.248 206.254 33.156 206.206 31.752L206.188 31.302L206.206 30.852C206.266 29.484 206.686 28.41 207.466 27.63C208.258 26.85 209.314 26.46 210.634 26.46C212.05 26.46 213.142 26.892 213.91 27.756C214.69 28.62 215.08 29.772 215.08 31.212V31.59C215.08 31.71 215.038 31.812 214.954 31.896C214.87 31.98 214.762 32.022 214.63 32.022H208.654V32.166C208.678 32.826 208.858 33.384 209.194 33.84C209.542 34.284 210.016 34.506 210.616 34.506C211.324 34.506 211.894 34.23 212.326 33.678C212.434 33.546 212.518 33.462 212.578 33.426C212.65 33.39 212.752 33.372 212.884 33.372H214.432C214.54 33.372 214.63 33.408 214.702 33.48C214.786 33.54 214.828 33.618 214.828 33.714C214.828 34.002 214.654 34.344 214.306 34.74C213.97 35.124 213.484 35.46 212.848 35.748C212.212 36.036 211.474 36.18 210.634 36.18ZM212.632 30.51V30.456C212.632 29.748 212.452 29.178 212.092 28.746C211.744 28.314 211.258 28.098 210.634 28.098C210.01 28.098 209.524 28.314 209.176 28.746C208.828 29.178 208.654 29.748 208.654 30.456V30.51H212.632ZM226.837 26.64C226.933 26.64 227.017 26.676 227.089 26.748C227.173 26.82 227.215 26.898 227.215 26.982V35.622C227.215 35.73 227.179 35.82 227.107 35.892C227.035 35.964 226.939 36 226.819 36H225.271C225.151 36 225.055 35.964 224.983 35.892C224.923 35.82 224.893 35.73 224.893 35.622V30.582L222.967 34.128C222.883 34.272 222.799 34.38 222.715 34.452C222.643 34.524 222.535 34.56 222.391 34.56H221.797C221.665 34.56 221.557 34.524 221.473 34.452C221.389 34.38 221.311 34.272 221.239 34.128L219.313 30.654V35.622C219.313 35.73 219.277 35.82 219.205 35.892C219.133 35.964 219.043 36 218.935 36H217.387C217.267 36 217.171 35.964 217.099 35.892C217.027 35.82 216.991 35.73 216.991 35.622V26.982C216.991 26.898 217.027 26.82 217.099 26.748C217.171 26.676 217.255 26.64 217.351 26.64H218.863C219.067 26.64 219.223 26.742 219.331 26.946L222.103 31.986L224.875 26.946C224.983 26.742 225.139 26.64 225.343 26.64H226.837Z" fill="white"/>
<defs>
<filter id="filter0_d" x="0" y="0" width="269" height="66" filterUnits="userSpaceOnUse" color-interpolation-filters="sRGB">
<feFlood flood-opacity="0" result="BackgroundImageFix"/>
<feColorMatrix in="SourceAlpha" type="matrix" values="0 0 0 0 0 0 0 0 0 0 0 0 0 0 0 0 0 0 127 0"/>
<feOffset dy="3"/>
<feGaussianBlur stdDeviation="3"/>
<feColorMatrix type="matrix" values="0 0 0 0 0.898039 0 0 0 0 0 0 0 0 0 0.27451 0 0 0 0.24 0"/>
<feBlend mode="normal" in2="BackgroundImageFix" result="effect1_dropShadow"/>
<feBlend mode="normal" in="SourceGraphic" in2="effect1_dropShadow" result="shape"/>
</filter>
</defs>
</svg>
