<svg width="96" height="96" viewBox="0 0 96 96" fill="none" xmlns="http://www.w3.org/2000/svg">
<path d="M72.601 95.9833C83.1454 95.6014 90.0668 90.1457 93.5602 85.2746C96.7706 80.9671 96.5461 45.8836 94.4304 42.4254C93.1782 40.7026 81.5424 53.6503 72.601 55.6184C66.5332 56.954 61.3845 53.6408 61.3845 48.1742C59.4941 58.8715 59.3392 68.9553 59.3392 76.9754C59.3392 87.2077 59.8293 96.4459 72.601 95.9833Z" fill="#DFDFDF"/>
<path d="M40.5055 34.059C21.7715 34.4409 4.65888 43.4263 3.26763 46.3857C0.167828 52.3386 -1.44832 87.9785 1.72166 89.2349C5.65786 90.4411 24.8056 78.7383 40.5055 76.3458C51.307 74.6997 59.1736 80.0853 59.7263 85.1807C63.0849 74.4833 64.0675 62.7051 64.0675 54.685C64.0675 44.4527 61.695 33.6271 40.5055 34.059Z" fill="#ECECEC"/>
<path fill-rule="evenodd" clip-rule="evenodd" d="M40.1748 36.688L40.6323 36.656L41.8786 42.1592L42.4255 40.3786L42.5584 40.3499C43.3694 40.175 44.5825 40.1778 45.7484 40.328C46.8055 40.4641 47.8664 40.7266 48.5732 41.1173L48.5839 41.1014C49.1936 40.1895 49.8297 39.2381 49.9294 39.096L50.4105 38.4108L50.0535 43.4051L53.5529 39.0833L53.96 39.2784L52.3635 46.4971L54.3239 42.9899L54.4721 43.0014C55.1868 43.0568 56.6596 43.4671 58.0078 44.9464L58.1164 45.0655L58.042 45.2085C57.7428 45.7833 57.407 46.431 57.146 46.935C57.1227 46.9802 57.0999 47.0242 57.0778 47.0669L60.6357 44.9044L60.943 45.2394L57.4307 49.9773L60.1077 48.3432L60.2257 48.4078C60.5347 48.5772 60.916 48.9106 61.3098 49.3097C61.7085 49.7138 62.1361 50.202 62.5393 50.6979C62.9426 51.194 63.3236 51.7005 63.6286 52.1422C63.9299 52.5786 63.9391 52.6271 64.0449 52.8812L64.0572 53.6827C63.9718 53.4777 63.5474 52.8403 63.2464 52.4045C62.9491 51.974 62.5755 51.4771 62.1789 50.9892C61.7821 50.5011 61.3644 50.0247 60.9791 49.6342C60.6454 49.2959 60.3474 49.0341 60.1147 48.8813L56.6577 50.9916L56.35 50.6568L59.8659 45.914L55.9083 48.3194L56.2865 47.5874L56.4123 47.3442C56.4914 47.1911 56.6033 46.9749 56.7338 46.7228C56.9731 46.2605 57.2755 45.6773 57.5549 45.1401C56.4176 43.9495 55.2218 43.5658 54.582 43.4784L51.9992 48.099L51.57 47.9366L53.2946 40.1388L49.4856 44.8429L49.8262 40.0781C49.5788 40.4473 49.2677 40.9126 48.9621 41.3696L48.7085 41.7489L48.5159 41.6225C47.9112 41.2259 46.8334 40.9341 45.6889 40.7867C44.6152 40.6485 43.5284 40.643 42.7886 40.776L41.8108 43.9599L40.5132 38.2302L39.9108 45.5352L39.452 45.5611C39.2119 44.3502 38.7068 41.8128 38.4977 40.7979C36.1446 40.69 34.1133 41.0373 33.2593 41.2556L32.6555 44.4808L32.2009 44.4882L31.3081 40.4527V42.085L31.1022 42.1083C29.2176 42.321 27.0412 42.9868 26.1906 43.2929L25.9679 43.3731L25.0277 40.598L25.5236 48.302L25.0837 48.4183L23.2402 44.6546L23.1716 46.2832L22.7201 46.3477L21.6266 43.1282C21.6267 43.4374 21.6268 43.8048 21.6268 44.2378V44.4777L21.3864 44.4689C20.5108 44.4371 19.2024 44.8155 17.9202 45.389C16.6753 45.9458 15.5012 46.6655 14.8238 47.311L13.9526 52.4142L13.4956 52.4165L12.1463 44.9725L11.7332 49.6686L4.72827 52.6303L4.79273 52.1631L11.2951 49.3537L11.8355 43.2118L12.2949 43.1909L13.717 51.037L14.3916 47.0856L14.4447 47.0333C15.1686 46.3199 16.4281 45.5493 17.7303 44.9669C18.9258 44.4322 20.1989 44.0374 21.1628 44.0065C21.1628 43.0821 21.1623 42.4859 21.1619 42.1315C21.1616 41.943 21.1614 41.823 21.1612 41.7583L21.1609 41.7574V41.7193L21.161 41.6996L21.161 41.6965L21.161 41.6943L21.161 41.6922L21.1612 41.6869L21.1618 41.6783C21.1624 41.672 21.1684 41.6395 21.1767 41.614C21.3579 41.4835 21.5608 41.594 21.6108 41.6457L21.6126 41.6451L21.614 41.6491C21.6186 41.6543 21.6214 41.6588 21.6222 41.6622C21.6229 41.6675 21.6237 41.6745 21.6241 41.6789L22.7603 45.0237L22.815 43.723L23.2552 43.6312L24.9854 47.1636L24.4517 38.8734L24.903 38.7846L26.2565 42.7796C27.202 42.4568 29.1105 41.8953 30.8441 41.6734V38.3304L31.3026 38.2806L32.4085 43.2791L32.8564 40.8865L32.9949 40.8475C33.8139 40.6164 36.0797 40.1998 38.7015 40.3451L38.8794 40.3549L38.9157 40.5288C39.0372 41.1104 39.3289 42.5661 39.5844 43.848L40.1748 36.688Z" fill="#0075FF"/>
<path fill-rule="evenodd" clip-rule="evenodd" d="M40.0788 48.7676L40.538 48.7407L41.6127 54.3621L42.4518 52.4222L42.5965 52.4154C43.2161 52.3864 44.2594 52.3952 45.3897 52.5145C46.5172 52.6335 47.7488 52.8642 48.735 53.2873L48.8814 53.35L48.8752 53.5088C48.8521 54.0959 48.7846 55.2513 48.723 56.2573C48.697 56.6834 48.6719 57.0833 48.6517 57.4029L50.287 55.3958V58.728L53.1294 52.0041L53.5745 52.1113L53.3654 54.8813C53.8131 54.952 54.5976 55.14 55.4308 55.4536C56.4319 55.8304 57.5471 56.4044 58.2346 57.2125L58.351 57.3494L58.247 57.4958C57.8822 58.0095 57.597 58.4123 57.3871 58.7095L61.1138 57.3691L61.3603 57.7464L57.3407 61.9435L60.3293 60.9893L60.4168 61.0372C60.7194 61.2031 61.0855 61.496 61.4632 61.8442C61.844 62.1953 62.2481 62.6134 62.628 63.0399C63.008 63.4663 63.1393 63.5954 63.4275 63.9857C63.7121 64.3712 63.6598 64.3118 63.6598 64.3118L63.5986 64.9883C63.4672 64.8146 63.4244 64.7293 63.2805 64.5682C63.0021 64.1912 62.6534 63.7648 62.2812 63.3471C61.9089 62.9292 61.5155 62.5225 61.1482 62.1838C60.8177 61.8791 60.5173 61.638 60.2776 61.4916L56.6144 62.6612L56.3759 62.2811L60.344 58.1378L56.1698 59.6391L56.5857 59.0431C56.6935 58.8886 57.0742 58.3473 57.7614 57.3791C57.1428 56.728 56.185 56.232 55.2669 55.8864C54.2898 55.5186 53.4013 55.3371 53.0995 55.3137L52.8688 55.2958L53.0052 53.4888L50.2687 59.9621L49.823 59.8723V56.6989L48.0955 58.8192L48.1425 58.0956L48.1425 58.095L48.1522 57.9456C48.1584 57.8492 48.1673 57.7102 48.1781 57.5398C48.1998 57.1989 48.2292 56.7323 48.26 56.2291C48.3163 55.3078 48.3774 54.267 48.4048 53.6515C47.505 53.2928 46.3918 53.0854 45.3408 52.9745C44.3193 52.8667 43.3716 52.8514 42.7626 52.8717L41.44 55.9294L40.4149 50.5675L39.9109 57.6032L39.4519 57.6316C39.2119 56.4206 38.7067 53.8831 38.4977 52.8682C36.1501 52.7576 33.8497 53.0267 32.9456 53.2343L33.0107 56.4108L32.5602 56.4932L31.3001 52.9688C31.3049 53.2546 31.308 53.5812 31.308 53.9489V54.1555L31.1021 54.1787C29.5888 54.3495 28.7381 54.685 28.0055 54.9739C27.8303 55.0429 27.6619 55.1093 27.4929 55.1702L27.304 55.2381L26.5482 53.827L26.408 59.8953L25.9506 59.9443L23.7764 50.9746L23.1286 57.7177L22.6784 57.771L21.6918 54.919C21.6907 55.3913 21.6899 55.993 21.6899 56.7345V56.9448L21.4799 56.9648C20.588 57.0495 19.2318 57.479 17.8955 58.0348C16.6063 58.571 15.3674 59.2113 14.6186 59.7405L13.9309 63.763L12.3852 59.5246L11.7048 61.7513L4.74878 64.7564L4.79268 64.2335L11.3235 61.4119L12.3463 58.0645L13.7681 61.9628L14.193 59.4769L14.2689 59.4215C15.0507 58.8512 16.3687 58.1686 17.7169 57.6079C18.9676 57.0877 20.2736 56.66 21.2259 56.5289C21.2262 55.5297 21.2279 54.801 21.2297 54.315C21.2306 54.0555 21.2316 53.8652 21.2323 53.7397L21.2334 53.554L21.2334 53.5534L21.6847 53.4796L22.7687 56.6131L23.4463 49.5589L23.9027 49.5266L25.985 58.1171L26.125 52.0552L27.5231 54.6652C27.6215 54.6276 27.7218 54.588 27.8256 54.547C28.5294 54.2691 29.3907 53.929 30.8437 53.7438C30.8414 53.0226 30.8272 52.476 30.8129 52.1025C30.8052 51.8984 30.7974 51.746 30.7916 51.645C30.7887 51.5945 30.7863 51.5568 30.7847 51.5319L30.7828 51.5043L30.7823 51.4976L30.7822 51.4961L31.2319 51.4005L32.5177 54.9965L32.4744 52.8815L32.6468 52.8328C33.474 52.5994 36.0893 52.2708 38.7014 52.4155L38.8793 52.4253L38.9156 52.5993C39.0351 53.1709 39.3189 54.587 39.5712 55.8525L40.0788 48.7676Z" fill="#0075FF"/>
<path d="M40.5382 61.5974L40.0789 61.6242L39.5713 68.7092C39.3191 67.4437 39.0352 66.0276 38.9158 65.4559L38.8794 65.282L38.7015 65.2722C36.0798 65.127 33.8139 65.5435 32.995 65.7746L32.8565 65.8137L32.4086 68.2062L31.3027 63.2077L30.8442 63.2575V66.6005C29.115 66.8218 27.2119 67.381 26.2639 67.7042L24.7836 62.8185L24.3302 62.9016L24.9771 72.0735L23.2553 68.5584L22.8151 68.6502L22.7548 70.0823L21.6744 67.2971L21.5463 67.3466L21.2261 67.3467V69.3856C20.2796 69.5167 19.0179 69.9414 17.817 70.4202C16.5176 70.9383 15.2625 71.5307 14.5021 71.919L14.3987 71.9719L13.7171 75.9642L12.295 68.118L11.8356 68.1389L11.2952 74.2809L4.79282 77.0902L4.79004 77.6308L11.7333 74.5958L12.1464 69.8996L13.4957 77.3436L13.9527 77.3413L14.817 72.2783C15.5743 71.8957 16.7625 71.3388 17.9893 70.8497C19.2807 70.3349 20.5883 69.9061 21.48 69.8215L21.69 69.8015V68.6197L22.7236 71.2841L23.1717 71.2103L23.2403 69.5817L25.0838 73.3454L25.5236 73.2277L24.9382 64.9284L25.9606 68.3028L26.1907 68.22C27.0413 67.9139 29.2176 67.2481 31.1023 67.0354L31.3082 67.0121V65.3798L32.201 69.4153L32.6556 69.408L33.2594 66.1827C34.1134 65.9644 36.1447 65.6171 38.4978 65.725C38.7069 66.7399 39.212 69.2774 39.4521 70.4883L39.911 70.4599L40.4151 63.4242L41.4401 68.7861L42.7627 65.7284C43.3717 65.7081 44.3195 65.7234 45.341 65.8312C46.4499 65.9482 47.6281 66.1726 48.5518 66.5689L48.7293 66.645L48.8365 66.4847C49.1247 66.0537 49.3581 65.7076 49.5376 65.443V69.7058L53.2947 65.0659L51.5701 72.8637L51.9992 73.0261L54.5816 68.4065C55.2452 68.5045 56.6215 68.9688 57.7629 70.2338C57.0748 71.2032 56.6937 71.7452 56.5858 71.8998L56.17 72.4958L60.3442 70.9945L56.376 75.1378L56.6145 75.5178L60.2777 74.3483C60.5174 74.4947 60.8178 74.7358 61.1483 75.0405C61.5156 75.3792 61.6796 75.4963 62.0518 75.9142L62.1502 75.4088C62.1502 75.4088 61.6729 74.9084 61.4633 74.7009C61.0856 74.3527 60.7196 74.0598 60.4169 73.8939L60.3294 73.846L57.3409 74.8002L61.3605 70.6031L61.114 70.2258L57.3873 71.5662C57.5972 71.269 57.8823 70.8662 58.2471 70.3525L58.3511 70.206L58.2347 70.0692C56.8931 68.4923 55.1877 67.984 54.4722 67.9285L54.324 67.917L52.3635 71.4242L53.9601 64.2056L53.553 64.0105L50.0016 68.3964V63.9609L49.5796 64.5621C49.4789 64.7055 49.1401 65.1984 48.5561 66.0703C47.6024 65.6937 46.4501 65.4831 45.3898 65.3712C44.2595 65.2519 43.2162 65.2431 42.5967 65.2721L42.4519 65.2789L41.6128 67.2188L40.5382 61.5974Z" fill="#0075FF"/>
<path fill-rule="evenodd" clip-rule="evenodd" d="M87.7114 55.6191C88.2523 55.3196 89.2741 54.72 90.0567 54.1451L89.7815 53.7727C88.9381 54.3923 87.7963 55.049 87.3311 55.2994L87.1709 55.3857L87.7724 57.6845L85.1194 54.2391L84.7128 54.4449C84.8223 54.8182 85.151 55.8741 85.6182 57.217C85.0417 57.6358 84.17 58.0603 83.2794 58.4294C82.4163 58.7871 81.5538 59.0855 80.9642 59.2693L79.5357 56.7057L79.4323 58.7432L78.447 56.4777L78.0029 56.5876L78.4128 61.8595C78.2632 61.4249 78.0883 60.932 77.8887 60.392L77.807 60.1708L77.5867 60.2565C75.9108 60.9086 74.1011 61.157 73.2411 61.2132L72.8021 59.0505L72.3462 59.0565L71.8045 62.1431C71.7575 61.7897 71.7127 61.4166 71.6794 61.0676L71.6572 60.8355L71.4246 60.8595C70.1473 60.9912 68.9836 60.8219 68.5741 60.7242L68.3728 60.6762L67.5914 62.8234L67.5696 58.3934L67.1207 58.3125C67.0212 58.5741 66.7206 59.3932 66.2825 60.6573C65.8892 60.5665 65.4541 60.363 65.0474 60.1239C64.5794 59.8488 64.1941 59.5648 63.9645 59.3673L63.9429 59.9022C64.1919 60.1164 64.3182 60.2323 64.8117 60.5224C65.3012 60.8101 65.8748 61.0765 66.4046 61.1502L66.5938 61.1765L66.656 60.9964C66.8292 60.4948 66.9824 60.0585 67.112 59.6937L67.1338 64.1226L67.5839 64.2004L68.6696 61.2168C69.1876 61.3141 70.1618 61.4245 71.2406 61.3405C71.3353 62.2362 71.4881 63.2193 71.5577 63.6269L72.0148 63.628L72.5913 60.3439L72.8651 61.6928L73.0619 61.6856C73.8193 61.658 75.721 61.4362 77.534 60.7711C78.1151 62.3595 78.4681 63.4971 78.5739 63.8748L79.0286 63.7948L78.5725 57.9291L79.401 59.834L79.8455 59.7537L79.9172 58.3427L80.7407 59.8208L80.9197 59.7669C81.5176 59.5872 82.4865 59.2589 83.4575 58.8565C84.4229 58.4564 85.4129 57.9738 86.0368 57.4809L86.1661 57.3787L86.1117 57.2234C85.8919 56.5958 85.7011 56.0265 85.5471 55.5543L88.102 58.8722L88.5105 58.673L87.7114 55.6191Z" fill="#0075FF"/>
<path fill-rule="evenodd" clip-rule="evenodd" d="M90.6545 64.677C89.7906 65.3116 87.244 66.9142 86.7644 67.1724L86.5796 67.2719L85.8436 66.1873L87.5647 71.4763L87.1618 71.6909L87.0925 71.6032C87.0479 71.5469 86.9834 71.4655 86.904 71.3654C86.7452 71.1652 86.5267 70.8903 86.2879 70.5912C85.8817 70.0825 85.4183 69.5061 85.0895 69.1083C83.9493 70.191 82.3356 70.8097 81.1214 70.9617L81.5924 73.4206L81.1696 73.5894L79.6722 71.2737L77.973 68.3981L78.7869 73.4885L78.3344 73.587C78.2891 73.4252 78.2023 73.2702 77.9944 72.9582C77.9402 72.8768 77.8784 72.7856 77.8083 72.6821C77.6328 72.4232 77.4052 72.0873 77.1137 71.6355C75.4996 72.0894 73.7442 72.2206 72.7532 72.2837L72.1067 77.2353L71.6463 77.2324L70.7518 69.6515C70.747 69.6847 70.7421 69.7182 70.7373 69.7518C70.5959 70.7311 70.4445 71.834 70.3994 72.3583L70.386 72.5141L70.236 72.5598C69.2161 72.8705 68.3541 72.7789 67.8551 72.6788L66.9562 74.3635L66.5195 74.2585L66.4574 70.3211C66.2877 71.0398 66.0829 71.8422 65.8688 72.4624L65.8066 72.6425L65.6174 72.6162C65.0759 72.5408 64.4178 72.1775 63.8595 71.8077C63.2911 71.431 63.1081 71.293 62.864 71.083L62.9401 70.5662C63.1747 70.768 63.5688 71.0597 64.1163 71.4224C64.5962 71.7403 65.093 72.0118 65.4943 72.1192C65.7034 71.4726 65.9034 70.6603 66.0673 69.9521C66.1264 69.6967 66.1803 69.457 66.2282 69.2441C66.2534 69.132 66.277 69.0274 66.2987 68.9317C66.359 68.6668 66.4098 68.4503 66.443 68.3631L66.8918 68.4415L66.9692 73.3542L67.6125 72.1486L67.7869 72.1902C68.1776 72.2833 68.9756 72.4214 69.9521 72.1598C70.0111 71.5789 70.1499 70.5734 70.278 69.6859C70.3487 69.1967 70.4164 68.741 70.4665 68.4075C70.4916 68.2408 70.5122 68.1046 70.5266 68.0101L70.549 67.8632L70.5491 67.8627L71.0088 67.8706L71.8883 75.3245L72.3425 71.8459L72.5334 71.834C73.512 71.773 75.4392 71.6521 77.1492 71.1436L77.3169 71.0937L77.4111 71.2408C77.7126 71.7118 77.9474 72.0608 78.1326 72.3344L77.322 67.2648L77.751 67.111L80.0672 71.0308L80.9128 72.3385L80.5692 70.5451L80.829 70.5261C82.032 70.4384 83.8053 69.7888 84.9377 68.6059L85.1166 68.419L85.2832 68.6169C85.6115 69.0068 86.173 69.7047 86.6508 70.303C86.676 70.3346 86.701 70.3659 86.7257 70.3968L84.8963 64.7751L85.3091 64.5741L86.7257 66.6617C87.4645 66.227 89.6111 64.8689 90.3792 64.3046L90.6545 64.677Z" fill="#0075FF"/>
<path fill-rule="evenodd" clip-rule="evenodd" d="M85.4859 81.7329C85.5504 81.6849 85.6249 81.6262 85.7058 81.5603C85.8778 81.4203 86.0972 81.2329 86.3503 81.0085C86.8566 80.5594 87.5015 79.9587 88.1762 79.2863C89.5199 77.9472 91.0041 76.3022 91.7366 74.998L91.3318 74.772C90.6336 76.0151 89.191 77.621 87.8483 78.9591C87.1798 79.6252 86.5416 80.2197 86.0419 80.6628C85.792 80.8844 85.5778 81.0673 85.4124 81.2019C85.2398 81.3424 85.1368 81.4167 85.1012 81.4359L84.9309 81.5276L85.7571 84.0561L82.549 79.0776L82.1312 79.2675C82.1856 79.4529 82.4036 80.0189 82.6655 80.6987C82.6916 80.7665 82.7181 80.8354 82.745 80.9052C83.0336 81.6549 83.3651 82.5203 83.6093 83.2115C83.2385 84.137 82.4616 85.0687 81.6161 85.7784C81.1836 86.1416 80.7398 86.4409 80.334 86.6482C79.9989 86.8195 79.7038 86.9207 79.4693 86.9523L77.7123 82.7674L77.2664 82.8511L77.1973 85.7209L75.7084 81.2325L75.2571 81.3256L75.954 89.1418C75.7078 88.4353 75.4215 87.6262 75.1606 86.9201L75.0819 86.7073L74.867 86.7815C74.6832 86.845 74.3972 86.8767 74.0393 86.8767C73.6868 86.8767 73.2849 86.8462 72.881 86.7974C72.156 86.7097 71.4438 86.5655 71.0214 86.4435L70.3712 81.4742L69.9111 81.475L69.0187 88.5006C68.8336 87.4079 68.6131 86.0554 68.5598 85.4978L68.5404 85.2949L68.3361 85.2886C68.1195 85.2818 67.8475 85.184 67.5415 85.0098C67.2398 84.8382 66.9262 84.6046 66.6315 84.3537C66.0379 83.8483 65.5497 83.2975 65.4112 83.0919L65.1331 82.6791L64.3459 85.4157L65.0941 77.6218L64.6463 77.5177C64.603 77.6313 64.4292 78.1859 64.2081 78.8911C64.1486 79.0811 64.0856 79.282 64.0208 79.4882C63.7398 80.3827 63.4213 81.3881 63.189 82.0749C62.7959 81.984 62.361 81.7806 61.9546 81.5417C61.4866 81.2667 61.1743 81.0598 60.9447 80.8623L60.8272 81.3415C61.0762 81.5558 61.2254 81.6501 61.719 81.9402C62.2084 82.2279 62.782 82.4943 63.3118 82.568L63.501 82.5943L63.5632 82.4142C63.7907 81.7555 64.1254 80.7017 64.4233 79.7547L63.6444 87.8688L64.0983 87.9546L65.3181 83.714C65.5681 83.9978 65.9299 84.3646 66.3302 84.7054C66.6381 84.9676 66.976 85.2207 67.3115 85.4116C67.575 85.5616 67.8511 85.6813 68.1184 85.7291C68.2364 86.7198 68.6392 89.0406 68.7818 89.8624C68.8014 89.9752 68.8161 90.0598 68.8245 90.1088L69.2833 90.099L70.1446 83.3181L70.5995 86.7945L70.7377 86.8402C71.1689 86.9827 71.9971 87.1565 72.8251 87.2566C73.2408 87.3068 73.6624 87.3393 74.0392 87.3393C74.3133 87.3393 74.5753 87.3223 74.7978 87.2774C75.0931 88.0832 75.4129 88.995 75.6659 89.7259C75.8028 90.1213 75.92 90.4635 76.003 90.7069C76.0445 90.8285 76.0774 90.9254 76.0999 90.9919L76.1345 91.0939L76.5855 91.0001L75.8965 83.2726L77.1769 87.1324L77.629 87.0654L77.7041 83.9459L79.165 87.4256H79.3194C79.68 87.4256 80.1087 87.2832 80.5456 87.0599C80.9879 86.8339 81.4606 86.5137 81.915 86.1323C82.8198 85.3727 83.6786 84.3473 84.0737 83.2966L84.1032 83.2182L84.0755 83.1392C83.8703 82.5532 83.5974 81.8321 83.3403 81.1613L86.3405 85.8173L86.7562 85.6206L85.4859 81.7329Z" fill="#0075FF"/>
</svg>
