<svg width="708" height="608" viewBox="0 0 708 608" fill="none" xmlns="http://www.w3.org/2000/svg">
<path fill-rule="evenodd" clip-rule="evenodd" d="M62.4212 427.852C64.5136 428.561 65.6351 430.831 64.9263 432.924C62.699 439.498 58.2963 443.848 52.1499 445.997C46.2514 448.059 39.0269 448.004 31.0222 446.637C26.2785 445.827 21.7186 447.535 17.6877 450.455C13.6487 453.381 10.5545 457.244 9.0072 459.808C7.86572 461.7 5.40704 462.308 3.51558 461.167C1.62412 460.025 1.01615 457.567 2.15763 455.675C4.16784 452.344 7.95409 447.629 12.9944 443.977C18.0427 440.32 24.7609 437.452 32.37 438.751C39.8062 440.021 45.4663 439.859 49.5103 438.445C53.3064 437.118 55.9039 434.623 57.3491 430.358C58.0579 428.265 60.3288 427.143 62.4212 427.852Z" fill="#FFE600"/>
<path fill-rule="evenodd" clip-rule="evenodd" d="M705.46 370.735C706.786 372.501 706.43 375.008 704.663 376.334C699.111 380.502 693.021 381.606 686.734 379.909C680.701 378.28 674.77 374.155 668.937 368.507C665.48 365.161 660.752 363.996 655.776 364.13C650.79 364.264 646.054 365.705 643.328 366.947C641.318 367.864 638.945 366.977 638.028 364.967C637.112 362.958 637.998 360.585 640.009 359.669C643.549 358.055 649.338 356.301 655.56 356.134C661.792 355.966 668.957 357.392 674.503 362.761C679.922 368.008 684.684 371.07 688.82 372.187C692.702 373.235 696.256 372.642 699.858 369.938C701.625 368.612 704.133 368.968 705.46 370.735Z" fill="#FFE600"/>
<path fill-rule="evenodd" clip-rule="evenodd" d="M368.986 573.661C370.937 572.624 373.359 573.364 374.397 575.314C376.108 578.528 376.263 581.894 374.884 585.092C373.607 588.054 371.155 590.551 368.297 592.704C367.401 593.378 366.8 594.563 366.596 596.328C366.392 598.092 366.663 599.892 366.952 600.899C367.561 603.022 366.332 605.237 364.208 605.845C362.084 606.453 359.869 605.225 359.261 603.101C358.733 601.259 358.303 598.389 358.648 595.408C358.993 592.429 360.191 588.793 363.482 586.315C365.857 584.526 367.053 583.046 367.537 581.925C367.918 581.04 367.945 580.219 367.334 579.071C366.296 577.121 367.036 574.699 368.986 573.661Z" fill="#FF6B00"/>
<path fill-rule="evenodd" clip-rule="evenodd" d="M552.997 1.89144C555.078 1.14951 557.367 2.23474 558.109 4.31537C559.49 8.18428 559.008 11.9178 556.896 15.1991C554.928 18.2577 551.696 20.6983 547.952 22.7454C546.407 23.5903 545.361 25.1579 544.753 27.2589C544.14 29.3753 544.118 31.5796 544.273 32.8386C544.544 35.031 542.986 37.0272 540.793 37.2974C538.6 37.5676 536.603 36.0094 536.333 33.817C536.066 31.6538 536.11 28.3422 537.068 25.0333C538.031 21.7091 540.061 17.9419 544.113 15.7268C547.365 13.9489 549.25 12.296 550.168 10.8698C550.942 9.6664 551.117 8.52374 550.574 7.00214C549.831 4.92151 550.916 2.63337 552.997 1.89144Z" fill="#0075FF"/>
<path fill-rule="evenodd" clip-rule="evenodd" d="M34.6808 54.8273C34.1909 52.6732 35.5402 50.5301 37.6944 50.0405C43.5675 48.7059 48.817 49.9779 53.2095 53.5458C57.3988 56.9487 60.5761 62.2429 63.1186 68.5931C64.5227 72.1 67.5671 74.5004 71.3369 76.0559C75.1141 77.6145 79.1555 78.116 81.6041 78.0957C83.8133 78.0774 85.6192 79.8532 85.6378 82.0622C85.6565 84.2711 83.8807 86.0767 81.6715 86.095C78.3321 86.1227 73.2045 85.4801 68.286 83.4506C63.3601 81.4181 58.1821 77.7864 55.6913 71.5654C53.3652 65.7555 50.824 61.914 48.1655 59.7545C45.71 57.76 42.9821 57.0428 39.4684 57.8412C37.3142 58.3308 35.1707 56.9814 34.6808 54.8273Z" fill="#03BE4E"/>
<path fill-rule="evenodd" clip-rule="evenodd" d="M553.174 525.671C552.853 523.486 554.365 521.454 556.551 521.133C560.615 520.536 564.183 521.738 566.989 524.451C569.605 526.979 571.367 530.624 572.643 534.696C573.169 536.375 574.502 537.707 576.445 538.714C578.401 539.729 580.559 540.182 581.825 540.276C584.028 540.439 585.682 542.357 585.518 544.56C585.355 546.764 583.437 548.417 581.234 548.253C579.06 548.092 575.82 547.402 572.761 545.815C569.689 544.221 566.39 541.494 565.009 537.087C563.901 533.552 562.648 531.381 561.429 530.202C560.4 529.208 559.313 528.813 557.713 529.048C555.528 529.369 553.495 527.857 553.174 525.671Z" fill="#0075FF"/>
<path fill-rule="evenodd" clip-rule="evenodd" d="M654.369 194.194C652.806 195.155 651.769 196.524 651.769 198.905C651.769 200.554 652.467 202.586 653.691 204.184C654.933 205.806 656.226 206.39 657.145 206.39C661.446 206.39 663.701 205.364 664.83 204.385C665.889 203.468 666.428 202.191 666.428 200.49C666.428 194.697 663.182 192.609 660.661 192.609C658.566 192.609 656.134 193.109 654.369 194.194ZM650.178 187.38C653.565 185.297 657.578 184.609 660.661 184.609C668.498 184.609 674.428 191.233 674.428 200.49C674.428 204.038 673.21 207.71 670.068 210.432C666.998 213.091 662.611 214.39 657.145 214.39C652.886 214.39 649.491 211.857 647.34 209.049C645.17 206.216 643.769 202.506 643.769 198.905C643.769 193.366 646.589 189.587 650.178 187.38Z" fill="#FF6B00"/>
<path fill-rule="evenodd" clip-rule="evenodd" d="M221.491 568.768C221.374 568.958 221.242 569.271 221.242 569.842C221.242 570.523 221.56 571.51 222.188 572.312C222.827 573.129 223.312 573.192 223.373 573.192C226.001 573.192 227.119 572.575 227.523 572.233C227.843 571.962 228.058 571.583 228.058 570.856C228.058 569.29 227.582 568.39 227.166 567.929C226.751 567.469 226.232 567.252 225.672 567.252C224.46 567.252 223.13 567.543 222.25 568.073C221.848 568.315 221.621 568.557 221.491 568.768ZM218.124 561.219C220.613 559.721 223.498 559.252 225.672 559.252C231.64 559.252 236.058 564.224 236.058 570.856C236.058 573.488 235.123 576.277 232.697 578.335C230.354 580.321 227.13 581.192 223.373 581.192C220.047 581.192 217.467 579.26 215.888 577.242C214.296 575.209 213.242 572.521 213.242 569.842C213.242 565.687 215.436 562.837 218.124 561.219Z" fill="#03BE4E"/>
<path fill-rule="evenodd" clip-rule="evenodd" d="M304.284 13.7733C304.168 13.9626 304.035 14.2757 304.035 14.847C304.035 15.5277 304.354 16.515 304.981 17.3168C305.621 18.1343 306.106 18.1973 306.166 18.1973C308.795 18.1973 309.913 17.5803 310.316 17.238C310.636 16.9671 310.851 16.5884 310.851 15.8608C310.851 14.2946 310.375 13.3945 309.959 12.9342C309.544 12.4744 309.026 12.2571 308.465 12.2571C307.253 12.2571 305.923 12.5484 305.043 13.0781C304.642 13.32 304.414 13.5615 304.284 13.7733ZM300.918 6.22412C303.406 4.72613 306.291 4.25708 308.465 4.25708C314.433 4.25708 318.851 9.22867 318.851 15.8608C318.851 18.4928 317.917 21.2824 315.49 23.3398C313.148 25.3259 309.923 26.1973 306.166 26.1973C302.84 26.1973 300.26 24.2649 298.681 22.2472C297.09 20.2137 296.035 17.5259 296.035 14.847C296.035 10.6923 298.23 7.84205 300.918 6.22412Z" fill="#0075FF"/>
</svg>
