<svg width="508" height="474" viewBox="0 0 508 474" fill="none" xmlns="http://www.w3.org/2000/svg">
<g clip-path="url(#clip0)">
<path d="M80.9418 247.677C125.645 247.677 161.884 211.147 161.884 166.085C161.884 121.023 125.645 84.493 80.9418 84.493C36.2389 84.493 0 121.023 0 166.085C0 211.147 36.2389 247.677 80.9418 247.677Z" fill="#47190F"/>
<path d="M180.07 240.012C220.574 240.012 253.409 206.914 253.409 166.085C253.409 125.256 220.574 92.1577 180.07 92.1577C139.567 92.1577 106.732 125.256 106.732 166.085C106.732 206.914 139.567 240.012 180.07 240.012Z" fill="#47190F"/>
<path d="M508 252.576C508 374.865 409.654 474 288.34 474C167.026 474 68.6803 374.865 68.6803 252.576C68.6634 238.036 71.4969 223.636 77.018 210.202C82.539 196.769 90.6388 184.568 100.852 174.3C143.742 131.066 213.284 131.066 256.174 174.3L288.633 207.025L320.512 174.3C363.402 131.066 432.944 131.066 475.834 174.3C486.045 184.569 494.143 196.771 499.663 210.204C505.183 223.637 508.016 238.036 508 252.576Z" fill="#FF2B6B"/>
<path d="M292.615 202.999L288.632 207.013L362.737 281.713L366.72 277.699L292.615 202.999Z" fill="#E50046"/>
<path d="M275.667 349.946C280.173 330.075 296.648 308.943 335.37 286.358C375.579 262.904 394.171 246.95 412.071 264.698C435.625 288.061 386.061 361.301 331.427 381.172C311.827 388.303 286.932 394.231 278.484 380.605C273.927 373.258 272.851 363.572 275.667 349.946Z" fill="#FAFAFA"/>
<path d="M281.339 335.014C281.339 335.014 293.009 321.388 306.871 312.304C326.454 299.399 344.945 292.858 361.836 292.858V296.265C345.61 296.265 327.744 302.618 308.718 315.154C298.929 321.604 283.936 335.775 279.171 339.448C279.323 339.005 280.697 336.155 281.339 335.014Z" fill="#E4E4E4"/>
<path d="M381.555 289.764C369.682 296.095 354.261 299.07 347.761 294.306C342.348 289.957 348.02 275.218 364.095 265.953C371.98 261.411 385.458 258.441 392.746 259.111C405.148 260.247 403.07 276.944 381.555 289.764Z" fill="#FEDFBF"/>
<path d="M365.165 275.19C364.878 275.19 364.602 275.081 364.393 274.883C364.179 274.679 362.292 272.834 362.264 270.807C362.254 270.385 362.33 269.965 362.488 269.575C362.646 269.184 362.882 268.83 363.182 268.536C364.134 267.576 366.274 266.441 369.941 269.603C370.129 269.809 370.236 270.077 370.24 270.357C370.244 270.637 370.146 270.908 369.964 271.119C369.782 271.331 369.528 271.466 369.253 271.501C368.977 271.535 368.699 271.466 368.471 271.306C367.497 270.461 365.728 269.189 364.799 270.126C364.713 270.203 364.645 270.299 364.601 270.406C364.556 270.513 364.535 270.628 364.54 270.744C364.54 271.556 365.418 272.686 365.959 273.203C366.067 273.305 366.153 273.428 366.214 273.564C366.275 273.701 366.308 273.848 366.312 273.997C366.316 274.146 366.291 274.295 366.238 274.434C366.185 274.574 366.106 274.701 366.004 274.81C365.899 274.929 365.769 275.025 365.625 275.09C365.48 275.156 365.323 275.19 365.165 275.19Z" fill="#FFB776"/>
<path d="M360.518 288.572C359.763 288.607 359.01 288.469 358.315 288.168C357.62 287.867 357.003 287.411 356.508 286.834C354.565 284.45 356.187 281.31 356.26 281.157C356.408 280.907 356.646 280.724 356.924 280.646C357.202 280.567 357.499 280.6 357.755 280.736C358.01 280.872 358.203 281.102 358.295 281.378C358.387 281.654 358.37 281.955 358.248 282.219C358.248 282.264 357.268 284.172 358.248 285.364C359.527 286.931 362.495 286.187 364.652 285.074C364.784 285.001 364.93 284.956 365.08 284.94C365.23 284.925 365.381 284.94 365.525 284.984C365.669 285.029 365.803 285.102 365.919 285.2C366.034 285.298 366.129 285.418 366.198 285.553C366.266 285.688 366.307 285.836 366.318 285.988C366.329 286.139 366.31 286.291 366.261 286.435C366.213 286.579 366.136 286.712 366.036 286.825C365.935 286.939 365.814 287.031 365.677 287.096C364.096 287.989 362.329 288.495 360.518 288.572Z" fill="#FFB776"/>
<path d="M384.27 271.522C383.803 271.547 383.337 271.464 382.906 271.28C382.476 271.096 382.093 270.816 381.786 270.461C380.58 268.984 381.594 267.02 381.639 266.935C381.674 266.869 381.721 266.81 381.779 266.763C381.836 266.715 381.902 266.679 381.973 266.658C382.043 266.636 382.118 266.628 382.192 266.635C382.265 266.642 382.337 266.664 382.402 266.699C382.468 266.734 382.526 266.782 382.573 266.839C382.62 266.897 382.656 266.964 382.677 267.035C382.699 267.106 382.707 267.181 382.7 267.256C382.693 267.33 382.671 267.402 382.636 267.468C382.636 267.503 381.932 268.854 382.636 269.739C383.549 270.875 385.526 270.398 387.069 269.598C387.135 269.563 387.207 269.542 387.28 269.536C387.354 269.53 387.429 269.538 387.499 269.561C387.57 269.584 387.635 269.62 387.692 269.668C387.749 269.716 387.795 269.775 387.829 269.842C387.863 269.908 387.884 269.98 387.89 270.055C387.897 270.129 387.888 270.204 387.866 270.275C387.843 270.347 387.807 270.413 387.759 270.47C387.711 270.527 387.653 270.574 387.587 270.608C386.565 271.163 385.43 271.476 384.27 271.522Z" fill="#FFB776"/>
<path d="M369.749 263.301C369.705 263.962 369.906 264.615 370.313 265.135C370.62 265.49 371.003 265.771 371.433 265.955C371.864 266.138 372.33 266.221 372.797 266.197C373.963 266.152 375.104 265.837 376.131 265.277C376.264 265.209 376.364 265.091 376.411 264.948C376.457 264.806 376.446 264.65 376.379 264.516C376.346 264.449 376.299 264.39 376.243 264.341C376.186 264.292 376.121 264.255 376.05 264.232C375.98 264.208 375.905 264.2 375.831 264.205C375.757 264.211 375.685 264.232 375.619 264.266C374.07 265.067 372.093 265.527 371.186 264.414C371.027 264.191 370.921 263.935 370.875 263.664C370.829 263.394 370.845 263.116 370.921 262.853C370.538 263 370.138 263.148 369.749 263.301Z" fill="#FFB776"/>
<path d="M393.794 261.053C391.804 261.065 389.889 260.291 388.46 258.895C387.502 257.885 386.168 255.671 388.026 252.19C388.579 251.173 389.467 250.383 390.536 249.955C391.606 249.528 392.79 249.491 393.884 249.851C394.783 250.081 395.57 250.63 396.1 251.398C396.629 252.165 396.867 253.1 396.768 254.03C396.657 254.843 396.286 255.598 395.712 256.179C395.138 256.761 394.391 257.139 393.585 257.255C392.918 257.409 392.219 257.328 391.604 257.025C390.989 256.723 390.495 256.216 390.206 255.591C390.144 255.454 390.139 255.298 390.191 255.157C390.243 255.016 390.349 254.901 390.485 254.839C390.621 254.776 390.776 254.771 390.916 254.824C391.056 254.876 391.169 254.983 391.231 255.12C391.427 255.507 391.746 255.817 392.136 256.001C392.527 256.186 392.968 256.233 393.388 256.136C393.953 256.062 394.478 255.805 394.884 255.404C395.291 255.002 395.556 254.478 395.641 253.911C395.71 253.243 395.535 252.573 395.149 252.025C394.764 251.478 394.194 251.09 393.546 250.936C392.705 250.663 391.796 250.693 390.975 251.02C390.153 251.347 389.469 251.951 389.04 252.73C387.914 254.87 387.987 256.704 389.299 258.112C390.113 258.884 391.111 259.432 392.197 259.701C393.282 259.971 394.418 259.953 395.495 259.651C395.993 259.814 396.473 260.031 396.925 260.298C395.94 260.752 394.876 261.009 393.794 261.053Z" fill="#47190F"/>
<path d="M288.34 391.676C256.475 391.672 225.592 380.555 200.932 360.212C176.272 339.869 159.353 311.553 153.046 280.067C152.971 279.696 152.969 279.314 153.042 278.943C153.114 278.572 153.26 278.219 153.47 277.905C153.68 277.592 153.95 277.324 154.264 277.117C154.578 276.91 154.93 276.768 155.299 276.7C156.021 276.571 156.764 276.731 157.371 277.145C157.978 277.56 158.401 278.196 158.549 278.92C164.592 309.127 180.819 336.296 204.475 355.814C228.131 375.332 257.759 385.997 288.329 385.998C319.549 385.998 350.149 375.177 373.675 354.562C393.495 337.194 405.819 321.411 416.295 293.245C416.295 293.245 409.068 330.398 377.308 358.916C353.055 380.69 320.889 391.676 288.34 391.676Z" fill="#E50046"/>
<path d="M171.284 193.729C152.607 193.729 136.718 185.933 128.512 177.088L130.157 175.538C140.019 186.172 161.529 195.205 185.455 189.902C206.238 185.298 215.717 167.669 222.245 151.034L224.34 151.868C221.524 159.033 217.491 168.254 211.172 176.072C204.244 184.645 195.965 189.891 185.939 192.122C181.126 193.189 176.212 193.727 171.284 193.729Z" fill="#E50046"/>
<path d="M411.536 192.945C408.362 192.955 405.197 192.605 402.101 191.901C379.927 186.751 363.7 165.784 359.685 148.706L361.881 148.184C365.734 164.614 381.318 184.741 402.603 189.686C413.011 192.099 425.695 190.01 438.25 183.799C448.816 178.587 458.486 170.843 463.488 163.598L465.341 164.893C456.318 177.962 433.124 192.945 411.536 192.945Z" fill="#E50046"/>
<path d="M128.163 280.862C126.65 280.864 125.163 280.456 123.859 279.681C122.555 278.906 121.482 277.792 120.751 276.456C120.614 276.184 120.59 275.869 120.684 275.579C120.778 275.29 120.983 275.049 121.252 274.912C121.522 274.774 121.835 274.75 122.122 274.845C122.409 274.939 122.648 275.145 122.784 275.417C122.874 275.599 125.037 279.596 130.05 278.352C130.194 278.315 130.343 278.307 130.49 278.327C130.636 278.348 130.778 278.398 130.905 278.474C131.033 278.55 131.144 278.651 131.233 278.77C131.322 278.889 131.387 279.025 131.424 279.17C131.461 279.314 131.47 279.465 131.449 279.613C131.428 279.761 131.379 279.903 131.303 280.032C131.228 280.16 131.128 280.273 131.01 280.363C130.892 280.452 130.757 280.518 130.613 280.555C129.812 280.758 128.989 280.861 128.163 280.862Z" fill="#E50046"/>
<path d="M92.3079 324.284C92.0092 324.294 91.7185 324.185 91.4999 323.979C91.2812 323.774 91.1525 323.489 91.142 323.188C91.1316 322.887 91.2402 322.594 91.4441 322.373C91.648 322.153 91.9303 322.023 92.2291 322.013C92.4318 322.013 96.9264 321.604 97.7938 316.46C97.8544 316.173 98.0225 315.921 98.263 315.757C98.5035 315.592 98.7978 315.528 99.0844 315.577C99.3709 315.626 99.6276 315.785 99.8006 316.021C99.9737 316.256 100.05 316.55 100.013 316.84C99.7609 318.769 98.8681 320.555 97.4802 321.907C96.0922 323.258 94.2908 324.096 92.3699 324.284H92.3079Z" fill="#E50046"/>
<path d="M471.024 304.282C470.876 304.286 470.729 304.262 470.59 304.209C470.452 304.157 470.325 304.077 470.217 303.975C470.109 303.873 470.022 303.751 469.961 303.615C469.9 303.479 469.866 303.332 469.861 303.183C469.856 303.034 469.881 302.885 469.933 302.746C469.985 302.606 470.064 302.478 470.165 302.369C470.266 302.26 470.388 302.173 470.523 302.111C470.657 302.05 470.803 302.015 470.951 302.011C471.154 302.011 475.643 301.596 476.51 296.458C476.529 296.306 476.579 296.16 476.655 296.028C476.732 295.896 476.835 295.781 476.957 295.689C477.079 295.598 477.218 295.533 477.365 295.497C477.513 295.462 477.666 295.457 477.816 295.482C477.966 295.508 478.109 295.564 478.237 295.647C478.364 295.729 478.474 295.837 478.559 295.964C478.645 296.091 478.704 296.234 478.733 296.384C478.762 296.534 478.761 296.689 478.729 296.838C478.477 298.765 477.586 300.548 476.2 301.899C474.814 303.25 473.016 304.087 471.097 304.276L471.024 304.282Z" fill="#E50046"/>
<path d="M232.845 330.324H232.755C230.83 330.24 228.989 329.502 227.532 328.231C226.074 326.959 225.087 325.227 224.729 323.318C224.707 323.169 224.713 323.017 224.749 322.871C224.785 322.724 224.849 322.586 224.938 322.465C225.117 322.219 225.385 322.056 225.684 322.01C225.983 321.964 226.287 322.039 226.531 322.22C226.774 322.4 226.936 322.671 226.982 322.972C227.016 323.176 227.81 327.645 232.964 328.053C233.262 328.065 233.544 328.195 233.748 328.416C233.951 328.637 234.059 328.93 234.048 329.232C234.037 329.533 233.907 329.817 233.688 330.022C233.469 330.227 233.178 330.336 232.879 330.324H232.845Z" fill="#E50046"/>
<path d="M188.316 275.394C187.019 275.404 185.738 275.106 184.576 274.526C184.446 274.456 184.33 274.361 184.235 274.246C184.141 274.131 184.069 273.999 184.026 273.856C183.938 273.568 183.966 273.256 184.106 272.99C184.246 272.723 184.485 272.524 184.771 272.435C185.056 272.346 185.365 272.375 185.63 272.516C185.81 272.612 189.843 274.639 193.25 270.716C193.451 270.505 193.725 270.38 194.015 270.368C194.305 270.356 194.589 270.457 194.807 270.65C195.025 270.843 195.16 271.114 195.185 271.406C195.21 271.697 195.122 271.987 194.94 272.215C194.135 273.203 193.124 273.999 191.98 274.549C190.835 275.098 189.584 275.387 188.316 275.394Z" fill="#E50046"/>
<path d="M173.137 239.711C172.87 239.709 172.612 239.611 172.41 239.436C172.207 239.26 172.074 239.017 172.032 238.751C171.991 238.485 172.045 238.213 172.184 237.983C172.324 237.753 172.54 237.581 172.794 237.497C172.991 237.434 177.254 235.958 176.871 230.763C176.849 230.462 176.946 230.164 177.142 229.935C177.337 229.706 177.615 229.565 177.913 229.543C178.212 229.52 178.508 229.618 178.735 229.815C178.962 230.012 179.102 230.292 179.124 230.593C179.536 236.219 175.615 238.984 173.492 239.677C173.376 239.706 173.256 239.718 173.137 239.711Z" fill="#E50046"/>
<path d="M366.736 400.555C366.466 400.556 366.205 400.46 366 400.283C365.795 400.106 365.66 399.861 365.619 399.592C365.578 399.323 365.634 399.049 365.777 398.818C365.92 398.587 366.141 398.416 366.398 398.336C366.59 398.273 370.854 396.803 370.476 391.602C370.465 391.453 370.484 391.303 370.531 391.161C370.577 391.019 370.651 390.888 370.748 390.775C370.845 390.662 370.964 390.569 371.096 390.502C371.229 390.435 371.373 390.395 371.521 390.384C371.669 390.373 371.818 390.392 371.958 390.439C372.099 390.486 372.229 390.561 372.341 390.659C372.454 390.756 372.546 390.876 372.612 391.009C372.679 391.143 372.718 391.288 372.729 391.437C372.947 393.37 372.509 395.321 371.486 396.97C370.463 398.62 368.916 399.872 367.097 400.521C366.979 400.552 366.857 400.564 366.736 400.555Z" fill="#E50046"/>
<path d="M95.4113 250.714C93.564 250.726 91.7637 250.128 90.2859 249.011C90.0675 248.817 89.9318 248.547 89.907 248.255C89.8821 247.963 89.9702 247.673 90.1527 247.445C90.3352 247.217 90.5981 247.069 90.8864 247.031C91.1747 246.994 91.466 247.071 91.6996 247.245C91.8629 247.37 95.4338 250.141 99.5229 246.944C99.6393 246.848 99.7736 246.776 99.9179 246.733C100.062 246.69 100.214 246.677 100.363 246.694C100.513 246.711 100.658 246.758 100.789 246.832C100.92 246.907 101.035 247.007 101.127 247.127C101.22 247.246 101.287 247.384 101.326 247.53C101.364 247.677 101.374 247.83 101.353 247.98C101.332 248.13 101.281 248.275 101.204 248.405C101.127 248.535 101.024 248.649 100.903 248.738C99.3463 250.003 97.4107 250.7 95.4113 250.714Z" fill="#E50046"/>
<path d="M137.355 214.923C137.056 214.923 136.77 214.803 136.559 214.59C136.347 214.377 136.229 214.089 136.229 213.787C136.229 213.577 136.071 209.035 131.024 207.888C130.88 207.855 130.744 207.794 130.623 207.708C130.502 207.621 130.4 207.512 130.321 207.386C130.242 207.259 130.189 207.119 130.164 206.972C130.14 206.825 130.144 206.674 130.177 206.529C130.21 206.383 130.271 206.246 130.356 206.124C130.442 206.003 130.55 205.899 130.676 205.82C130.801 205.74 130.94 205.687 131.086 205.662C131.232 205.637 131.381 205.641 131.526 205.674C133.42 206.033 135.138 207.028 136.4 208.495C137.663 209.963 138.397 211.818 138.481 213.759C138.481 214.06 138.363 214.349 138.152 214.562C137.94 214.775 137.654 214.895 137.355 214.895V214.923Z" fill="#E50046"/>
<path d="M250.733 184.52C250.454 184.519 250.185 184.414 249.979 184.224C249.827 184.088 246.408 181.119 242.15 184.077C242.029 184.173 241.889 184.243 241.74 184.283C241.591 184.322 241.436 184.331 241.283 184.308C241.131 184.284 240.985 184.23 240.854 184.147C240.724 184.065 240.611 183.956 240.524 183.828C240.437 183.7 240.377 183.555 240.347 183.403C240.318 183.25 240.319 183.093 240.352 182.941C240.385 182.79 240.449 182.646 240.539 182.52C240.629 182.394 240.744 182.288 240.877 182.209C242.422 181.048 244.313 180.448 246.24 180.508C248.166 180.567 250.016 181.283 251.488 182.538C251.598 182.638 251.688 182.759 251.751 182.895C251.815 183.03 251.851 183.176 251.859 183.325C251.866 183.474 251.844 183.624 251.794 183.764C251.744 183.905 251.667 184.034 251.567 184.145C251.462 184.263 251.333 184.357 251.19 184.421C251.046 184.486 250.891 184.519 250.733 184.52Z" fill="#E50046"/>
<path d="M331.934 219.34C331.727 219.34 331.523 219.282 331.346 219.173C331.17 219.064 331.026 218.907 330.932 218.721C330.842 218.54 328.707 214.531 323.683 215.746C323.536 215.792 323.381 215.807 323.228 215.79C323.075 215.773 322.927 215.725 322.794 215.649C322.66 215.572 322.543 215.469 322.451 215.345C322.358 215.221 322.292 215.079 322.255 214.929C322.219 214.778 322.214 214.621 322.24 214.469C322.266 214.316 322.323 214.17 322.407 214.04C322.491 213.91 322.601 213.799 322.729 213.714C322.858 213.628 323.002 213.57 323.154 213.543C325.01 213.02 326.988 213.146 328.765 213.899C330.542 214.653 332.015 215.99 332.942 217.694C333.009 217.827 333.049 217.972 333.06 218.121C333.071 218.27 333.053 218.42 333.006 218.562C332.96 218.704 332.886 218.835 332.789 218.948C332.692 219.061 332.574 219.154 332.441 219.221C332.284 219.3 332.11 219.341 331.934 219.34Z" fill="#E50046"/>
<path d="M473.232 347.226C473.024 347.227 472.819 347.17 472.641 347.061C472.463 346.951 472.319 346.795 472.224 346.608C472.134 346.432 470.005 342.423 464.975 343.638C464.684 343.709 464.378 343.66 464.123 343.503C463.868 343.346 463.685 343.094 463.615 342.801C463.545 342.508 463.593 342.199 463.748 341.942C463.904 341.685 464.155 341.5 464.446 341.43C469.892 340.112 473.226 343.57 474.235 345.58C474.301 345.713 474.341 345.859 474.352 346.008C474.363 346.157 474.345 346.307 474.298 346.448C474.252 346.59 474.178 346.722 474.081 346.835C473.984 346.948 473.866 347.04 473.733 347.107C473.578 347.185 473.406 347.226 473.232 347.226Z" fill="#E50046"/>
<path d="M352.177 182.107C352.001 182.106 351.829 182.064 351.672 181.984C351.516 181.905 351.38 181.789 351.276 181.647C350.069 180.131 349.407 178.248 349.398 176.305C349.389 174.361 350.033 172.472 351.225 170.945C351.421 170.729 351.692 170.599 351.982 170.58C352.271 170.561 352.557 170.655 352.779 170.843C353.001 171.031 353.143 171.299 353.174 171.589C353.206 171.88 353.125 172.172 352.948 172.404C352.819 172.563 349.997 176.111 353.084 180.296C353.208 180.465 353.283 180.665 353.301 180.875C353.318 181.085 353.278 181.295 353.184 181.483C353.09 181.671 352.946 181.829 352.768 181.939C352.59 182.049 352.386 182.107 352.177 182.107Z" fill="#E50046"/>
<path d="M377.5 235.771C377.216 235.772 376.942 235.665 376.733 235.471C376.524 235.277 376.396 235.011 376.373 234.726C376.156 232.793 376.595 230.844 377.618 229.194C378.64 227.545 380.187 226.293 382.005 225.642C382.29 225.55 382.599 225.576 382.865 225.714C383.13 225.852 383.331 226.09 383.422 226.377C383.513 226.664 383.487 226.976 383.35 227.244C383.214 227.511 382.977 227.713 382.692 227.805C382.507 227.868 378.243 229.355 378.643 234.556C378.654 234.705 378.637 234.854 378.591 234.996C378.545 235.138 378.472 235.269 378.376 235.383C378.279 235.496 378.162 235.589 378.03 235.657C377.898 235.724 377.754 235.765 377.607 235.777L377.5 235.771Z" fill="#E50046"/>
<path d="M410.201 400.567C409.916 400.568 409.641 400.46 409.432 400.265C409.223 400.07 409.095 399.803 409.074 399.516C408.857 397.584 409.296 395.634 410.319 393.984C411.341 392.335 412.888 391.083 414.706 390.432C414.991 390.34 415.3 390.365 415.567 390.502C415.833 390.64 416.034 390.878 416.126 391.165C416.218 391.452 416.193 391.764 416.056 392.032C415.92 392.3 415.684 392.503 415.399 392.596C414.067 393.094 412.941 394.033 412.204 395.258C411.468 396.484 411.165 397.925 411.344 399.346C411.355 399.495 411.338 399.645 411.292 399.786C411.246 399.928 411.173 400.06 411.077 400.173C410.98 400.286 410.863 400.379 410.731 400.447C410.599 400.515 410.455 400.555 410.308 400.567H410.201Z" fill="#E50046"/>
<path d="M487.594 208.973C485.813 209.011 484.066 208.483 482.599 207.464C481.132 206.445 480.021 204.986 479.422 203.295C479.331 203.009 479.356 202.697 479.493 202.429C479.63 202.161 479.867 201.959 480.151 201.867C480.436 201.776 480.745 201.801 481.011 201.939C481.276 202.077 481.477 202.316 481.568 202.603C482.067 203.941 483.001 205.069 484.216 205.806C485.431 206.543 486.858 206.845 488.265 206.662C488.413 206.651 488.561 206.669 488.702 206.715C488.843 206.761 488.974 206.835 489.087 206.933C489.2 207.03 489.292 207.148 489.359 207.282C489.427 207.415 489.467 207.561 489.478 207.71C489.49 207.859 489.472 208.009 489.426 208.151C489.38 208.293 489.307 208.425 489.21 208.538C489.114 208.652 488.996 208.745 488.864 208.813C488.731 208.881 488.587 208.922 488.439 208.933C488.154 208.96 487.872 208.973 487.594 208.973Z" fill="#E50046"/>
<path d="M424.377 209.092C422.835 209.1 421.32 208.677 420.001 207.871C419.749 207.709 419.572 207.452 419.508 207.158C419.444 206.863 419.499 206.555 419.66 206.302C419.821 206.048 420.076 205.869 420.368 205.805C420.66 205.74 420.966 205.795 421.217 205.958C421.386 206.066 425.233 208.439 428.962 204.823C429.067 204.711 429.193 204.623 429.333 204.562C429.472 204.501 429.623 204.47 429.775 204.469C429.927 204.469 430.078 204.499 430.218 204.559C430.358 204.619 430.485 204.707 430.591 204.817C430.696 204.928 430.778 205.059 430.832 205.203C430.886 205.346 430.911 205.499 430.904 205.652C430.898 205.806 430.861 205.956 430.795 206.094C430.729 206.233 430.636 206.356 430.522 206.458C429.72 207.283 428.765 207.94 427.71 208.392C426.656 208.844 425.523 209.082 424.377 209.092Z" fill="#E50046"/>
<path d="M240.139 241.681C238.478 241.701 236.847 241.228 235.452 240.319C234.056 239.41 232.958 238.106 232.293 236.571C232.193 236.294 232.203 235.989 232.322 235.719C232.441 235.45 232.66 235.238 232.931 235.128C233.203 235.018 233.506 235.019 233.777 235.13C234.048 235.242 234.265 235.455 234.383 235.725C234.97 237.031 235.978 238.098 237.243 238.753C238.508 239.407 239.955 239.611 241.35 239.331C241.649 239.287 241.952 239.365 242.194 239.547C242.436 239.729 242.596 240 242.64 240.302C242.683 240.603 242.606 240.909 242.425 241.153C242.245 241.396 241.975 241.558 241.677 241.602C241.167 241.666 240.653 241.693 240.139 241.681Z" fill="#E50046"/>
<path d="M279.03 247.501C278.749 247.502 278.478 247.397 278.269 247.207C278.061 247.017 277.93 246.755 277.904 246.473C277.645 244.547 278.04 242.59 279.025 240.919C280.01 239.248 281.526 237.962 283.328 237.27C283.607 237.184 283.908 237.211 284.167 237.345C284.427 237.479 284.625 237.709 284.72 237.987C284.815 238.265 284.799 238.569 284.676 238.836C284.553 239.102 284.332 239.31 284.06 239.416C282.737 239.938 281.628 240.894 280.913 242.131C280.197 243.367 279.917 244.812 280.117 246.229C280.132 246.377 280.118 246.527 280.075 246.67C280.032 246.813 279.962 246.946 279.868 247.061C279.775 247.176 279.66 247.272 279.529 247.343C279.399 247.413 279.256 247.457 279.109 247.472L279.03 247.501Z" fill="#E50046"/>
<path d="M253.758 295.987C253.56 295.986 253.366 295.933 253.195 295.833C253.066 295.759 252.954 295.66 252.863 295.542C252.773 295.424 252.707 295.289 252.668 295.145C252.629 295.002 252.619 294.851 252.638 294.703C252.657 294.556 252.704 294.413 252.778 294.283C253.676 292.564 255.125 291.201 256.889 290.417C258.653 289.632 260.628 289.472 262.494 289.963C262.78 290.049 263.022 290.246 263.164 290.511C263.307 290.776 263.339 291.087 263.254 291.377C263.169 291.666 262.973 291.909 262.71 292.053C262.447 292.196 262.138 292.229 261.852 292.143C261.654 292.086 257.306 290.894 254.732 295.413C254.634 295.587 254.493 295.731 254.322 295.832C254.15 295.933 253.956 295.986 253.758 295.987Z" fill="#E50046"/>
<path d="M317.099 273.998C316.91 273.997 316.725 273.949 316.56 273.858C316.394 273.767 316.254 273.635 316.153 273.475C316.046 273.311 313.539 269.501 308.645 271.233C308.505 271.281 308.357 271.302 308.209 271.293C308.062 271.284 307.917 271.246 307.784 271.181C307.651 271.116 307.532 271.025 307.434 270.914C307.335 270.802 307.26 270.672 307.211 270.531C307.163 270.391 307.142 270.241 307.151 270.093C307.16 269.944 307.198 269.798 307.262 269.664C307.327 269.53 307.417 269.41 307.528 269.311C307.638 269.211 307.767 269.135 307.907 269.087C309.704 268.385 311.683 268.316 313.523 268.891C315.364 269.466 316.957 270.652 318.045 272.255C318.124 272.381 318.178 272.521 318.203 272.668C318.229 272.815 318.225 272.966 318.192 273.111C318.16 273.257 318.099 273.394 318.014 273.516C317.929 273.638 317.821 273.742 317.696 273.822C317.517 273.936 317.31 273.997 317.099 273.998Z" fill="#E50046"/>
<path d="M155.88 338.79C153.998 338.854 152.148 338.287 150.619 337.179C149.09 336.07 147.969 334.483 147.431 332.664C147.369 332.377 147.42 332.077 147.572 331.826C147.725 331.576 147.968 331.396 148.25 331.322C148.532 331.249 148.831 331.288 149.085 331.432C149.339 331.577 149.527 331.814 149.611 332.096C149.662 332.289 150.912 336.638 156.088 336.524C156.387 336.517 156.676 336.629 156.893 336.837C157.109 337.044 157.235 337.33 157.243 337.631C157.25 337.933 157.139 338.224 156.933 338.443C156.727 338.661 156.443 338.788 156.144 338.795L155.88 338.79Z" fill="#E50046"/>
<path d="M361.909 446.912C360.027 446.976 358.178 446.409 356.65 445.3C355.121 444.192 354 442.605 353.461 440.786C353.399 440.5 353.449 440.199 353.602 439.949C353.755 439.699 353.997 439.518 354.279 439.445C354.562 439.372 354.861 439.411 355.115 439.555C355.368 439.7 355.557 439.937 355.64 440.219C355.697 440.417 356.936 444.761 362.118 444.647C362.266 444.643 362.413 444.669 362.551 444.723C362.689 444.776 362.815 444.857 362.922 444.96C363.03 445.062 363.116 445.186 363.176 445.322C363.236 445.458 363.269 445.605 363.272 445.754C363.276 445.903 363.251 446.052 363.197 446.191C363.144 446.33 363.064 446.457 362.962 446.565C362.86 446.674 362.738 446.76 362.603 446.821C362.468 446.881 362.322 446.914 362.174 446.918L361.909 446.912Z" fill="#E50046"/>
<path d="M424.146 345.824C422.265 345.886 420.416 345.319 418.887 344.211C417.359 343.103 416.238 341.516 415.698 339.698C415.636 339.411 415.686 339.111 415.839 338.861C415.992 338.611 416.234 338.43 416.517 338.356C416.799 338.283 417.098 338.323 417.352 338.467C417.606 338.611 417.794 338.849 417.878 339.13C418.289 340.459 419.125 341.614 420.254 342.416C421.383 343.218 422.744 343.621 424.124 343.564H424.355C424.503 343.561 424.65 343.586 424.788 343.64C424.926 343.694 425.052 343.774 425.16 343.877C425.267 343.98 425.353 344.103 425.413 344.239C425.473 344.375 425.506 344.522 425.509 344.672C425.513 344.821 425.488 344.969 425.434 345.108C425.381 345.247 425.301 345.375 425.199 345.483C425.097 345.591 424.975 345.678 424.84 345.738C424.705 345.799 424.559 345.832 424.411 345.835L424.146 345.824Z" fill="#E50046"/>
<path d="M148.276 385.811C146.223 385.808 144.24 385.056 142.694 383.693C142.476 383.488 142.347 383.203 142.336 382.902C142.326 382.6 142.434 382.307 142.638 382.086C142.842 381.866 143.124 381.736 143.423 381.725C143.722 381.715 144.013 381.824 144.232 382.03C144.384 382.172 147.752 385.192 152.055 382.302C152.178 382.209 152.318 382.143 152.467 382.106C152.615 382.07 152.77 382.064 152.921 382.09C153.072 382.116 153.216 382.173 153.345 382.257C153.473 382.341 153.584 382.45 153.669 382.578C153.754 382.707 153.812 382.851 153.84 383.003C153.868 383.155 153.865 383.311 153.831 383.462C153.797 383.612 153.733 383.754 153.642 383.879C153.552 384.004 153.438 384.109 153.306 384.187C151.829 385.225 150.076 385.79 148.276 385.811Z" fill="#E50046"/>
<path d="M313.325 422.562C311.164 422.549 309.09 421.706 307.524 420.205C307.313 419.991 307.195 419.702 307.197 419.401C307.198 419.099 307.317 418.811 307.529 418.598C307.742 418.386 308.029 418.267 308.328 418.269C308.627 418.27 308.913 418.39 309.123 418.604C309.264 418.746 312.503 421.914 316.93 419.2C317.185 419.044 317.492 418.996 317.782 419.067C318.073 419.139 318.323 419.323 318.479 419.581C318.634 419.838 318.682 420.147 318.611 420.44C318.54 420.733 318.357 420.986 318.101 421.142C316.673 422.058 315.018 422.55 313.325 422.562Z" fill="#E50046"/>
<path d="M448.748 255.131C448.552 255.13 448.359 255.077 448.189 254.977C448.019 254.878 447.878 254.735 447.779 254.563C447.626 254.306 447.58 253.997 447.652 253.706C447.724 253.414 447.907 253.163 448.162 253.008C449.342 252.217 450.223 251.048 450.663 249.69C451.102 248.333 451.075 246.865 450.584 245.525C450.533 245.381 450.512 245.229 450.521 245.077C450.53 244.924 450.569 244.775 450.636 244.639C450.703 244.502 450.797 244.381 450.912 244.281C451.027 244.182 451.16 244.107 451.304 244.061C451.448 244.015 451.6 243.998 451.751 244.013C451.902 244.027 452.048 244.072 452.181 244.144C452.314 244.217 452.431 244.316 452.525 244.435C452.62 244.554 452.689 244.691 452.73 244.838C454.42 250.214 451.238 253.82 449.317 254.972C449.145 255.075 448.948 255.13 448.748 255.131Z" fill="#E50046"/>
<path d="M195.666 384.936C195.378 384.938 195.1 384.829 194.889 384.63C193.439 383.348 192.463 381.61 192.118 379.698C191.774 377.785 192.081 375.812 192.991 374.098C193.14 373.837 193.387 373.646 193.675 373.568C193.964 373.49 194.272 373.53 194.531 373.681C194.791 373.831 194.98 374.08 195.057 374.371C195.135 374.662 195.095 374.972 194.945 375.234C194.85 375.404 192.692 379.395 196.438 382.978C196.601 383.134 196.714 383.336 196.762 383.557C196.811 383.778 196.792 384.009 196.709 384.22C196.626 384.431 196.482 384.612 196.297 384.739C196.111 384.867 195.891 384.936 195.666 384.936Z" fill="#E50046"/>
<path d="M203.585 431.492C201.699 431.553 199.846 430.982 198.317 429.867C196.788 428.752 195.67 427.157 195.137 425.332C195.075 425.045 195.125 424.745 195.278 424.495C195.431 424.245 195.674 424.064 195.956 423.991C196.238 423.917 196.537 423.957 196.791 424.101C197.045 424.245 197.233 424.483 197.317 424.764C197.727 426.101 198.564 427.262 199.698 428.069C200.832 428.875 202.199 429.28 203.585 429.221H203.799C204.098 429.221 204.385 429.341 204.596 429.554C204.807 429.767 204.926 430.056 204.926 430.357C204.926 430.658 204.807 430.947 204.596 431.16C204.385 431.373 204.098 431.492 203.799 431.492H203.585Z" fill="#E50046"/>
<path d="M267.107 455.366C266.798 455.368 266.489 455.347 266.183 455.304C265.884 455.262 265.614 455.102 265.433 454.859C265.251 454.616 265.172 454.311 265.214 454.009C265.256 453.708 265.415 453.436 265.656 453.253C265.896 453.07 266.2 452.991 266.498 453.033C267.913 453.17 269.332 452.821 270.525 452.043C271.718 451.265 272.615 450.103 273.071 448.746C273.121 448.601 273.199 448.468 273.3 448.354C273.402 448.24 273.526 448.149 273.664 448.084C273.802 448.02 273.951 447.985 274.103 447.98C274.255 447.976 274.407 448.002 274.548 448.058C274.69 448.114 274.819 448.198 274.927 448.306C275.035 448.413 275.121 448.542 275.179 448.684C275.236 448.825 275.265 448.977 275.263 449.131C275.261 449.284 275.228 449.435 275.166 449.575C274.581 451.262 273.492 452.724 272.049 453.761C270.605 454.798 268.879 455.359 267.107 455.366Z" fill="#E50046"/>
<path d="M252.699 416.771C252.465 416.771 252.237 416.698 252.046 416.561C251.856 416.425 251.712 416.232 251.635 416.01C249.782 410.69 252.851 406.982 254.732 405.79C254.983 405.646 255.279 405.604 255.559 405.674C255.839 405.743 256.082 405.918 256.238 406.162C256.394 406.407 256.451 406.703 256.397 406.988C256.343 407.274 256.183 407.528 255.949 407.698C255.78 407.811 252.046 410.355 253.758 415.272C253.857 415.555 253.84 415.867 253.712 416.139C253.583 416.41 253.352 416.619 253.071 416.719C252.951 416.758 252.825 416.775 252.699 416.771Z" fill="#E50046"/>
<path d="M472.477 126.961C470.489 143.994 452.854 182.981 414.042 182.981C375.23 182.981 361.661 140.576 361.847 122.799C362.011 105.511 364.1 27.4792 411.367 25.9236C488.94 23.3801 473.35 119.489 472.477 126.961Z" fill="#FEDFBF"/>
<path d="M474.324 49.8146C474.324 56.0365 471.872 62.0035 467.508 66.4031C463.143 70.8026 457.224 73.2742 451.052 73.2742C447.802 73.2742 441.809 72.468 441.809 72.468C441.809 72.468 393.54 80.5755 362.63 61.5615C362.394 61.4195 362.163 61.2719 361.926 61.1186L361.842 61.0618C357.797 58.4365 354.372 54.9493 351.809 50.8456C349.246 46.742 347.606 42.1218 347.006 37.3104C346.405 32.499 346.859 27.6134 348.334 22.9976C349.809 18.3819 352.27 14.1483 355.544 10.595C358.818 7.04171 362.824 4.25509 367.282 2.4314C371.739 0.607711 376.539 -0.208693 381.344 0.0396847C386.148 0.288062 390.84 1.59518 395.089 3.86899C399.338 6.14279 403.041 9.32799 405.937 13.2003C423.498 30.9028 441.95 27.8199 445.211 27.1045C445.543 27.0307 445.718 26.9796 445.718 26.9796C449.134 26.1733 452.686 26.1551 456.11 26.9265C459.534 27.6978 462.741 29.2387 465.491 31.4342C468.241 33.6297 470.464 36.423 471.994 39.6057C473.523 42.7884 474.32 46.2782 474.324 49.8146Z" fill="#47190F"/>
<path d="M441.815 72.468C441.815 72.468 431.114 95.0192 445.921 107.947C446.249 108.228 446.646 108.416 447.071 108.492C447.495 108.568 447.932 108.529 448.336 108.379C448.741 108.229 449.099 107.973 449.373 107.638C449.647 107.302 449.828 106.9 449.897 106.471C451.181 98.051 456.093 96.5237 462.778 97.5457C462.778 101.951 455.051 135.909 468.58 141.864C476.104 130.447 488.354 97.188 488.354 66.3533C488.354 35.5186 432.871 39.1068 441.815 72.468Z" fill="#47190F"/>
<path d="M452.274 117.184C455.467 119.353 468.968 121.681 468.968 106.482C468.968 94.4685 456.267 96.9722 453.941 98.6982C451.288 105.67 452.274 117.184 452.274 117.184Z" fill="#FEDFBF"/>
<path d="M457.343 112.04C457.099 112.04 456.862 111.961 456.667 111.813C456.472 111.666 456.33 111.459 456.261 111.223C456.166 110.888 453.952 103.064 458.914 101.276C459.587 100.989 460.313 100.852 461.043 100.875C461.773 100.897 462.49 101.079 463.144 101.406C465.194 102.502 465.831 104.909 465.859 105.012C465.902 105.158 465.916 105.312 465.899 105.463C465.882 105.615 465.835 105.762 465.761 105.895C465.686 106.028 465.586 106.145 465.466 106.238C465.346 106.331 465.208 106.398 465.062 106.437C464.915 106.475 464.762 106.483 464.612 106.46C464.462 106.437 464.319 106.384 464.189 106.304C464.06 106.224 463.949 106.119 463.861 105.994C463.773 105.87 463.711 105.729 463.679 105.579C463.423 104.686 462.855 103.915 462.08 103.411C461.701 103.238 461.29 103.148 460.874 103.148C460.459 103.148 460.048 103.238 459.669 103.411C456.74 104.472 458.402 110.525 458.424 110.587C458.508 110.876 458.474 111.187 458.331 111.451C458.187 111.715 457.945 111.911 457.658 111.995C457.555 112.024 457.449 112.039 457.343 112.04Z" fill="#FFB776"/>
<path d="M461.562 109.979C461.316 109.98 461.076 109.899 460.88 109.75C460.683 109.6 460.541 109.389 460.475 109.151C460.25 108.394 459.77 107.741 459.117 107.305C458.814 107.157 458.485 107.074 458.148 107.06C457.812 107.047 457.477 107.103 457.163 107.226C456.877 107.313 456.568 107.282 456.305 107.14C456.041 106.998 455.844 106.756 455.758 106.468C455.671 106.18 455.702 105.868 455.843 105.603C455.984 105.337 456.223 105.139 456.51 105.051C457.113 104.836 457.755 104.749 458.394 104.796C459.033 104.843 459.655 105.022 460.221 105.324C461.401 106.056 462.267 107.206 462.649 108.549C462.726 108.839 462.686 109.149 462.537 109.41C462.388 109.671 462.143 109.861 461.855 109.94C461.759 109.967 461.661 109.98 461.562 109.979Z" fill="#FFB776"/>
<path d="M405.593 149.887C404.151 149.872 402.729 149.553 401.416 148.95C400.104 148.348 398.931 147.476 397.973 146.389C397.697 146.042 397.567 145.599 397.611 145.156C397.655 144.713 397.869 144.305 398.208 144.019C398.546 143.733 398.983 143.593 399.423 143.627C399.863 143.662 400.273 143.869 400.564 144.204C401.494 145.242 402.718 145.969 404.07 146.285C405.422 146.602 406.839 146.494 408.128 145.975C412.538 144.232 411.84 139.491 411.806 139.293C411.769 139.071 411.775 138.845 411.825 138.627C411.875 138.408 411.967 138.202 412.096 138.019C412.356 137.65 412.751 137.401 413.194 137.325C413.637 137.25 414.092 137.355 414.458 137.618C414.824 137.88 415.071 138.278 415.146 138.725C415.563 141.365 414.892 146.935 409.356 149.12C408.161 149.612 406.884 149.872 405.593 149.887Z" fill="#FFB776"/>
<path d="M387.164 126.422C384.765 126.422 382.76 125.104 382.095 122.941C381.8 121.773 381.787 120.55 382.056 119.376C383.853 112.426 390.747 105.869 391.039 105.591C391.201 105.435 391.391 105.312 391.6 105.231C391.809 105.15 392.031 105.111 392.255 105.117C392.478 105.123 392.698 105.174 392.902 105.266C393.106 105.359 393.29 105.491 393.443 105.656C393.596 105.82 393.715 106.014 393.793 106.225C393.871 106.436 393.907 106.661 393.898 106.886C393.889 107.112 393.836 107.333 393.742 107.537C393.647 107.742 393.514 107.925 393.349 108.077C393.281 108.14 386.872 114.249 385.328 120.233C385.213 120.795 385.213 121.375 385.328 121.936C385.694 123.134 387.266 123.072 388.043 122.896L395.219 121.124C395.434 121.071 395.658 121.062 395.877 121.096C396.097 121.13 396.307 121.208 396.497 121.324C396.686 121.44 396.851 121.593 396.982 121.774C397.113 121.954 397.208 122.159 397.26 122.376C397.313 122.594 397.322 122.819 397.288 123.04C397.254 123.261 397.178 123.474 397.062 123.665C396.947 123.856 396.795 124.022 396.616 124.154C396.437 124.286 396.234 124.381 396.018 124.434L388.854 126.211C388.301 126.349 387.734 126.42 387.164 126.422Z" fill="#FFB776"/>
<path d="M410.454 103.643C410.559 102.833 410.936 102.083 411.522 101.518C412.108 100.953 412.868 100.607 413.676 100.538C416.655 100.157 417.247 103.218 417.016 104.359C416.771 105.194 416.226 105.907 415.488 106.36C414.75 106.812 413.87 106.971 413.022 106.806C410.662 106.488 410.178 104.626 410.454 103.643Z" fill="#2A190F"/>
<path d="M383.171 99.9246C383.066 99.1141 382.689 98.3642 382.103 97.7993C381.517 97.2344 380.757 96.8885 379.949 96.819C376.97 96.4386 376.379 99.4931 376.609 100.634C376.854 101.47 377.399 102.184 378.137 102.637C378.875 103.091 379.754 103.251 380.603 103.087C382.963 102.763 383.447 100.89 383.171 99.9246Z" fill="#2A190F"/>
<path d="M420.609 95.2349C420.26 95.2348 419.92 95.1257 419.635 94.9226C418.128 93.8446 416.372 93.1742 414.535 92.9754C412.698 92.7766 410.841 93.0561 409.142 93.7871L408.37 94.1108C407.957 94.2862 407.492 94.289 407.077 94.1187C406.661 93.9483 406.331 93.6187 406.157 93.2024C405.982 92.786 405.98 92.317 406.149 91.8986C406.318 91.4801 406.645 91.1465 407.058 90.9711L407.829 90.6475C410.058 89.692 412.492 89.3276 414.899 89.589C417.307 89.8503 419.608 90.7288 421.583 92.1406C421.879 92.3485 422.1 92.646 422.216 92.9898C422.332 93.3336 422.336 93.7057 422.227 94.0518C422.118 94.3979 421.903 94.7 421.611 94.9138C421.32 95.1277 420.969 95.2422 420.609 95.2406V95.2349Z" fill="#47190F"/>
<path d="M385.891 92.3507C385.559 92.3509 385.233 92.2522 384.956 92.0669L384.112 91.4991C382.897 90.689 381.497 90.2062 380.044 90.0969C378.592 89.9876 377.136 90.2553 375.815 90.8746C375.409 91.0658 374.944 91.0865 374.522 90.9321C374.101 90.7777 373.758 90.4609 373.568 90.0513C373.378 89.6417 373.358 89.173 373.511 88.7481C373.664 88.3233 373.978 87.9772 374.385 87.786C376.232 86.9209 378.268 86.5477 380.3 86.7017C382.331 86.8558 384.289 87.5321 385.987 88.666L386.826 89.2338C387.129 89.4361 387.359 89.7312 387.482 90.0755C387.605 90.4198 387.615 90.7949 387.51 91.1453C387.405 91.4957 387.191 91.8027 386.899 92.0208C386.608 92.2389 386.254 92.3566 385.891 92.3564V92.3507Z" fill="#47190F"/>
<path d="M395.281 65.9275C395.934 66.3136 365.339 63.2931 357.499 45.1931C351.14 30.494 357.437 13.1492 366.347 13.1492C375.573 13.1492 372.019 24.7711 373.822 34.122C376.283 46.8567 382.794 58.4786 395.281 65.9275Z" fill="#59271F"/>
<path d="M440.035 37.1708C439.691 37.1708 452.527 31.198 459.81 36.5463C465.724 40.8839 467.222 49.2469 463.685 51.3079C460.03 53.471 458.757 48.0262 455.884 44.7389C451.975 40.3105 446.709 37.1992 440.035 37.1708Z" fill="#3A140D"/>
<path d="M111.694 127.432C113.682 144.465 131.317 183.452 170.129 183.452C208.941 183.452 222.51 141.047 222.329 123.271C222.16 105.982 220.077 27.9505 172.805 26.3948C95.2365 23.8456 110.821 119.961 111.694 127.432Z" fill="#FEDFBF"/>
<path d="M80.9192 216.291C108.184 216.291 130.286 194.011 130.286 166.528C130.286 139.044 108.184 116.764 80.9192 116.764C53.6544 116.764 31.552 139.044 31.552 166.528C31.552 194.011 53.6544 216.291 80.9192 216.291Z" fill="#47190F"/>
<path d="M111.655 127.08C108.456 129.255 94.9211 131.577 94.9549 116.384C94.9549 104.654 106.118 108.554 109.988 108.583C112.646 115.56 111.655 127.08 111.655 127.08Z" fill="#FEDFBF"/>
<path d="M106.603 121.936C106.496 121.938 106.389 121.923 106.287 121.891C106 121.807 105.758 121.611 105.615 121.347C105.471 121.083 105.437 120.772 105.521 120.483C105.521 120.403 107.211 114.362 104.271 113.312C103.892 113.14 103.481 113.051 103.065 113.051C102.65 113.051 102.239 113.14 101.86 113.312C101.083 113.819 100.516 114.594 100.266 115.492C100.183 115.774 99.9942 116.011 99.7404 116.156C99.4866 116.3 99.1873 116.34 98.9052 116.266C98.6231 116.193 98.3802 116.012 98.2276 115.762C98.0749 115.512 98.0243 115.211 98.0865 114.925C98.0865 114.828 98.7454 112.415 100.796 111.325C101.45 110.996 102.167 110.813 102.899 110.789C103.63 110.766 104.357 110.902 105.031 111.189C109.988 112.977 107.78 120.806 107.684 121.136C107.613 121.368 107.469 121.572 107.274 121.716C107.08 121.86 106.844 121.937 106.603 121.936Z" fill="#FFB776"/>
<path d="M102.361 119.881C102.263 119.879 102.164 119.866 102.069 119.841C101.925 119.802 101.791 119.736 101.673 119.644C101.556 119.553 101.457 119.439 101.384 119.309C101.31 119.18 101.262 119.036 101.243 118.888C101.225 118.74 101.235 118.589 101.274 118.445C101.659 117.103 102.527 115.955 103.708 115.225C104.273 114.923 104.894 114.742 105.532 114.694C106.17 114.646 106.81 114.732 107.414 114.947C107.555 114.991 107.687 115.061 107.802 115.156C107.916 115.251 108.011 115.367 108.081 115.499C108.15 115.63 108.194 115.774 108.208 115.923C108.223 116.071 108.208 116.221 108.166 116.364C108.123 116.507 108.052 116.639 107.958 116.755C107.865 116.87 107.749 116.966 107.619 117.036C107.488 117.107 107.345 117.15 107.198 117.165C107.051 117.18 106.902 117.165 106.76 117.122C106.445 116.999 106.108 116.944 105.771 116.96C105.433 116.975 105.103 117.061 104.8 117.213C104.157 117.649 103.68 118.294 103.448 119.041C103.384 119.282 103.243 119.495 103.046 119.647C102.85 119.799 102.609 119.881 102.361 119.881Z" fill="#FFB776"/>
<path d="M198.527 37.3865C198.527 37.3865 212.743 42.9108 215.526 69.9585C210.457 60.3692 202.971 47.0383 197.322 42.871C198.004 39.9074 198.527 37.3865 198.527 37.3865Z" fill="#47190F"/>
<path d="M198.522 37.3865C188.632 24.8329 174.574 16.3048 158.94 13.3735C143.305 10.4422 127.146 13.3051 113.44 21.4348C99.7334 29.5644 89.4033 42.4132 84.3526 57.6139C79.3019 72.8145 79.8708 89.343 85.9544 104.154C97.6944 108.075 110.13 109.421 122.428 108.103C134.726 106.784 146.603 102.831 157.262 96.5089C167.921 90.1866 177.117 81.6408 184.233 71.4442C191.349 61.2476 196.22 49.6357 198.522 37.3865Z" fill="#47190F"/>
<path d="M191.555 124.338C191.107 124.338 190.677 124.158 190.36 123.839C190.043 123.52 189.865 123.086 189.865 122.635C189.865 122.183 190.043 121.75 190.36 121.43C190.677 121.111 191.107 120.931 191.555 120.931C192.968 120.931 197.885 120.795 201.631 119.012C201.81 118.922 201.961 118.783 202.067 118.612C202.173 118.441 202.231 118.244 202.233 118.042C202.254 117.812 202.212 117.581 202.113 117.373C202.014 117.165 201.861 116.988 201.67 116.861C195.199 112.886 189.55 103.978 189.313 103.598C189.181 103.409 189.088 103.196 189.04 102.97C188.992 102.744 188.99 102.511 189.034 102.284C189.079 102.058 189.168 101.843 189.298 101.652C189.427 101.461 189.594 101.299 189.787 101.176C189.98 101.052 190.197 100.969 190.423 100.932C190.649 100.896 190.88 100.905 191.103 100.962C191.325 101.018 191.533 101.119 191.716 101.259C191.898 101.399 192.05 101.574 192.163 101.775C192.219 101.861 197.638 110.388 203.428 113.954C204.142 114.399 204.723 115.031 205.109 115.783C205.494 116.535 205.671 117.378 205.618 118.223C205.589 119.042 205.336 119.836 204.888 120.519C204.44 121.202 203.814 121.747 203.078 122.095C198.82 124.122 193.594 124.338 191.555 124.338Z" fill="#FFB776"/>
<path d="M189.009 145.084C183.94 145.084 181.124 141.041 180.29 138.725C180.177 138.31 180.224 137.867 180.421 137.486C180.619 137.104 180.952 136.812 181.355 136.668C181.757 136.525 182.198 136.54 182.59 136.71C182.982 136.881 183.295 137.195 183.467 137.589C183.534 137.771 185.258 142.262 189.904 141.637C191.278 141.459 192.565 140.862 193.594 139.926C194.622 138.991 195.343 137.762 195.661 136.403C195.745 135.958 196.001 135.566 196.372 135.312C196.744 135.058 197.2 134.963 197.64 135.049C198.081 135.134 198.47 135.392 198.722 135.766C198.974 136.14 199.068 136.6 198.984 137.044C198.475 139.329 197.211 141.372 195.398 142.837C193.585 144.302 191.332 145.103 189.009 145.106V145.084Z" fill="#FF6347"/>
<path d="M175.446 97.6819C175.263 96.8854 174.816 96.176 174.177 95.6719C173.539 95.1678 172.748 94.8993 171.937 94.9113C168.941 94.8261 168.642 97.926 168.986 99.0388C169.31 99.8455 169.92 100.502 170.698 100.879C171.476 101.257 172.365 101.33 173.193 101.083C175.519 100.538 175.818 98.63 175.446 97.6819Z" fill="#2A190F"/>
<path d="M202.239 91.2833C202.265 90.4654 202.568 89.6811 203.098 89.0611C203.627 88.4412 204.352 88.0232 205.151 87.8768C208.074 87.2012 208.958 90.1876 208.84 91.3458C208.681 92.2031 208.21 92.9696 207.519 93.4948C206.828 94.02 205.967 94.266 205.106 94.1845C202.723 94.0994 202.059 92.2883 202.239 91.2833Z" fill="#2A190F"/>
<path d="M198.64 82.6194C198.514 82.6194 198.39 82.5914 198.276 82.5374C198.162 82.4834 198.061 82.4048 197.981 82.3071C197.911 82.2203 197.859 82.1204 197.827 82.0132C197.796 81.906 197.785 81.7935 197.797 81.6823C197.808 81.571 197.841 81.4632 197.894 81.3648C197.947 81.2665 198.019 81.1796 198.105 81.1092L198.882 80.4676C200.352 79.2657 202.102 78.4626 203.966 78.1347C205.83 77.8068 207.746 77.9649 209.533 78.594C209.744 78.6693 209.917 78.8262 210.014 79.0301C210.111 79.234 210.123 79.4682 210.048 79.6813C209.974 79.8944 209.818 80.0688 209.616 80.1662C209.413 80.2636 209.181 80.2761 208.97 80.2008C207.458 79.6678 205.837 79.5336 204.259 79.8109C202.682 80.0881 201.201 80.7677 199.958 81.7848L199.175 82.4264C199.025 82.5532 198.835 82.6217 198.64 82.6194Z" fill="#47190F"/>
<path d="M89.469 88.348C87.8807 81.4725 89.469 59.9604 98.2554 47.1859C107.521 33.7245 118.278 25.9009 130.585 22.7101C144.209 19.1673 148.045 22.4262 149.205 24.9811C150.14 27.0421 149.994 32.8218 138.808 36.4838C124.693 41.0656 95.1858 59.3699 89.469 88.348Z" fill="#59271F"/>
<path d="M8.40895 168.855C7.0403 160.214 10.4197 140.468 19.2004 127.688C25.1144 119.086 31.4225 110.144 43.3687 105.682C58.0126 100.186 60.8288 105.403 61.989 107.953C62.924 110.014 62.5523 115.123 51.5918 119.455C37.6857 124.906 14.7622 141.001 8.40895 168.855Z" fill="#59271F"/>
<path d="M103.144 201.126C98.5203 204.329 86.1236 207.832 76.3008 206.208C69.6716 205.112 62.7495 203.874 56.8412 198.095C49.5643 191.003 51.8172 187.887 52.9718 186.507C53.9068 185.371 56.9764 184.19 62.5467 189.431C69.5646 196.091 85.2449 205.118 103.144 201.126Z" fill="#3A140D"/>
<path d="M220.713 96.853C218.398 97.4548 214.749 98.7606 213.814 101.1C212.422 104.597 213.678 107.646 220.184 105.136L221.49 104.643C221.282 102.196 221.029 99.5555 220.713 96.853Z" fill="#FFD2B3"/>
<path d="M161.422 117.32C161.422 117.32 168.406 114.431 171.397 116.69C174.387 118.95 174.883 122.215 168.017 123.475C161.152 124.735 158.814 125.712 158.69 122.697C158.566 119.682 160.031 117.735 161.422 117.32Z" fill="#FFD2B3"/>
</g>
<defs>
<clipPath id="clip0">
<rect width="508" height="474" fill="white"/>
</clipPath>
</defs>
</svg>
