<svg width="16" height="16" viewBox="0 0 16 16" fill="none" xmlns="http://www.w3.org/2000/svg">
<path fill-rule="evenodd" clip-rule="evenodd" d="M0.233497 4.10994C0.335219 2.14073 1.93785 0 4.2094 0C7.774 0.136998 9.22534 0.321072 11.887 0.273996C14.1585 0.273996 15.7258 1.70308 15.7258 3.97294L16 11.7818C16 14.0517 14.4922 15.7528 12.1612 15.8918C9.73981 16.0361 6.04754 16.0361 4.64096 15.8918C2.03537 15.6244 0.259924 13.4506 0.0963974 11.7818C-0.130511 9.46626 0.0963976 6.76401 0.233497 4.10994ZM11.6128 8.08287C11.6128 10.8228 10.6617 11.5002 8.46815 11.5002C6.13745 11.5002 4.2094 10.1554 4.2094 7.78746C4.2094 5.41953 5.66822 4.38393 7.6369 4.38393C10.3789 4.38393 11.6128 6.11567 11.6128 8.08287ZM12.5725 4.65793C13.3951 4.65793 13.5322 4.16724 13.5322 3.56194C13.5322 2.95665 13.1782 2.46596 12.5725 2.46596C11.9668 2.46596 11.3386 2.73996 11.3386 3.56194C11.3386 4.16724 11.7499 4.65793 12.5725 4.65793Z" fill="#E50046"/>
</svg>
