<svg width="96" height="96" viewBox="0 0 96 96" fill="none" xmlns="http://www.w3.org/2000/svg">
<g clip-path="url(#clip0)">
<path d="M57.3959 65.4509C57.3959 58.9561 60.9067 58.3603 66.4746 52.1852C67.6625 50.8678 69.6553 48.337 68.8373 47.6021C68.1251 46.9621 66.4049 46.1814 62.0115 49.1131C57.7173 51.9786 53.0974 56.2676 53.0974 64.3012C53.0974 69.4182 54.604 88.3238 48.4839 88.3238C42.3639 88.3238 44.626 76.9913 43.3991 64.3012C42.4175 54.1492 35.7375 50.0318 32.1249 48.6673C30.2845 47.8486 29.2687 47.7504 28.7924 48.2952C28.4672 48.6673 27.7492 49.7707 30.1036 52.1852C32.647 54.7937 38.629 60.4811 38.9601 66.0196C39.4365 73.9904 30.1036 96 48.8929 96C65.6609 96 57.3959 73.6406 57.3959 65.4509Z" fill="#FFE600"/>
<path d="M3.98948 38.6681C9.05876 27.0907 20.1416 25.845 25.7948 26.3946C30.479 26.85 32.5051 29.2842 33.9891 32.0384C35.5744 34.9807 36.267 38.7997 35.1764 40.4671C33.3127 43.3167 28.5904 48.377 32.3178 53.1399C36.0452 57.9028 38.0969 62.4412 35.8589 68.894C33.0633 76.9542 21.6785 81.2641 10.8852 76.9542C7.16291 75.4678 3.41114 72.9502 1.66735 69.2543C-0.342892 64.9935 -0.223404 59.6685 0.414059 54.0178C0.99556 48.8633 1.90999 43.4174 3.98948 38.6681Z" fill="#FF6B00"/>
<path d="M11.8157 31.8691C8.79655 33.7018 4.72874 40.0031 6.83985 41.2315C7.82291 41.8626 9.65553 38.2574 11.8261 36.3124C14.9235 33.6572 16.8141 33.6927 16.782 32.1406C16.7627 31.2094 14.4896 30.2459 11.8157 31.8691Z" fill="#FFA361"/>
<path d="M64.4854 53.0553C60.7484 57.9179 58.6915 62.5513 60.9353 69.1391C62.5776 73.9613 67.0735 76.7516 72.7778 77.9438C76.8078 78.786 81.4929 79.1897 85.9728 77.3681C92.0297 74.9051 94.5836 68.6528 95.5644 61.2081C96.5199 53.9547 96.0212 45.5718 92.8861 38.2806C90.3987 32.4956 86.2784 29.5395 82.2475 27.7862C78.0427 25.9573 73.9187 25.4637 71.025 25.7502C61.3121 26.7117 59.44 36.4426 61.8726 40.2301C63.7411 43.1393 68.2223 48.1927 64.4854 53.0553Z" fill="#FF6B00"/>
<path d="M88.0822 72.8837C90.7546 70.5737 93.7182 63.6828 91.4324 62.8232C90.3581 62.3646 89.1503 66.2247 87.3333 68.5041C84.7204 71.6382 82.8502 71.9179 83.1399 73.443C83.3137 74.3581 85.7153 74.9296 88.0822 72.8837Z" fill="#FFA361"/>
</g>
<defs>
<clipPath id="clip0">
<rect width="96" height="96" fill="white"/>
</clipPath>
</defs>
</svg>
