<svg width="132" height="48" viewBox="0 0 132 48" fill="none" xmlns="http://www.w3.org/2000/svg">
<path d="M26.771 11.0911C27.4834 11.5064 28.2888 11.7373 29.1137 11.7628H29.8679C30.0411 11.757 30.209 11.7017 30.3515 11.6033C30.494 11.505 30.6051 11.3678 30.6714 11.2082C30.9009 10.7754 31.0932 10.324 31.2463 9.8588C31.4317 9.34121 31.6234 8.79897 31.8212 8.22593C31.9996 7.69905 32.2718 7.20854 32.6247 6.77792C32.8146 6.59032 32.9581 6.3613 33.0439 6.10893C33.1297 5.85656 33.1555 5.58776 33.1193 5.32375C32.9369 4.86459 32.6092 4.47733 32.1859 4.2208C31.6756 3.87519 31.1257 3.59178 30.5478 3.37664C29.9576 3.14615 29.3499 2.96277 28.7305 2.82824C28.2287 2.70263 27.7147 2.63237 27.1975 2.61874C26.7207 2.61967 26.2584 2.78269 25.8871 3.08087C25.4751 3.42387 25.1563 3.86459 24.9599 4.36252C24.713 4.97709 24.5952 5.63557 24.6137 6.29731C24.6285 7.1343 24.7659 7.96464 25.0217 8.762C25.3207 9.71483 25.938 10.5368 26.771 11.0911Z" fill="#E50046"/>
<path d="M54.8777 21.03C54.8102 19.2096 54.6036 17.3969 54.2596 15.6077C53.901 13.7838 53.5013 12.0709 53.0604 10.4688C52.6364 9.0783 52.1095 7.72105 51.4841 6.40821C50.9295 5.24556 50.276 4.13238 49.5308 3.08087C48.9485 2.2296 48.2423 1.46953 47.4353 0.825674C46.862 0.335257 46.1434 0.0452837 45.3893 0C44.9195 0.0369705 44.425 0.0985879 43.9058 0.178691C43.4233 0.247952 42.9556 0.395747 42.5212 0.616175C42.1327 0.825005 41.8113 1.13899 41.594 1.52195C41.4883 1.75532 41.4337 2.00842 41.4337 2.26444C41.4337 2.52047 41.4883 2.77356 41.594 3.00693C41.7728 3.7349 42.0715 4.42826 42.4779 5.05879C42.8982 5.73042 43.368 6.46367 43.8749 7.2647C44.3817 8.06572 44.901 8.97766 45.4388 9.99435C46.0384 11.1535 46.5149 12.3719 46.8605 13.6298C47.4535 15.7287 47.8488 17.8782 48.0411 20.0503C48.2167 21.8957 48.1981 23.7544 47.9855 25.5959C47.8526 26.9611 47.4447 28.2856 46.7863 29.4901C46.5846 29.9142 46.2697 30.2748 45.8761 30.5324C45.4825 30.79 45.0254 30.9346 44.5548 30.9504C43.8891 30.9148 43.256 30.6515 42.7622 30.2049C42.2047 29.7863 41.7606 29.2356 41.4703 28.6028C40.9864 27.2327 40.7357 25.7915 40.7286 24.3389C40.7186 23.1224 40.9279 21.9139 41.3467 20.7712C41.7031 19.7986 42.2685 18.9153 43.0033 18.1833C43.6616 17.5191 44.4719 17.0242 45.3646 16.7415C45.8962 16.5751 46.0507 16.1253 45.8096 15.3859C45.6567 14.9649 45.3498 14.6172 44.9504 14.4123C44.5154 14.1877 44.0309 14.0754 43.5411 14.0857C42.0169 14.0796 40.5115 14.4211 39.14 15.084C37.7824 15.7416 36.6415 16.772 35.8515 18.0539C34.9558 19.5488 34.4501 21.2435 34.3803 22.9833C34.3038 24.458 34.4433 25.9359 34.7945 27.3705C34.269 28.0606 33.7498 28.7137 33.2429 29.2868C32.4579 30.1741 31.71 30.6239 31.0053 30.6239C30.7548 30.6429 30.5056 30.5729 30.3019 30.4263C30.0983 30.2797 29.9533 30.0659 29.8926 29.8228C29.8032 28.7793 29.8032 27.7301 29.8926 26.6865C29.973 25.6698 30.0595 24.7702 30.1584 24C30.2573 23.0942 30.3624 22.3302 30.4799 21.6893C30.5973 21.0485 30.69 20.457 30.7766 19.9086C30.8557 19.3764 30.8867 18.8381 30.8693 18.3004C30.8435 17.7177 30.767 17.1384 30.6406 16.5689C30.475 16.1295 30.1966 15.7412 29.8332 15.4428C29.4698 15.1443 29.0341 14.9462 28.5698 14.8683C27.8093 14.6948 27.0226 14.6677 26.2518 14.7882C25.845 14.8502 25.4559 14.9969 25.1097 15.2188C24.7636 15.4407 24.4682 15.7327 24.2429 16.076C23.7025 16.8873 23.313 17.789 23.0931 18.7379C22.8159 19.8825 22.6667 21.0542 22.6481 22.2316C22.6216 23.4795 22.6608 24.7279 22.7655 25.9718C22.7964 26.3784 22.8459 26.7666 22.8953 27.1548V27.1979C22.6234 27.6354 22.2772 28.1037 21.9434 28.609C21.5614 29.1253 21.1218 29.5966 20.633 30.0139C20.2309 30.3567 19.7481 30.592 19.2298 30.6978C18.7994 30.7751 18.3628 30.8122 17.9255 30.8087C17.399 30.8034 16.8879 30.6307 16.4667 30.3158C15.9537 29.9317 15.4998 29.475 15.1192 28.9602C14.6563 28.3671 14.2251 27.75 13.8273 27.1117C13.4069 26.44 12.9928 25.7561 12.591 25.0537C15.1006 24.1787 16.9015 23.1189 17.9935 21.8742C18.517 21.31 18.871 20.6106 19.0152 19.8557C19.1595 19.1008 19.0882 18.3206 18.8095 17.6041C18.599 17.1412 18.2986 16.7244 17.9255 16.3779C17.4571 15.9352 16.8953 15.6026 16.2813 15.4044C15.544 15.2084 14.775 15.1602 14.0189 15.2626C13.6304 15.2911 13.2517 15.3974 12.9054 15.5753C12.5591 15.7532 12.2524 15.9989 12.0038 16.2978C11.5293 16.9 11.1035 17.5387 10.7304 18.208C10.3592 18.8724 9.91332 19.4925 9.40142 20.0565C8.83282 20.6415 8.05495 20.9782 7.23794 20.9931C7.29976 19.6539 7.42957 18.2737 7.62737 16.8524C7.82517 15.429 8.06007 14.0549 8.34441 12.7302C8.59609 11.5146 8.92016 10.315 9.31488 9.13787C9.59986 8.24293 9.98556 7.38302 10.4646 6.57458C10.7187 6.26265 10.8885 5.89107 10.9577 5.49523C11.027 5.09939 10.9934 4.69247 10.8602 4.31322C10.6307 3.74302 10.2758 3.23137 9.82175 2.81592C9.32792 2.34838 8.76763 1.95597 8.15897 1.65135C7.54612 1.33939 6.89296 1.11337 6.21802 0.979717C5.63632 0.846358 5.03185 0.846358 4.45015 0.979717C4.008 1.1143 3.60128 1.34491 3.25925 1.65495C2.91722 1.965 2.6484 2.34677 2.47212 2.77279C1.91226 3.93387 1.49708 5.15889 1.23584 6.42054C0.896349 8.00055 0.669134 9.60248 0.555893 11.2144C0.432266 12.9725 0.345727 14.7286 0.296276 16.4827C0.253006 18.2449 0.234462 19.9148 0.240644 21.5045C0.246825 23.0942 0.240644 24.4621 0.154105 25.5959C0.189085 26.7023 0.149849 27.8097 0.0366587 28.9109C-0.0766869 30.0167 0.0736906 31.1336 0.475535 32.1705C0.604949 32.6304 0.814154 33.0641 1.09367 33.4521C1.41998 33.9008 1.79293 34.3139 2.20632 34.6845C2.60649 35.051 3.04838 35.3694 3.52295 35.6334C3.89757 35.8577 4.32261 35.9848 4.75922 36.0031C5.04914 36.0304 5.34137 35.9868 5.61063 35.8763C5.87989 35.7657 6.11807 35.5914 6.30456 35.3684C6.63228 34.9021 6.8538 34.3701 6.9536 33.8095C7.06794 33.2 7.12382 32.581 7.1205 31.961V30.3959C7.1205 29.7797 7.1205 29.1081 7.16995 28.4365C7.20009 27.7641 7.26404 27.0937 7.36157 26.4277C7.96735 27.4917 8.54221 28.5679 9.08617 29.6565C9.60389 30.7092 10.2251 31.7082 10.9406 32.6388C11.6018 33.5175 12.4138 34.2727 13.3389 34.8693C14.3495 35.4766 15.5093 35.7923 16.6892 35.7813C17.9416 35.7685 19.1673 35.4194 20.2374 34.7707C21.3836 34.1052 22.4251 33.2747 23.328 32.306C23.4949 32.1212 23.6556 31.9302 23.8102 31.7391C23.8102 31.7884 23.8102 31.8377 23.8534 31.8747C24.1585 32.9641 24.7521 33.9517 25.5719 34.7338C26.2827 35.3499 27.3892 35.6334 28.9036 35.6272C30.0268 35.5901 31.1231 35.2746 32.0932 34.7091C33.2056 34.1145 34.2292 33.3678 35.1344 32.4909C35.5045 32.1351 35.8495 31.7543 36.1667 31.351C36.6552 32.2265 37.3054 33.0022 38.0829 33.637C39.2528 34.5939 40.6524 35.231 42.1441 35.4855C42.6197 35.5497 43.0984 35.5888 43.5782 35.6026C44.0576 35.6194 44.5377 35.5926 45.0122 35.5225C46.7801 35.4303 48.4951 34.8895 49.9944 33.9512C51.2717 33.1115 52.3309 31.9817 53.0851 30.6547C53.8605 29.268 54.3757 27.7521 54.6057 26.1813C54.8649 24.4772 54.956 22.7518 54.8777 21.03Z" fill="#E50046"/>
<path d="M131.928 39.0778C131.742 37.9728 131.157 36.9736 130.284 36.2681C129.355 35.5162 128.295 34.9417 127.156 34.5736C125.941 34.1746 124.681 33.9262 123.404 33.8342C122.232 33.7317 121.053 33.7317 119.881 33.8342C120.075 31.5256 120.281 29.5826 120.499 28.0052C120.717 26.4277 120.923 25.0722 121.117 23.9384C121.286 22.8046 121.41 21.8003 121.488 20.9253C121.568 20.0404 121.588 19.1511 121.55 18.2634C121.382 17.2675 120.851 16.3681 120.06 15.7371C119.2 15.1804 118.185 14.9106 117.161 14.9669C116.612 14.9179 116.06 15.0366 115.58 15.3073C115.1 15.5781 114.713 15.988 114.472 16.4827C113.928 17.7394 113.616 19.0837 113.551 20.4509C113.322 21.7263 113.063 22.9525 112.785 24.1479C112.533 25.2378 112.192 26.3053 111.765 27.3397C111.43 28.1687 110.941 28.9274 110.324 29.5764C110.075 29.8399 109.774 30.0501 109.44 30.1941C109.107 30.3382 108.747 30.4131 108.384 30.4144C108.212 30.4197 108.042 30.3754 107.895 30.2869C107.748 30.1983 107.63 30.0693 107.555 29.9153C107.353 29.5311 107.224 29.1135 107.172 28.6829C107.102 28.1932 107.076 27.6985 107.092 27.2041C107.093 26.8598 107.118 26.516 107.166 26.1751C107.241 25.1683 107.396 24.169 107.629 23.1867C107.846 22.3302 108.044 21.56 108.248 20.876C108.452 20.1921 108.569 19.5512 108.668 18.9659C108.772 18.354 108.772 17.7292 108.668 17.1173C108.629 16.8097 108.561 16.5064 108.464 16.2116C108.351 15.8597 108.151 15.5419 107.883 15.2873C107.527 14.9611 107.105 14.7133 106.647 14.5602C105.92 14.3383 105.162 14.2404 104.403 14.2706C103.874 14.2631 103.354 14.4034 102.902 14.6757C102.45 14.948 102.083 15.3414 101.844 15.8111C101.19 16.977 100.758 18.2534 100.57 19.5759C100.318 21.136 100.213 22.7161 100.255 24.2958C100.255 25.1584 100.323 25.9595 100.385 26.7173C99.7444 27.5761 99.0059 28.3578 98.1843 29.0465C96.7402 30.219 94.9409 30.8704 93.0785 30.895C91.8931 30.9033 90.7487 30.4629 89.8765 29.6627C89.1493 28.878 88.6345 27.9216 88.3807 26.8837C89.8371 26.8918 91.284 26.65 92.6582 26.169C93.8686 25.7535 94.9873 25.1091 95.9528 24.2711C96.8066 23.5295 97.4467 22.5746 97.8072 21.5045C98.1547 20.3963 98.1243 19.2047 97.7207 18.1155C97.2581 16.8345 96.3903 15.7381 95.2482 14.9915C93.8649 14.1462 92.2573 13.738 90.6369 13.8208C89.4314 13.8095 88.2299 13.9587 87.064 14.2645C86.105 14.5144 85.1884 14.9048 84.3442 15.4229C83.6162 15.8809 82.9654 16.4507 82.4157 17.1112C81.9166 17.7156 81.518 18.3959 81.235 19.1261C80.723 20.5746 80.4983 22.1086 80.5736 23.6426C80.608 24.5881 80.728 25.5285 80.9321 26.4524L80.5056 27.2103C79.97 28.2027 79.2481 29.0834 78.3792 29.8044C77.7773 30.3623 77.0088 30.7086 76.191 30.7903C75.9271 30.8116 75.6643 30.7374 75.4508 30.5812C75.2374 30.425 75.0876 30.1973 75.0289 29.9399C74.7859 29.0297 74.7647 28.0748 74.9671 27.1548C75.1649 26.0334 75.4142 24.8688 75.7151 23.6611C76.0159 22.4534 76.2549 21.2806 76.4321 20.1428C76.62 19.1789 76.5905 18.1855 76.3456 17.2344C76.1595 16.7662 75.8626 16.3497 75.4802 16.0206C75.0815 15.6507 74.6319 15.3394 74.145 15.0963C73.6459 14.8512 73.1215 14.6611 72.5811 14.5294C72.0701 14.3991 71.5447 14.3329 71.0172 14.3322C70.3778 14.3409 69.7468 14.4793 69.1628 14.7389C68.507 15.0221 67.8849 15.3776 67.3084 15.7987C66.6903 16.2528 66.1189 16.7667 65.6023 17.333C65.0815 17.9072 64.6119 18.5258 64.1992 19.1815C64.2029 18.7666 64.2526 18.3533 64.3475 17.9492C64.4464 17.5117 64.5453 17.105 64.6442 16.7168C64.7431 16.3286 64.8235 15.9897 64.8915 15.6878C64.9524 15.4757 64.9692 15.2535 64.9409 15.0347C64.8093 14.6982 64.5676 14.4159 64.2548 14.2336C63.8712 13.9867 63.4552 13.7938 63.0185 13.6606C62.5419 13.5064 62.0512 13.3991 61.5536 13.3402C61.0946 13.2777 60.6321 13.2447 60.1689 13.2416C59.8976 13.2557 59.6341 13.3369 59.4021 13.4778C59.1701 13.6187 58.9769 13.8149 58.8399 14.0488C58.3991 14.7067 58.0615 15.4277 57.8386 16.1869C57.5288 17.1935 57.3034 18.224 57.1648 19.2678C56.9975 20.4935 56.9025 21.728 56.8804 22.9648C56.8499 24.2537 56.8871 25.5433 56.9917 26.8283C57.0833 28.0732 57.2713 29.3093 57.5542 30.5253V30.476C57.6965 30.9772 57.8806 31.4657 58.1044 31.9363C58.2876 32.3581 58.494 32.7695 58.7225 33.1687C59.1323 33.9517 59.7819 34.5842 60.5769 34.9741C61.0247 35.1797 61.5026 35.3129 61.9924 35.3684C62.6848 35.4177 63.3798 35.3211 64.0323 35.085C64.2063 34.9836 64.3418 34.8277 64.4178 34.6417C64.4938 34.4556 64.506 34.2497 64.4526 34.056C64.3537 33.1502 64.2795 32.0226 64.2424 30.667C64.2052 29.3152 64.2859 27.9628 64.4835 26.6249C64.6429 25.3795 64.9932 24.1659 65.522 23.0265C65.9487 22.0391 66.7514 21.2612 67.7535 20.8637C68.2299 20.6654 68.754 20.6097 69.2617 20.7035C69.4021 21.396 69.3916 22.1104 69.2308 22.7985C69.0701 23.7166 68.8785 24.7148 68.6621 25.7869C68.4444 26.8728 68.2815 27.969 68.1738 29.0711C68.0466 30.0728 68.1265 31.0899 68.4087 32.0596C68.7954 33.1391 69.5679 34.0386 70.5783 34.5859C71.7162 35.1962 72.9957 35.496 74.2872 35.4547C75.4372 35.4225 76.5644 35.1274 77.5818 34.5921C78.7242 34.0276 79.7813 33.3057 80.722 32.4478C81.3729 31.8563 81.9612 31.1997 82.4775 30.4883C82.665 30.8083 82.8714 31.117 83.0956 31.4126C83.7856 32.2422 84.5936 32.9667 85.494 33.563C86.4267 34.1722 87.4484 34.6336 88.5228 34.931C89.6534 35.2472 90.8226 35.4048 91.9968 35.3992C93.5954 35.4075 95.1817 35.1213 96.676 34.5551C98.0435 34.0398 99.3172 33.3051 100.447 32.38C100.763 32.1202 101.065 31.8425 101.349 31.5482C101.638 32.2632 102.032 32.9318 102.517 33.5322C103.494 34.7153 104.922 35.3048 106.801 35.3007C107.532 35.2994 108.256 35.1679 108.94 34.9125C109.615 34.6657 110.256 34.3366 110.85 33.9328C111.431 33.5345 111.969 33.0782 112.457 32.571C112.918 32.0955 113.345 31.5891 113.737 31.0552C113.678 31.6221 113.655 32.1922 113.669 32.762C113.682 33.3646 113.659 33.9675 113.601 34.5674C112.278 34.8453 110.994 35.2797 109.774 35.8614C108.725 36.3536 107.766 37.0181 106.937 37.827C106.221 38.5217 105.665 39.3624 105.305 40.2917C104.961 41.198 104.883 42.1836 105.083 43.1322C105.192 43.7593 105.432 44.3569 105.785 44.8872C106.138 45.4175 106.598 45.8689 107.135 46.2131C108.26 46.9833 109.867 47.2421 111.944 47.0018C112.414 46.934 112.884 46.8478 113.353 46.7492C114.307 46.5281 115.205 46.1144 115.992 45.5336C116.778 44.9528 117.437 44.2173 117.928 43.3725C118.917 41.4121 119.51 39.2764 119.671 37.0876L120.122 37.0383C121.236 37.0229 122.342 37.2325 123.373 37.6544C124.609 38.2778 125.671 39.1965 126.464 40.3286C126.904 40.9717 127.542 41.4541 128.281 41.7027C128.908 41.9384 129.58 42.031 130.247 41.9738C130.571 41.9606 130.884 41.8564 131.151 41.6732C131.418 41.49 131.627 41.2354 131.755 40.9387C132.005 40.3512 132.065 39.701 131.928 39.0778ZM87.5647 23.963C87.4636 23.1188 87.4782 22.2648 87.608 21.4244C87.7226 20.7143 87.9305 20.0224 88.2261 19.3664C88.4521 18.8357 88.7943 18.362 89.2275 17.98C89.5891 17.6598 90.0544 17.4804 90.538 17.4747C90.7364 17.4616 90.9354 17.4905 91.1218 17.5596C91.3083 17.6286 91.4779 17.7362 91.6197 17.8752C91.8854 18.1674 92.0949 18.5058 92.2378 18.8734C92.442 19.4828 92.4614 20.1387 92.2935 20.7589C92.1353 21.3983 91.8283 21.9915 91.3972 22.4904C90.9495 23.0022 90.3917 23.4066 89.7653 23.6734C89.0717 23.9672 88.311 24.0673 87.5647 23.963ZM113.551 40.0514C113.501 40.6235 113.385 41.188 113.205 41.7335C113.066 42.1739 112.825 42.5751 112.5 42.9043C112.143 43.2226 111.692 43.4172 111.215 43.4588C111.052 43.4993 110.881 43.4905 110.723 43.4334C110.566 43.3763 110.429 43.2736 110.331 43.1384C110.119 42.8652 109.973 42.5467 109.904 42.208C109.858 42.1745 109.826 42.1244 109.815 42.0682C109.805 42.0119 109.817 41.9538 109.849 41.9061C109.839 41.4344 109.938 40.9669 110.139 40.5396C110.339 40.1123 110.635 39.7366 111.004 39.4414C111.799 38.8184 112.702 38.3463 113.669 38.0488C113.665 38.7179 113.626 39.3864 113.551 40.0514Z" fill="#E50046"/>
<path d="M7.4173 45.8927H6.93515V42.0416C6.93515 41.8691 6.87952 41.8136 6.70644 41.8136H3.61576C3.44268 41.8136 3.38705 41.8691 3.38705 42.0416V43.465C3.38705 45.1964 3.08416 45.6401 2.76891 45.8927H2.47221C2.31149 45.8927 2.25586 45.9482 2.25586 46.1269V47.7597C2.25586 47.9261 2.31149 47.9815 2.47221 47.9815H2.84309C3.00999 47.9815 3.07798 47.9261 3.07798 47.7536V46.6876H6.7868V47.772C6.7868 47.9446 6.84243 48 7.01551 48H7.4173C7.59038 48 7.64601 47.9446 7.64601 47.7782V46.1269C7.63983 45.9482 7.58419 45.8927 7.4173 45.8927ZM6.08212 45.8927H3.70848C3.98046 45.4984 4.17826 44.876 4.17208 43.5081V42.6085H6.06976L6.08212 45.8927Z" fill="#191919"/>
<path d="M12.2202 41.6534C10.8232 41.6534 10.0876 42.4051 10.0938 43.6806V44.8452C10.0938 45.9974 10.7119 46.8046 12.2016 46.7984C12.5953 46.8405 12.9929 46.7716 13.3491 46.5995C13.7054 46.4274 14.006 46.159 14.2168 45.8249C14.3218 45.6647 14.3033 45.5414 14.1302 45.4552L13.8768 45.3258C13.7037 45.2334 13.6233 45.2518 13.5059 45.412C13.3701 45.6317 13.1755 45.8092 12.9439 45.9246C12.7124 46.04 12.4532 46.0887 12.1955 46.0652C11.3671 46.0652 10.9283 45.6524 10.9283 44.9376V44.4878H14.019C14.2848 44.4878 14.3651 44.3584 14.3651 44.1551V43.6128C14.3589 42.516 13.679 41.6534 12.2202 41.6534ZM13.5244 43.8285H10.9345V43.5635C10.9235 43.3959 10.9502 43.2279 11.0128 43.0719C11.0753 42.9158 11.172 42.7757 11.2958 42.6617C11.4196 42.5477 11.5675 42.4628 11.7285 42.413C11.8895 42.3633 12.0596 42.3501 12.2264 42.3743C12.3933 42.348 12.564 42.3595 12.7258 42.408C12.8876 42.4565 13.0364 42.5407 13.1611 42.6543C13.2858 42.768 13.3832 42.9082 13.4461 43.0645C13.509 43.2209 13.5358 43.3893 13.5244 43.5574V43.8285Z" fill="#191919"/>
<path d="M20.534 41.7705H16.9365C16.7634 41.7705 16.7078 41.826 16.7078 41.9985V42.3251C16.7078 42.4976 16.7696 42.553 16.9365 42.553H18.3149V46.4103C18.3149 46.5767 18.3767 46.6321 18.5436 46.6321H18.9392C19.1123 46.6321 19.1618 46.5767 19.1556 46.4041V42.553H20.5402C20.7071 42.553 20.7627 42.4976 20.7627 42.3251V41.9985C20.7627 41.826 20.7071 41.7705 20.534 41.7705Z" fill="#191919"/>
<path d="M26.8021 45.0362C26.6166 44.9808 26.5548 45.0362 26.4807 45.1903C26.4051 45.451 26.2397 45.6767 26.0135 45.8278C25.7874 45.9788 25.515 46.0455 25.2444 46.0159C24.4284 46.0159 24.0081 45.5969 24.0081 44.8945V43.4711C24.0081 42.7749 24.4099 42.362 25.2444 42.3559C25.5112 42.3167 25.7832 42.375 26.0104 42.5199C26.2376 42.6648 26.4046 42.8867 26.4807 43.1446C26.5486 43.3171 26.6352 43.3726 26.8021 43.2986L27.1359 43.1939C27.2904 43.1322 27.3522 43.046 27.2842 42.8735C27.145 42.4687 26.8693 42.1247 26.5041 41.9C26.1389 41.6752 25.7068 41.5838 25.2815 41.6411C23.8474 41.6411 23.1674 42.3744 23.1736 43.5451V44.8945C23.1736 46.0714 23.8412 46.7923 25.2382 46.7923C25.6812 46.8433 26.1283 46.7406 26.5043 46.5016C26.8803 46.2626 27.1623 45.9018 27.3028 45.4799C27.3708 45.3012 27.3028 45.2272 27.1421 45.1656L26.8021 45.0362Z" fill="#191919"/>
<path d="M33.3788 44.648C33.2388 44.3024 32.9679 44.0257 32.6247 43.8778L34.1267 41.9923C34.2565 41.8198 34.2133 41.7273 33.9846 41.7273H33.6261C33.3726 41.7273 33.3046 41.7273 33.181 41.8999L31.7778 43.7484H30.9063V41.9615C30.9063 41.7951 30.8444 41.7396 30.6652 41.7396H30.2881C30.1089 41.7396 30.0532 41.7951 30.0532 41.9676V46.3671C30.0532 46.5458 30.1089 46.6013 30.2881 46.6013H30.6652C30.8444 46.6013 30.9001 46.5396 30.9001 46.361V44.5124H31.7593C31.9383 44.4908 32.1194 44.5294 32.2739 44.6221C32.4285 44.7147 32.5475 44.8561 32.6123 45.0239L33.2675 46.3918C33.3541 46.5705 33.4035 46.5951 33.657 46.5951H34.0278C34.2442 46.5951 34.2751 46.5212 34.17 46.3302L33.3788 44.648Z" fill="#191919"/>
<path d="M38.6887 41.5672C38.3065 41.5303 37.9219 41.605 37.5816 41.7822C37.2414 41.9595 36.9602 42.2316 36.7725 42.5654C36.6859 42.7379 36.7354 42.818 36.8961 42.8858L37.1866 43.0152C37.3597 43.083 37.3968 43.0522 37.5019 42.9043C37.623 42.7087 37.7966 42.5509 38.0031 42.4485C38.2095 42.3462 38.4406 42.3034 38.6701 42.3251C39.5602 42.3251 39.7951 42.7749 39.8013 43.4404V43.7977C39.442 43.7586 39.081 43.738 38.7196 43.7361C37.2175 43.7361 36.6179 44.1243 36.6179 45.2211C36.6179 46.1823 37.0321 46.7184 38.6949 46.7184C39.248 46.7386 39.7999 46.6529 40.3206 46.4658C40.5802 46.3487 40.6605 46.2563 40.6605 45.9235V43.4588C40.6482 42.4052 40.2155 41.5672 38.6887 41.5672ZM39.8075 45.6832C39.8075 45.8188 39.7766 45.8434 39.6653 45.8927C39.3234 45.9867 38.9688 46.0262 38.6145 46.0098C37.6688 46.0098 37.4709 45.714 37.4709 45.2211C37.4709 44.7282 37.7429 44.4262 38.6269 44.4262C39.0905 44.4262 39.6097 44.4817 39.8013 44.5002L39.8075 45.6832Z" fill="#191919"/>
<path d="M47.2065 41.6842H45.0554C44.8378 41.6647 44.6185 41.6927 44.4129 41.7664C44.2073 41.8401 44.0203 41.9576 43.865 42.1107C43.7096 42.2638 43.5896 42.4489 43.5134 42.6529C43.4371 42.857 43.4065 43.0753 43.4235 43.2924C43.4011 43.6209 43.4927 43.9471 43.6829 44.2164C43.8731 44.4856 44.1503 44.6815 44.4682 44.7712L43.4606 46.287C43.337 46.4657 43.3555 46.5519 43.6337 46.5519H43.9798C44.2271 46.5519 44.2951 46.5519 44.394 46.3486L45.3274 44.876H46.6069V46.3178C46.6069 46.4842 46.6687 46.5396 46.8356 46.5396H47.2312C47.4043 46.5396 47.4599 46.4842 47.4599 46.3116V41.906C47.4414 41.7396 47.3796 41.6842 47.2065 41.6842ZM46.5884 44.1181H45.1667C45.053 44.1289 44.9382 44.1151 44.8304 44.0776C44.7225 44.0401 44.6241 43.9797 44.5419 43.9007C44.4597 43.8217 44.3956 43.7258 44.354 43.6197C44.3125 43.5137 44.2945 43.3999 44.3013 43.2862C44.2939 43.1721 44.3112 43.0578 44.3518 42.9509C44.3925 42.844 44.4556 42.747 44.537 42.6664C44.6184 42.5859 44.7162 42.5236 44.8237 42.4839C44.9312 42.4441 45.0461 42.4278 45.1605 42.4359H46.5946L46.5884 44.1181Z" fill="#191919"/>
<path d="M57.8326 44.5679C57.764 44.3961 57.6612 44.2399 57.5306 44.1086C57.4 43.9773 57.2441 43.8736 57.0723 43.8038L58.5805 41.8998C58.7103 41.7273 58.6671 41.6349 58.4384 41.6349H58.1046C57.8511 41.6349 57.7831 41.6349 57.6595 41.8074L56.2564 43.6559H55.4033V41.8998C55.4033 41.7335 55.3415 41.678 55.1622 41.678H54.7852C54.6059 41.678 54.5503 41.7335 54.5503 41.906V46.3055C54.5503 46.4842 54.6121 46.5396 54.7914 46.5396H55.1684C55.3477 46.5396 55.4033 46.4842 55.4033 46.3055V44.457H56.2502C56.4298 44.4369 56.611 44.4768 56.7654 44.5705C56.9198 44.6642 57.0386 44.8063 57.1032 44.9746L57.7584 46.3363C57.845 46.515 57.8944 46.5458 58.1478 46.5396H58.5187C58.7351 46.5396 58.7598 46.4657 58.6547 46.2747L57.8326 44.5679Z" fill="#191919"/>
<path d="M65.046 41.6287H62.0171C61.844 41.6287 61.7884 41.6903 61.7884 41.8567V43.3294C61.7884 45.3997 61.3001 45.6585 60.8983 45.8557C60.8732 45.8651 60.8505 45.8801 60.832 45.8995C60.8135 45.9188 60.7996 45.9421 60.7913 45.9675C60.783 45.9929 60.7805 46.0199 60.784 46.0464C60.7876 46.0729 60.797 46.0983 60.8117 46.1206L61.0157 46.4965C61.0775 46.6259 61.1579 46.6629 61.2877 46.6074C61.9491 46.2932 62.6167 45.7817 62.6105 43.3787V42.4174H64.4649V46.2685C64.4649 46.441 64.5205 46.4965 64.6874 46.4965H65.0769C65.2438 46.4965 65.3056 46.4349 65.3056 46.2685V41.8567C65.2747 41.6842 65.219 41.6287 65.046 41.6287Z" fill="#191919"/>
<path d="M72.2535 41.6041H71.8579C71.8143 41.6002 71.7705 41.6093 71.732 41.6301C71.6936 41.6509 71.6621 41.6826 71.6416 41.7212L69.5894 44.5125C69.3899 44.7767 69.22 45.0618 69.0825 45.3628H69.0516C69.1569 44.9606 69.2068 44.546 69.2 44.1304V41.8383C69.2 41.6719 69.1443 41.6164 68.9712 41.6164H68.5756C68.4026 41.6164 68.3469 41.6719 68.3469 41.8444V46.2501C68.3469 46.4226 68.4087 46.4781 68.5695 46.4781H68.9712C69.0156 46.4809 69.0598 46.4714 69.099 46.4508C69.1383 46.4301 69.1711 46.399 69.1938 46.361L71.2213 43.5944C71.4232 43.3218 71.5992 43.0309 71.7467 42.7256C71.6523 43.1296 71.6046 43.5431 71.6045 43.9579V46.2193C71.6045 46.3856 71.6601 46.4411 71.8332 46.4411H72.2288C72.3957 46.4411 72.4575 46.3856 72.4513 46.2131V41.8075C72.4823 41.6596 72.4266 41.6041 72.2535 41.6041Z" fill="#191919"/>
<path d="M79.4053 41.5794H79.0097C78.8367 41.5794 78.781 41.6411 78.781 41.8074V43.5697H76.3888V41.8197C76.3888 41.6472 76.3332 41.5918 76.1601 41.5918H75.7645C75.5976 41.5918 75.542 41.6472 75.542 41.8197V46.2316C75.542 46.3979 75.61 46.4534 75.7707 46.4534H76.1663C76.3332 46.4534 76.395 46.3979 76.3888 46.2254V44.3645H78.781V46.2131C78.781 46.3794 78.8428 46.4411 79.0097 46.4349H79.4053C79.5784 46.4349 79.6341 46.3794 79.6341 46.2131V41.8013C79.6341 41.6349 79.5722 41.5794 79.4053 41.5794Z" fill="#191919"/>
<path d="M86.6005 41.5548H86.2049C86.1618 41.5496 86.1182 41.5573 86.0796 41.5771C86.041 41.5969 86.0093 41.6278 85.9885 41.6657L83.9363 44.4632C83.7333 44.725 83.5631 45.0106 83.4294 45.3135H83.3985C83.503 44.9112 83.5529 44.4967 83.5469 44.0811V41.7951C83.5469 41.6226 83.4851 41.5671 83.3182 41.5671H82.9226C82.7495 41.5671 82.6938 41.6288 82.6938 41.7951V46.2069C82.6938 46.3733 82.7557 46.4288 82.9164 46.4288H83.3182C83.3616 46.4303 83.4047 46.421 83.4436 46.4016C83.4825 46.3822 83.5159 46.3534 83.5407 46.3179L85.5682 43.5512C85.7688 43.2778 85.9447 42.987 86.0936 42.6824C85.9989 43.0865 85.9492 43.4998 85.9452 43.9148V46.1761C85.9452 46.3487 86.0009 46.4041 86.1678 46.4041H86.5696C86.7365 46.4041 86.7921 46.3487 86.7921 46.1823V41.7705C86.8292 41.6103 86.7736 41.5548 86.6005 41.5548Z" fill="#191919"/>
<path d="M93.1773 44.457C93.0331 44.1121 92.7607 43.8362 92.417 43.6868L93.9562 41.7952C94.086 41.6288 94.0365 41.5364 93.814 41.5364H93.4493C93.1959 41.5364 93.1279 41.5364 93.0104 41.7089L91.6073 43.5574H90.7419V41.7705C90.7419 41.598 90.6862 41.5425 90.507 41.5425H90.1299C89.9507 41.5425 89.895 41.598 89.895 41.7644V46.1638C89.895 46.3487 89.9507 46.4042 90.1299 46.4042H90.507C90.6862 46.4042 90.7481 46.3487 90.7481 46.17V44.3215H91.6073C91.7867 44.3025 91.9675 44.3428 92.1216 44.4364C92.2758 44.5299 92.3948 44.6714 92.4603 44.8391L93.1155 46.2131C93.2021 46.3918 93.2453 46.4226 93.5049 46.4226H93.8696C94.0922 46.4226 94.1169 46.3425 94.0118 46.1577L93.1773 44.457Z" fill="#191919"/>
<path d="M98.4997 41.3762C98.1177 41.34 97.7333 41.4151 97.3932 41.5922C97.0531 41.7694 96.7718 42.0411 96.5835 42.3744C96.4969 42.5407 96.5464 42.627 96.7071 42.6948L97.0038 42.8242C97.1707 42.8919 97.2078 42.8611 97.3129 42.7133C97.434 42.5177 97.6077 42.3599 97.8141 42.2575C98.0205 42.1552 98.2516 42.1124 98.4811 42.1341C99.3713 42.1341 99.6123 42.5777 99.6123 43.2493V43.6067C99.2551 43.5675 98.8961 43.5469 98.5368 43.5451C97.0347 43.5451 96.4289 43.9271 96.4351 45.0301C96.4351 45.9913 96.8431 46.5274 98.5059 46.5212C99.0586 46.5434 99.6105 46.4597 100.132 46.2747C100.397 46.1577 100.472 46.0652 100.472 45.7325V43.2678C100.459 42.208 100.033 41.37 98.4997 41.3762ZM99.6185 45.4922C99.6185 45.6216 99.6185 45.6524 99.4763 45.7017C99.1359 45.7921 98.7838 45.8316 98.4317 45.8188C97.4859 45.8188 97.282 45.5169 97.282 45.0301C97.282 44.5433 97.5539 44.2352 98.444 44.2352C98.8365 44.2371 99.2285 44.2597 99.6185 44.303V45.4922Z" fill="#191919"/>
</svg>
