<svg width="96" height="96" viewBox="0 0 96 96" fill="none" xmlns="http://www.w3.org/2000/svg">
<g clip-path="url(#clip0)">
<path fill-rule="evenodd" clip-rule="evenodd" d="M86.7204 30.4455C84.5663 31.8742 82.1973 34.5641 79.6822 38.2488C76.3145 43.1824 74.3377 47.1844 73.0011 50.0593C72.81 50.4702 72.6302 50.8623 72.4601 51.2332C72.041 52.1469 71.681 52.9317 71.3586 53.5504C71.1299 53.9894 70.9027 54.3795 70.6661 54.6949C70.4338 55.0043 70.1515 55.298 69.7934 55.4747L69.1001 54.0597C69.1415 54.0392 69.2458 53.9663 69.411 53.7462C69.5718 53.532 69.7527 53.2296 69.9663 52.8196C70.2693 52.2382 70.6033 51.5099 71.0127 50.6173C71.1863 50.239 71.3733 49.8311 71.5773 49.3925C72.9345 46.4733 74.9524 42.3877 78.386 37.3576C80.9308 33.6294 83.4391 30.7317 85.8542 29.1299C87.0688 28.3244 88.3025 27.8177 89.5372 27.7331C90.7903 27.6471 91.983 28.0006 93.0806 28.8082C94.3837 29.767 95.1812 31.2938 95.6047 33.1258C96.0287 34.96 96.0961 37.1728 95.8807 39.6198C95.4498 44.5163 93.8726 50.4977 91.5348 56.5858C89.1949 62.6798 86.0785 68.9182 82.5436 74.3309C79.0153 79.7335 75.0378 84.3631 70.9581 87.1876L70.0659 85.8896C73.9091 83.2288 77.7546 78.7873 81.2295 73.4665C84.6977 68.1559 87.7649 62.0187 90.0687 56.0188C92.3749 50.0129 93.9019 44.1818 94.3156 39.481C94.5226 37.1293 94.4475 35.0972 94.0741 33.4822C93.7003 31.8648 93.0455 30.7377 92.1516 30.0799C91.3354 29.4794 90.5061 29.2472 89.6443 29.3063C88.7642 29.3666 87.7904 29.7359 86.7204 30.4455Z" fill="#0075FF"/>
<path fill-rule="evenodd" clip-rule="evenodd" d="M31.0412 29.1233C28.5729 30.3576 25.3071 33.3851 21.0909 40.1241C14.183 51.1654 6.03615 54.5922 4.07306 55.4131L3.46875 53.9575L3.47523 53.9548C5.29513 53.1938 13.1009 49.9296 19.7603 39.2856C24.0285 32.4633 27.4842 29.1403 30.3405 27.7119C33.2741 26.2449 35.4889 26.8173 37.0634 27.4638C38.6719 28.1242 39.6103 29.5765 40.0473 31.4096C40.4816 33.2312 40.4506 35.5241 40.0641 38.0929C39.2894 43.2409 37.0503 49.727 33.8378 56.2943C30.6221 62.8683 26.409 69.5687 21.6531 75.1411C16.907 80.7021 11.5698 85.199 6.09109 87.2762L5.53583 85.8011C10.6627 83.8572 15.7936 79.5826 20.4599 74.1152C25.1165 68.6591 29.2602 62.0742 32.4274 55.5994C35.5979 49.1179 37.768 42.7917 38.5105 37.8575C38.8825 35.3852 38.8871 33.3194 38.5193 31.7766C38.1541 30.2452 37.4525 29.3273 36.4685 28.9233C35.1456 28.3801 33.4324 27.9275 31.0412 29.1233Z" fill="#0075FF"/>
<path d="M25.5478 43.3317C17.9547 43.3317 7.10327 51.1368 1.47411 54.9858C-1.52012 57.0331 0.875265 86.7981 1.47411 88.2155C2.07296 89.6329 1.23458 94.0425 27.5838 95.7749C53.9331 97.5073 69.2636 88.688 70.3415 88.2155C71.4194 87.743 72.2578 86.7981 71.0601 83.6484C69.4337 79.3712 69.9822 61.2853 70.3415 58.4505C70.6368 56.1203 72.3776 53.5684 67.3473 52.9384C61.8627 52.2516 35.2491 43.3317 25.5478 43.3317Z" fill="#A9D0FF"/>
<path d="M70.1588 60.9688C69.4368 60.9151 68.3533 60.7732 66.9957 60.5583C65.244 60.2809 63.0584 59.8858 60.652 59.4152C55.8394 58.4739 50.1515 57.2322 45.3003 56.0309C43.0033 55.4621 40.95 54.8569 38.9958 54.2809C38.6643 54.1832 38.3378 54.0863 38.0153 53.9906C33.4863 52.6467 29.7283 51.5316 23.568 51.5316C21.5131 51.5316 19.1567 52.2737 16.9193 53.1991C15.2643 53.8836 13.6485 54.68 12.2484 55.3702C11.7535 55.6141 11.2855 55.8448 10.8523 56.0525C10.2764 56.3287 9.59427 56.6666 8.84622 57.0372C6.16421 58.3659 2.63519 60.1142 0.121034 60.9384C0.108603 61.1507 0.0972079 61.367 0.0868141 61.587L0.0937746 61.6093C2.67166 60.8007 6.39927 58.9536 9.15911 57.586L9.15946 57.5858L9.15977 57.5857C9.89674 57.2205 10.5647 56.8895 11.1233 56.6216C11.5673 56.4087 12.0423 56.1746 12.5417 55.9284C13.9377 55.2403 15.5246 54.4581 17.1587 53.7822C19.3801 52.8635 21.6417 52.1623 23.568 52.1623C29.5721 52.1623 33.7968 53.4077 38.7481 54.8672C40.715 55.447 42.7965 56.0605 45.1497 56.6433C50.0122 57.8474 55.7103 59.0913 60.5318 60.0343C62.9425 60.5058 65.1361 60.9024 66.8977 61.1813C68.2538 61.396 69.3675 61.5433 70.1288 61.599C70.1386 61.3809 70.1486 61.1706 70.1588 60.9688Z" fill="#9CCAFF"/>
<path d="M69.959 68.5409C66.1419 68.3638 54.2792 67.1038 45.266 65.9134C42.9564 65.6084 40.8968 65.2846 38.9397 64.9769C33.9611 64.1943 29.6459 63.516 23.568 63.516C20.0643 63.516 15.5971 64.6909 12.3092 65.5557L12.3089 65.5557C11.8134 65.6861 11.3448 65.8093 10.9102 65.9205C10.3375 66.0669 9.658 66.2465 8.91199 66.4436C6.18204 67.1649 2.56181 68.1215 0.0300293 68.5525C0.0339329 68.7461 0.038194 68.9403 0.0427989 69.1349L0.0517049 69.1885C2.61929 68.759 6.3336 67.7774 9.09342 67.048C9.83269 66.8527 10.5035 66.6754 11.0654 66.5317C11.5071 66.4187 11.9802 66.2944 12.4779 66.1637L12.4791 66.1633L12.481 66.1628C15.7799 65.296 20.1538 64.1467 23.568 64.1467C29.3814 64.1467 33.8449 64.815 38.8043 65.5947C40.7683 65.9034 42.8435 66.2297 45.184 66.5388C54.1904 67.7282 66.1014 68.9952 69.9558 69.1719C69.9566 68.9607 69.9576 68.7503 69.959 68.5409Z" fill="#9CCAFF"/>
<path d="M70.0986 76.4418C66.4273 76.3946 54.3621 75.9948 45.2379 75.6182C42.9183 75.5225 40.8537 75.4211 38.8945 75.3248L38.8935 75.3248C33.9215 75.0805 29.6281 74.8696 23.568 74.8696C20.0949 74.8696 15.6593 75.2341 12.3676 75.5045L12.3664 75.5046C11.8701 75.5454 11.3999 75.584 10.9628 75.619C10.3938 75.6644 9.71717 75.7203 8.97342 75.7817C6.34319 75.9989 2.87312 76.2855 0.349086 76.4271C0.361393 76.6382 0.373912 76.8481 0.386623 77.0567C2.92086 76.9145 6.40266 76.6269 9.03184 76.4098C9.77336 76.3486 10.4472 76.2929 11.0127 76.2477C11.4526 76.2126 11.925 76.1738 12.4228 76.1329C15.7178 75.8622 20.1233 75.5004 23.568 75.5004C29.6118 75.5004 33.8846 75.7103 38.8506 75.9542C40.8123 76.0506 42.8822 76.1523 45.2121 76.2485C54.3622 76.6261 66.4893 77.0279 70.1318 77.0731C70.12 76.8649 70.109 76.6544 70.0986 76.4418Z" fill="#9CCAFF"/>
<path d="M70.7256 82.4449C70.0688 82.4715 69.2643 82.582 68.3177 82.7412C67.6278 82.8572 66.8516 83.001 65.9921 83.1603C65.4892 83.2535 64.9577 83.352 64.3983 83.4533C61.3603 84.0033 57.4531 84.6448 52.6113 85.0135C44.405 85.6384 32.6326 85.9079 24.1964 85.9079C20.2398 85.9079 12.972 85.0612 9.63001 84.5683C8.29755 84.3718 6.49749 84.0652 4.77766 83.6966C3.24189 83.3674 1.78997 82.9928 0.791428 82.6089C0.811841 82.8459 0.832261 83.0776 0.852636 83.3035C1.88074 83.6688 3.24647 84.0133 4.6464 84.3134C6.38213 84.6855 8.19583 84.9943 9.53864 85.1924C12.8849 85.6858 20.191 86.5386 24.1964 86.5386C32.64 86.5386 44.43 86.2691 52.6588 85.6425C57.5308 85.2714 61.4615 84.6259 64.5099 84.074C65.0761 83.9715 65.6104 83.8725 66.1141 83.7791C66.9692 83.6207 67.7361 83.4785 68.4216 83.3633C69.434 83.193 70.2456 83.0857 70.8754 83.0711C70.8228 82.8784 70.7729 82.6692 70.7256 82.4449Z" fill="#9CCAFF"/>
</g>
<defs>
<clipPath id="clip0">
<rect width="96" height="96" fill="white"/>
</clipPath>
</defs>
</svg>
