<svg width="96" height="96" viewBox="0 0 96 96" fill="none" xmlns="http://www.w3.org/2000/svg">
<g clip-path="url(#clip0)">
<path d="M62.8212 46.9209C46.9966 46.6129 19.5295 52.3826 6.759 58.5484C2.08431 60.8054 -0.015473 65.8126 0.0227621 69.1697L0.00173489 79.7221C0.0523773 76.4169 2.33012 72.2437 6.75896 69.7105C19.2112 62.5879 46.2619 57.6473 62.7998 57.6472C77.344 57.6471 95.6836 60.1562 95.9582 67.926L95.9796 57.1996C95.705 49.4299 78.6458 47.2288 62.8212 46.9209Z" fill="#E03701"/>
<path d="M90.6371 64.839C72.1052 80.206 38.1519 81.0395 35.8768 81.1461C15.5538 82.098 0.0867834 75.4125 0.00058071 68.9711L0 81.742C0.00058071 90.1572 19.0215 92.9703 35.8768 93.8588C42.8826 94.4597 71.2847 91.812 90.6371 78.2428C94.8179 75.3113 96.0187 71.8289 95.9364 69.6252V57.0487C95.8578 59.1934 94.2754 61.822 90.6371 64.839Z" fill="#FF6B00"/>
<path fill-rule="evenodd" clip-rule="evenodd" d="M13.4562 76.1681C11.5237 68.5669 11.9663 59.762 12.9492 52.5931C14.2593 43.0371 18.6344 36.5221 24.3365 32.5888C29.9617 28.7085 36.647 27.4965 42.4359 28.0411C56.6262 29.3763 66.7801 44.2522 66.4881 61.582C66.3351 70.6578 63.8917 80.0519 57.8423 86.4625C51.616 93.0605 42.1009 95.9514 29.1424 92.9186C19.9778 90.7738 15.417 83.8807 13.4562 76.1681ZM29.8139 90.0412C14.3344 86.4185 13.9406 67.0705 15.8705 52.9944C18.2828 35.3993 31.7287 30.0016 42.1592 30.983C54.2587 32.1215 63.8164 45.1142 63.5398 61.5331C63.2473 78.8882 54.1682 95.741 29.8139 90.0412Z" fill="#DBC500"/>
<path fill-rule="evenodd" clip-rule="evenodd" d="M26.8837 89.8168C11.4041 86.1915 11.0071 66.843 12.9347 52.7668C15.3442 35.1716 28.7888 29.776 39.2193 30.7591C51.3187 31.8996 60.8782 44.8942 60.6042 61.3134C60.3145 78.6689 51.2384 95.5207 26.8837 89.8168ZM34.5002 56.7398C37.43 57.426 37.5051 61.088 37.1403 63.7521C36.6843 67.0822 34.1397 68.1034 32.1655 67.9173C29.8756 67.7015 28.0663 65.2421 28.1181 62.1345C28.173 58.8497 29.8908 55.6603 34.5002 56.7398Z" fill="#A9D1FF"/>
<path fill-rule="evenodd" clip-rule="evenodd" d="M42.7423 31.4532L13.1909 74.6625C14.917 81.9592 18.8887 87.9524 26.8263 89.8113C27.1254 89.8814 27.4222 89.948 27.7167 90.0113L57.7255 46.1332C54.6157 38.7736 49.1934 33.3858 42.7423 31.4532ZM34.5002 56.7397C37.43 57.4259 37.5051 61.0879 37.1403 63.752C36.6843 67.0821 34.1397 68.1033 32.1656 67.9173C29.8756 67.7014 28.0663 65.242 28.1182 62.1344C28.173 58.8497 29.8908 55.6602 34.5002 56.7397Z" fill="#C4DFFF"/>
<path d="M30.9029 90.5793C32.4201 90.7919 33.8701 90.9085 35.255 90.936L60.0995 54.6092C59.831 52.8603 59.4473 51.1717 58.9593 49.556L30.9029 90.5793Z" fill="#C4DFFF"/>
<path fill-rule="evenodd" clip-rule="evenodd" d="M38.7001 59.224C39.0996 60.7948 39.0021 62.5687 38.8121 63.9568C38.5395 65.9469 37.6135 67.3634 36.3585 68.229C35.1365 69.0719 33.6999 69.3269 32.467 69.2107C29.281 68.9104 27.216 65.6439 27.2744 62.1459C27.3047 60.3328 27.7909 58.3533 29.1028 56.963C30.4904 55.4924 32.568 54.921 35.2076 55.5392C37.2831 56.0253 38.2884 57.6054 38.7001 59.224ZM34.92 56.7724C37.8498 57.4585 37.9249 61.1205 37.5601 63.7846C37.104 67.1148 34.5595 68.136 32.5853 67.9499C30.2954 67.734 28.4861 65.2746 28.5379 62.1671C28.5928 58.8823 30.3105 55.6928 34.92 56.7724Z" fill="#DBC500"/>
<path fill-rule="evenodd" clip-rule="evenodd" d="M38.2801 59.1914C38.6797 60.7622 38.5822 62.5361 38.3921 63.9242C38.1196 65.9143 37.1936 67.3308 35.9386 68.1964C34.7165 69.0393 33.28 69.2943 32.0471 69.1781C28.861 68.8778 26.7961 65.6113 26.8545 62.1133C26.8847 60.3002 27.3709 58.3207 28.6829 56.9304C30.0705 55.4598 32.1481 54.8884 34.7877 55.5066C36.8632 55.9927 37.8684 57.5728 38.2801 59.1914ZM34.5001 56.7398C37.4298 57.4259 37.505 61.0879 37.1402 63.752C36.6841 67.0822 34.1395 68.1034 32.1654 67.9173C29.8754 67.7015 28.0661 65.242 28.118 62.1345C28.1728 58.8497 29.8906 55.6602 34.5001 56.7398Z" fill="#FFE500"/>
<path fill-rule="evenodd" clip-rule="evenodd" d="M33.6053 56.5795C30.159 56.4897 28.828 59.3012 28.7799 62.1862C28.7299 65.1822 30.4098 67.5758 32.5826 67.9372C32.4346 67.9368 32.2885 67.9297 32.1455 67.9162C29.8555 67.7003 28.0462 65.2409 28.0981 62.1333C28.1493 59.0653 29.6513 56.0804 33.6053 56.5795Z" fill="#DBC500"/>
<path fill-rule="evenodd" clip-rule="evenodd" d="M10.5162 75.9406C8.58378 68.3393 9.02635 59.5345 10.0092 52.3656C11.3194 42.8096 15.6944 36.2946 21.3966 32.3612C27.0218 28.481 33.707 27.2689 39.4959 27.8136C53.6862 29.1488 63.8402 44.0246 63.5481 61.3545C63.3952 70.4303 60.9517 79.8244 54.9023 86.235C48.6761 92.833 39.1609 95.7238 26.2024 92.6911C17.0379 90.5463 12.477 83.6532 10.5162 75.9406ZM26.8739 89.8137C11.3945 86.1909 11.0006 66.8429 12.9305 52.7669C15.3429 35.1717 28.7887 29.7741 39.2193 30.7555C51.3188 31.894 60.8765 44.8867 60.5998 61.3056C60.3074 78.6606 51.2283 95.5134 26.8739 89.8137Z" fill="#FFE600"/>
<path d="M14.4963 52.9501C12.6725 67.0508 13.2018 86.3125 26.7129 89.788C22.9658 89.3908 14.0077 84.1514 12.8141 74.7334C11.3221 62.9609 10.8669 57.4152 12.7704 49.509C14.6739 41.6028 21.3572 29.0953 37.7124 30.6765C28.5942 29.7949 16.7762 35.3242 14.4963 52.9501Z" fill="#DBC500"/>
</g>
<defs>
<clipPath id="clip0">
<rect width="96" height="96" fill="white"/>
</clipPath>
</defs>
</svg>
