<svg width="664" height="555" viewBox="0 0 664 555" fill="none" xmlns="http://www.w3.org/2000/svg">
<path d="M3.09225 424.188C17.2973 494.963 90.331 514.854 124.48 522.256C182.592 534.85 240.273 521.793 296.232 543.997C383.183 578.499 416.328 522.256 459.374 506.528C502.419 490.8 546.326 506.528 598.841 487.099C651.357 467.67 675.031 412.623 659.105 362.201C648.298 327.989 592.384 281.248 598.841 219.262C604.961 160.514 555.796 105.003 501.558 98.9898C454.254 93.7449 437.421 8.78562 377.588 0.921814C316.771 -7.07126 279.874 38.8537 218.75 63.8334C161.89 87.0703 124.48 73.0851 77.1304 124.432C29.3337 176.264 68.4551 237.766 49.5813 281.711C34.085 317.793 -12.3181 347.406 3.09225 424.188Z" fill="#F8FBFE"/>
</svg>
