<svg width="18" height="24" viewBox="0 0 18 24" fill="none" xmlns="http://www.w3.org/2000/svg">
<path fill-rule="evenodd" clip-rule="evenodd" d="M6.23079 23.114C2.5669 19.0682 -0.311906 11.898 1.12869 6.46406C2.56928 1.03008 6.83104 -0.25584 9.83228 0.0394845C12.8335 0.334809 17.6874 2.46894 17.9875 7.48946C18.2876 12.51 13.1235 20.945 9.83228 23.114C9.12698 23.5789 8.33166 24 7.73141 24C7.13116 24 6.83104 23.7047 6.23079 23.114ZM9.63192 12.3871C12.1875 12.3871 13.2955 11.6502 13.2955 8.66933C13.2955 6.52916 11.858 4.64516 8.66351 4.64516C6.36999 4.64516 4.67045 5.77181 4.67045 8.34795C4.67045 10.9241 6.91664 12.3871 9.63192 12.3871Z" fill="#E50046"/>
</svg>
