<svg width="96" height="96" viewBox="0 0 96 96" fill="none" xmlns="http://www.w3.org/2000/svg">
<g clip-path="url(#clip0)">
<path fill-rule="evenodd" clip-rule="evenodd" d="M22.0312 63.2973C24.88 68.8339 27.3192 71.4408 31.9169 80.4588C32.0092 80.6398 32.2204 80.7295 32.4149 80.6747C35.6251 79.2865 39.4628 81.5296 41.2568 84.6507C43.3802 88.3448 42.4855 92.3948 38.3322 94.8033C34.6544 96.9361 29.9515 95.6704 27.8281 91.9762C26.0242 88.8379 26.1025 85.1823 29.15 82.5519C29.2767 82.4294 29.3201 82.2417 29.2512 82.0789C26.2772 75.0606 22.1974 67.9725 21.1011 67.9725C19.8718 67.9725 16.7325 74.5271 12.9461 82.1223C12.8628 82.2894 12.9019 82.4921 13.0354 82.6219C15.5108 85.0276 15.8203 88.8442 14.02 91.9762C11.8966 95.6704 7.97878 97.2599 3.83813 94.8587C0.196838 92.747 -1.09987 88.0021 1.02355 84.3079C2.8138 81.1934 6.79786 79.9055 9.73473 80.7242C9.93829 80.781 10.1556 80.6848 10.2429 80.4911C12.6439 75.1661 17.0758 69.5524 20.1391 63.3527L21.0374 63.8736L22.0312 63.2973ZM37.4067 93.193C40.1991 91.5736 41.6115 88.7799 39.5437 85.1823C37.9314 82.3774 34.5964 82.3511 31.5349 83.3055C28.6157 84.2155 27.573 88.6211 29.1853 91.4259C30.7975 94.2308 34.8812 94.6575 37.4067 93.193ZM4.76373 93.2484C7.55618 94.8677 10.5797 94.8587 12.7391 91.1019C14.8985 87.3452 12.2875 84.737 9.81891 83.3055C7.02645 81.6861 4.23895 82.4328 2.62673 85.2376C1.0145 88.0425 1.06234 91.1019 4.76373 93.2484Z" fill="#0075FF"/>
<path d="M26.8693 13.3954C20.5748 13.3954 19.0011 18.644 19.0011 21.2683C18.959 29.1907 18.759 36.6507 19.0011 42.8278C19.0677 44.5252 19.1684 55.9366 19.0011 64.024H21.9063C22.2694 50.8218 21.3011 26.5007 21.3011 21.7527C21.3011 16.7868 25.1746 15.2122 26.8693 15.3333C28.225 15.4302 28.685 14.97 28.685 14.4855C28.685 14.001 28.4187 13.3954 26.8693 13.3954Z" fill="#075CC0"/>
<path d="M27.9623 14.6066C21.6678 14.6066 20.0942 19.8552 20.0942 22.4795C20.052 30.4019 19.8521 37.8619 20.0942 44.0391C20.1607 45.7364 20.2614 57.1479 20.0942 65.2353H22.9993C23.3625 52.0331 22.3941 27.7119 22.3941 22.964C22.3941 17.998 26.2676 16.4234 27.9623 16.5446C29.318 16.6415 29.778 16.1812 29.778 15.6967C29.778 15.2122 29.5117 14.6066 27.9623 14.6066Z" fill="#0075FF"/>
<path d="M24.5522 63.878C24.5522 65.6949 23.063 67.1079 21.3532 67.1079C19.6434 67.1079 18.2573 66.0986 18.2573 64.0799C18.2573 62.4076 19.1861 61.0519 21.3532 61.0519C22.5915 61.0519 24.5522 62.2057 24.5522 63.878Z" fill="#FFE600"/>
<path d="M19.8449 63.9378C19.8449 64.7717 20.5961 65.4204 21.4586 65.4204C22.3211 65.4204 23.0203 64.9571 23.0203 64.0304C23.0203 63.2628 22.5518 62.6404 21.4586 62.6404C20.8339 62.6404 19.8449 63.1701 19.8449 63.9378Z" fill="#FF6B00"/>
<path d="M57.7445 49.9046L58.5598 91.1049C58.5598 93.3485 57.7445 96 54.483 96C51.2216 96 50.4062 93.3485 50.4062 91.1049L51.2216 49.9046H57.7445Z" fill="#0075FF"/>
<path fill-rule="evenodd" clip-rule="evenodd" d="M91.03 99.1519L91.0437 98.4608C91.2739 98.347 91.5151 98.2312 91.7615 98.1176C92.6353 97.7145 93.5939 97.3291 94.3609 97.1585C95.3381 96.9413 96.6962 96.3958 97.7606 95.9207L97.7738 96.5839C96.7261 97.0428 95.4505 97.5431 94.4936 97.7559C93.7929 97.9117 92.883 98.2741 92.0174 98.6733C91.6724 98.8324 91.3376 98.9959 91.03 99.1519ZM91.003 100.517L91.0164 99.8416C92.0731 99.3769 93.3739 98.8641 94.346 98.6479C95.0466 98.4921 95.9566 98.1297 96.8221 97.7305C97.1588 97.5752 97.4858 97.4158 97.7872 97.2631L97.8006 97.9406C97.569 98.0552 97.3261 98.1718 97.0781 98.2862C96.2042 98.6893 95.2456 99.0747 94.4786 99.2453C93.478 99.4677 92.0782 100.034 91.003 100.517ZM90.9716 102.107L90.9853 101.415C91.233 101.292 91.4942 101.166 91.7615 101.043C92.6353 100.64 93.5939 100.254 94.3609 100.084C95.3558 99.8625 96.7453 99.3011 97.818 98.8201L97.8312 99.4838C96.773 99.9495 95.4681 100.464 94.4936 100.681C93.7929 100.837 92.883 101.199 92.0174 101.598C91.6504 101.768 91.2949 101.942 90.9716 102.107ZM90.9446 103.469L90.958 102.792C92.0249 102.321 93.3559 101.793 94.346 101.573C95.0466 101.417 95.9566 101.055 96.8221 100.656C97.1803 100.49 97.5275 100.321 97.8445 100.159L97.8579 100.837C97.6092 100.961 97.3467 101.087 97.0781 101.211C96.2042 101.614 95.2456 102 94.4786 102.17C93.4598 102.397 92.0271 102.98 90.9446 103.469ZM90.9145 104.992L90.9282 104.299C91.1927 104.167 91.4736 104.031 91.7615 103.898C92.6353 103.495 93.5939 103.11 94.3609 102.939C95.3732 102.714 96.7941 102.137 97.874 101.65L97.8872 102.315C96.8194 102.787 95.4854 103.316 94.4936 103.536C93.7929 103.692 92.883 104.055 92.0174 104.454C91.6287 104.633 91.2529 104.818 90.9145 104.992ZM90.8876 106.35L90.901 105.673C91.9771 105.196 93.3382 104.653 94.346 104.429C95.0466 104.273 95.9566 103.91 96.8221 103.511C97.2015 103.336 97.5685 103.156 97.9005 102.986L97.9139 103.665C97.6486 103.797 97.3669 103.934 97.0781 104.067C96.2042 104.47 95.2456 104.855 94.4786 105.026C93.4418 105.256 91.9763 105.856 90.8876 106.35ZM90.8574 107.876L90.8711 107.183C91.1521 107.042 91.4528 106.896 91.7615 106.754C92.6353 106.351 93.5939 105.965 94.3609 105.795C95.3908 105.566 96.8436 104.972 97.93 104.481L97.9432 105.145C96.8663 105.623 95.5028 106.168 94.4936 106.392C93.7929 106.548 92.883 106.91 92.0174 107.309C91.6067 107.499 91.2104 107.694 90.8574 107.876ZM90.8306 109.231L90.844 108.554C91.9287 108.07 93.3203 107.512 94.346 107.284C95.0466 107.128 95.9566 106.766 96.8221 106.367C97.2229 106.182 97.6099 105.991 97.9564 105.813L97.9699 106.492C97.6884 106.634 97.3873 106.78 97.0781 106.922C96.2042 107.325 95.2456 107.711 94.4786 107.881C93.4236 108.116 91.9247 108.733 90.8306 109.231ZM90.8003 110.761L90.814 110.067C91.1113 109.917 91.4318 109.761 91.7615 109.609C92.6353 109.206 93.5939 108.821 94.3609 108.65C95.4086 108.417 96.894 107.807 97.986 107.311L97.9992 107.976C96.914 108.46 95.5204 109.019 94.4936 109.247C93.7929 109.403 92.883 109.766 92.0174 110.165C91.5844 110.365 91.1674 110.571 90.8003 110.761ZM90.7736 112.113L90.787 111.435C91.8796 110.946 93.3023 110.372 94.346 110.139C95.0466 109.984 95.9566 109.621 96.8221 109.222C97.2446 109.027 97.6518 108.826 98.0123 108.64L98.0258 109.32C97.7285 109.47 97.4079 109.626 97.0781 109.778C96.2042 110.181 95.2456 110.566 94.4786 110.737C93.4051 110.975 91.8722 111.61 90.7736 112.113ZM90.7418 113.717L90.7556 113.022C91.0691 112.863 91.41 112.696 91.7615 112.534C92.6353 112.131 93.5939 111.746 94.3609 111.575C95.4271 111.338 96.9465 110.71 98.0434 110.21L98.0566 110.875C96.9634 111.365 95.5386 111.94 94.4936 112.173C93.7929 112.328 92.883 112.691 92.0174 113.09C91.5612 113.3 91.1228 113.518 90.7418 113.717ZM90.7151 115.065L90.7286 114.386C91.8285 113.891 93.2836 113.301 94.346 113.065C95.0466 112.909 95.9566 112.546 96.8221 112.147C97.2672 111.942 97.6952 111.729 98.0696 111.535L98.0831 112.216C97.7698 112.375 97.4292 112.541 97.0781 112.703C96.2042 113.106 95.2456 113.491 94.4786 113.662C93.386 113.905 91.8173 114.558 90.7151 115.065ZM90.6847 116.602L90.6985 115.906C91.0275 115.739 91.3886 115.562 91.7615 115.39C92.6353 114.987 93.5939 114.601 94.3609 114.431C95.4453 114.19 96.9986 113.544 98.0994 113.04L98.1126 113.706C97.0125 114.201 95.5565 114.792 94.4936 115.028C93.7929 115.184 92.883 115.546 92.0174 115.945C91.5382 116.166 91.0788 116.396 90.6847 116.602ZM90.6581 117.946L90.6715 117.268C91.7778 116.768 93.2651 116.16 94.346 115.92C95.0466 115.764 95.9566 115.402 96.8221 115.003C97.2895 114.787 97.7381 114.564 98.1256 114.361L98.1391 115.043C97.8106 115.21 97.4502 115.387 97.0781 115.558C96.2042 115.961 95.2456 116.347 94.4786 116.517C93.367 116.765 91.7626 117.436 90.6581 117.946ZM90.6276 119.487L90.6414 118.791C90.9855 118.615 91.3669 118.427 91.7615 118.245C92.6353 117.842 93.5939 117.457 94.3609 117.286C95.4638 117.041 97.0518 116.378 98.1554 115.869L98.1686 116.536C97.0623 117.036 95.5746 117.643 94.4936 117.883C93.7929 118.039 92.883 118.402 92.0174 118.801C91.5149 119.033 91.034 119.274 90.6276 119.487ZM90.6011 120.828L90.6145 120.149C91.7262 119.644 93.2464 119.02 94.346 118.776C95.0466 118.62 95.9566 118.257 96.8221 117.858C97.3122 117.632 97.7816 117.397 98.1815 117.188L98.195 117.87C97.8517 118.046 97.4714 118.232 97.0781 118.414C96.2042 118.817 95.2456 119.202 94.4786 119.373C93.3477 119.624 91.7068 120.315 90.6011 120.828ZM90.5727 122.264L90.5861 121.584C91.7002 121.078 93.237 120.445 94.346 120.198C95.0466 120.042 95.9566 119.68 96.8221 119.281C97.3236 119.05 97.8035 118.809 98.2094 118.596L98.2229 119.278C97.8723 119.458 97.4821 119.65 97.0781 119.837C96.2042 120.24 95.2456 120.625 94.4786 120.796C93.338 121.049 91.6785 121.75 90.5727 122.264ZM90.5406 123.881L90.5545 123.184C90.9208 122.994 91.3334 122.79 91.7615 122.593C92.6353 122.19 93.5939 121.805 94.3609 121.634C95.4926 121.382 97.1349 120.691 98.2407 120.178L98.2539 120.845C97.1397 121.352 95.6027 121.985 94.4936 122.231C93.7929 122.387 92.883 122.75 92.0174 123.149C91.4786 123.397 90.9646 123.656 90.5406 123.881ZM90.5142 125.216L90.5277 124.536C91.646 124.025 93.2175 123.374 94.346 123.123C95.0466 122.968 95.9566 122.605 96.8221 122.206C97.3474 121.964 97.849 121.711 98.2667 121.491L98.2802 122.174C97.9151 122.362 97.5043 122.565 97.0781 122.762C96.2042 123.165 95.2456 123.55 94.4786 123.721C93.3177 123.979 91.6194 124.7 90.5142 125.216ZM90.4835 126.767L90.4974 126.069C90.8777 125.871 91.311 125.656 91.7615 125.448C92.6353 125.045 93.5939 124.66 94.3609 124.489C95.5119 124.234 97.191 123.522 98.2967 123.007L98.3099 123.675C97.1917 124.186 95.6214 124.836 94.4936 125.087C93.7929 125.243 92.883 125.605 92.0174 126.004C91.4541 126.264 90.9181 126.535 90.4835 126.767ZM90.4572 128.099L90.4707 127.418C91.5921 126.903 93.1982 126.234 94.346 125.979C95.0466 125.823 95.9566 125.461 96.8221 125.061C97.3711 124.808 97.8941 124.544 98.3226 124.316L98.3361 125C97.9572 125.197 97.5262 125.41 97.0781 125.617C96.2042 126.02 95.2456 126.406 94.4786 126.576C93.2976 126.839 91.5602 127.581 90.4572 128.099ZM90.4264 129.653L90.4403 128.954C90.8341 128.748 91.2883 128.522 91.7615 128.304C92.6353 127.901 93.5939 127.515 94.3609 127.345C95.5315 127.085 97.2483 126.353 98.3527 125.836L98.3659 126.505C97.2446 127.019 95.6403 127.687 94.4936 127.942C93.7929 128.098 92.883 128.46 92.0174 128.86C91.4292 129.131 90.8707 129.415 90.4264 129.653ZM90.4001 130.981L90.4136 130.3C91.5371 129.781 93.1786 129.094 94.346 128.834C95.0466 128.679 95.9566 128.316 96.8221 127.917C97.3952 127.653 97.94 127.376 98.3785 127.142L98.3921 127.827C97.9999 128.031 97.5484 128.256 97.0781 128.473C96.2042 128.876 95.2456 129.261 94.4786 129.432C93.277 129.699 91.4996 130.462 90.4001 130.981Z" fill="#075CC0"/>
<path d="M53.2603 43.3778V13.3954C66.7145 20.1261 56.0151 32.001 55.2988 43.3778H53.2603Z" fill="#0075FF"/>
<path d="M55.2988 43.3778C55.7065 27.2648 63.8605 22.3697 53.2603 13.3954C66.7145 20.1261 56.0151 32.001 55.2988 43.3778Z" fill="#075CC0"/>
<path d="M56.4822 44.1035C57.7981 44.9935 58.4092 47.6529 58.5574 49.6063C58.5955 50.1085 58.186 50.5165 57.6826 50.5165H51.3023C50.7989 50.5165 50.3889 50.1088 50.4068 49.6055C50.476 47.6655 50.802 45.0296 51.9992 44.1219C52.3409 43.8629 52.711 43.5474 52.8719 43.1627C52.9588 42.9549 53.1368 42.7659 53.362 42.7659H55.1101C55.3353 42.7659 55.513 42.9548 55.5991 43.163C55.7583 43.5485 56.1271 43.8633 56.4822 44.1035Z" fill="#FFE600"/>
<path d="M83.5705 27.1857C75.52 27.9983 75.8936 35.3056 75.7501 38.6871C75.2899 49.5364 75.9344 59.1542 77.0826 67.3174C77.3881 69.4891 78.8905 84.2065 81.3334 94.4976C81.4699 95.0727 82.013 95.4531 82.6008 95.3937L84.3839 95.2138C84.9858 95.153 85.4469 94.6475 85.4517 94.0422C85.662 67.3134 79.6175 44.2276 78.8728 39.0212C77.8641 31.9688 81.5604 29.8236 83.8297 29.7569C85.6452 29.7035 86.1952 29.0311 86.1304 28.3883C86.0656 27.7455 85.6305 26.9778 83.5705 27.1857Z" fill="#075CC0"/>
<path d="M93.5789 28.5312C86.9762 28.0989 85.8793 35.0088 85.1796 38.3202C82.9344 48.9445 81.9821 58.5367 81.7668 66.7775C81.7095 68.9698 80.5959 83.7508 81.3062 94.3042C81.3458 94.894 81.8187 95.3589 82.4082 95.3975L84.2693 95.3974C84.988 95.3974 85.4112 95.0146 85.5159 94.4184C90.1362 68.0913 88.079 44.4236 88.2042 39.1657C88.3537 32.8813 91.0363 30.7837 93.41 31.1099C95.2094 31.3573 95.8629 30.785 95.9051 30.1403C95.9473 29.4956 95.6449 28.6665 93.5789 28.5312Z" fill="#0075FF"/>
</g>
<defs>
<clipPath id="clip0">
<rect width="96" height="96" fill="white"/>
</clipPath>
</defs>
</svg>
