<svg width="158" height="11" viewBox="0 0 158 11" fill="none" xmlns="http://www.w3.org/2000/svg">
<path fill-rule="evenodd" clip-rule="evenodd" d="M157.999 2.94056C158.032 4.59709 156.716 5.96659 155.059 5.99942C150.235 6.09506 142.881 6.75021 133.913 7.54917C130.763 7.82975 127.415 8.12805 123.907 8.42609C110.517 9.56371 94.9984 10.676 80.0404 10.676C73.2513 10.676 66.856 10.373 60.1755 10.0564C45.197 9.34659 28.7845 8.56883 3.28312 10.9866C1.63367 11.143 0.169741 9.93263 0.0133551 8.28317C-0.14303 6.63372 1.06734 5.16979 2.7168 5.01341C28.6447 2.55517 45.7654 3.36174 60.9025 4.07487C67.4694 4.38424 73.663 4.67603 80.0404 4.67603C94.7343 4.67603 110.046 3.58212 123.399 2.44763C126.777 2.16058 130.044 1.8695 133.147 1.5929C142.212 0.785077 149.891 0.100693 154.941 0.000601178C156.597 -0.0322333 157.967 1.28403 157.999 2.94056Z" fill="#FF6B00"/>
</svg>
