<svg width="262" height="11" viewBox="0 0 262 11" fill="none" xmlns="http://www.w3.org/2000/svg">
<path fill-rule="evenodd" clip-rule="evenodd" d="M262 2.9647C262.019 4.62144 260.692 5.9803 259.035 5.9998C250.787 6.09687 238.225 6.76145 223.066 7.56337C217.787 7.84266 212.193 8.13861 206.356 8.43304C183.825 9.56966 157.801 10.676 132.752 10.676C121.544 10.676 110.882 10.3766 99.6905 10.0623C74.3741 9.35143 46.3493 8.56447 3.1687 10.9953C1.51446 11.0884 0.0979498 9.82285 0.0048268 8.16862C-0.0882962 6.51438 1.17724 5.09787 2.83147 5.00475C46.2662 2.55965 74.7119 3.35678 100.123 4.06887C111.247 4.38059 121.789 4.67602 132.752 4.67602C157.644 4.67602 183.545 3.57616 206.054 2.44066C211.813 2.15011 217.359 1.85672 222.611 1.57883C237.826 0.773783 250.583 0.0988597 258.965 0.000212102C260.622 -0.0192858 261.98 1.30796 262 2.9647Z" fill="#0075FF"/>
</svg>
