<svg width="150" height="11" viewBox="0 0 150 11" fill="none" xmlns="http://www.w3.org/2000/svg">
<path fill-rule="evenodd" clip-rule="evenodd" d="M149.999 2.93726C150.034 4.59375 148.719 5.9647 147.063 5.99936C142.504 6.09474 135.555 6.74824 127.064 7.54668C124.078 7.82747 120.901 8.12619 117.571 8.42487C104.884 9.56267 90.1707 10.676 75.9857 10.676C69.5314 10.676 63.462 10.3723 57.1272 10.0553C42.9461 9.34574 27.4351 8.56959 3.29872 10.9851C1.6501 11.1501 0.179882 9.94737 0.0148919 8.29875C-0.150098 6.65014 1.05262 5.17991 2.70124 5.01493C27 2.58317 43.546 3.36262 57.8945 4.07593C64.1094 4.38488 69.9659 4.67603 75.9857 4.67603C89.8919 4.67603 104.387 3.58317 117.035 2.44885C120.229 2.16242 123.319 1.87174 126.256 1.59536C134.849 0.787063 142.141 0.101016 146.937 0.000669749C148.594 -0.033988 149.965 1.28077 149.999 2.93726Z" fill="#FFE600"/>
</svg>
