<svg width="16" height="24" viewBox="0 0 16 24" fill="none" xmlns="http://www.w3.org/2000/svg">
<path d="M6.51542 23.0618C7.48868 23.5285 8.77067 23.7052 9.84976 23.6878C11.0407 23.679 11.8475 23.5943 12.9674 23.1888C14.5538 22.6238 15.8464 21.8795 15.7469 20.6134C15.6473 19.3472 15.246 17.2228 13.875 16.1741C13.6808 16.0141 13.4541 15.8983 13.2107 15.8347C12.9673 15.7712 12.7129 15.7615 12.4654 15.8063C11.8316 15.9282 11.1337 16.165 10.5 16.5491C9.75 17.0037 8.28954 16.735 7.5 16.1741C6.375 15.375 5.64117 11.3118 6.23225 8.625C6.47973 7.5 7.96954 7.78484 9.37511 7.62021L9.74072 7.58363C10.1544 7.54071 10.5476 7.38173 10.875 7.125C11.2024 6.86827 11.4506 6.52423 11.5911 6.13251C12.2817 4.39483 11.6801 2.23549 10.5 0.812827C9.5616 -0.315145 7.81656 -0.0766631 6.23225 0.380623C5.02893 0.723464 3.91357 1.32168 2.96206 2.13457C1.8896 3.07962 1.23556 4.24011 1.06698 5.49003C0.544966 9.45317 0.161074 16.2779 4.2417 21.3731C4.90427 22.2255 5.54216 22.5952 6.51542 23.0618Z" fill="white"/>
</svg>
